<svg version="1.1" xmlns="http://www.w3.org/2000/svg" viewBox="0 0 772.96484375 1075.8359375" width="1545.9296875" height="2151.671875">
  <!-- svg-source:excalidraw -->
  
  <defs>
    <style>
      @font-face {
        font-family: "Virgil";
        src: url("https://unpkg.com/@zsviczian/excalidraw@0.12.0-obsidian-8/dist/excalidraw-assets/Virgil.woff2");
      }
      @font-face {
        font-family: "Cascadia";
        src: url("https://unpkg.com/@zsviczian/excalidraw@0.12.0-obsidian-8/dist/excalidraw-assets/Cascadia.woff2");
      }
    </style>
  </defs>
  <rect x="0" y="0" width="772.96484375" height="1075.8359375" fill="#ffffff"/><g transform="translate(155.1328125 10.28125) rotate(0 6.30078125 237.791015625)" stroke="none"><path fill="#000000" d="M 1.38,-0.04 Q 1.38,-0.04 2.08,1.62 2.79,3.29 2.89,5.05 2.99,6.82 3.14,8.73 3.30,10.64 3.59,13.37 3.89,16.09 4.25,18.48 4.61,20.87 5.06,23.10 5.50,25.33 6.04,27.43 6.57,29.53 7.15,31.59 7.73,33.65 8.41,36.26 9.08,38.87 9.62,41.10 10.15,43.34 10.58,45.41 11.01,47.49 11.36,49.42 11.71,51.35 12.10,53.51 12.49,55.68 12.82,57.44 13.15,59.20 13.43,60.71 13.71,62.23 13.94,63.67 14.18,65.10 14.37,66.53 14.56,67.96 14.68,69.91 14.80,71.86 14.88,73.45 14.95,75.03 15.01,76.39 15.07,77.74 15.12,78.85 15.18,79.97 15.25,81.03 15.33,82.10 15.39,84.15 15.45,86.19 15.46,87.29 15.47,88.38 15.47,89.47 15.48,90.56 15.48,91.95 15.48,93.34 15.48,94.59 15.49,95.83 15.50,97.07 15.50,98.31 15.53,99.53 15.56,100.76 15.58,102.00 15.61,103.23 15.61,104.69 15.62,106.14 15.60,107.25 15.58,108.37 15.50,109.90 15.42,111.42 15.25,112.96 15.07,114.51 14.66,116.30 14.25,118.09 14.01,119.42 13.78,120.76 13.48,123.28 13.19,125.80 13.07,127.36 12.96,128.91 12.85,130.50 12.75,132.08 12.63,134.27 12.51,136.47 12.40,138.43 12.30,140.40 12.23,142.28 12.16,144.15 12.10,146.09 12.05,148.03 11.94,150.72 11.84,153.42 11.71,155.91 11.58,158.41 11.45,160.88 11.31,163.35 11.20,165.83 11.09,168.31 10.96,170.87 10.83,173.44 10.55,177.15 10.28,180.86 10.05,184.34 9.83,187.82 9.60,191.38 9.37,194.94 9.14,198.60 8.90,202.26 8.56,207.26 8.21,212.25 7.96,216.70 7.71,221.14 7.60,225.33 7.50,229.52 7.45,233.56 7.41,237.60 7.38,241.46 7.36,245.33 7.38,249.03 7.40,252.74 7.57,257.18 7.74,261.62 7.87,265.33 8.00,269.05 8.11,272.37 8.22,275.69 8.27,279.75 8.32,283.81 8.34,287.30 8.36,290.79 8.37,294.05 8.38,297.30 8.39,300.43 8.39,303.55 8.31,306.64 8.24,309.73 8.18,312.73 8.12,315.73 8.09,319.41 8.07,323.09 8.06,326.24 8.04,329.39 8.02,332.35 7.99,335.31 7.95,339.09 7.91,342.88 7.86,346.21 7.82,349.54 7.78,352.67 7.73,355.80 7.69,358.76 7.64,361.73 7.62,364.56 7.60,367.38 7.56,370.09 7.53,372.81 7.46,376.10 7.39,379.38 7.33,382.11 7.28,384.83 7.17,387.33 7.06,389.84 6.93,392.18 6.80,394.53 6.64,397.27 6.48,400.01 6.36,402.23 6.23,404.44 6.18,406.25 6.13,408.05 6.11,409.54 6.09,411.04 6.08,412.30 6.07,413.56 6.07,414.83 6.07,416.10 6.08,417.37 6.08,418.64 6.01,420.23 5.93,421.82 5.79,423.69 5.65,425.56 5.56,426.71 5.48,427.87 5.42,429.37 5.35,430.87 5.33,432.23 5.30,433.60 5.29,434.85 5.28,436.11 5.27,437.41 5.27,438.70 5.18,440.22 5.10,441.73 5.04,443.37 4.98,445.00 4.95,446.12 4.93,447.24 4.91,448.62 4.89,450.00 4.89,451.07 4.89,452.14 4.89,453.25 4.89,454.35 4.89,455.69 4.89,457.03 4.89,458.70 4.89,460.36 4.89,461.54 4.89,462.72 4.89,463.96 4.89,465.20 4.89,466.40 4.89,467.60 4.93,468.88 4.98,470.17 5.20,471.74 5.42,473.31 3.79,473.50 2.16,473.70 3.17,472.61 4.19,471.52 4.33,471.37 4.47,471.21 4.66,471.11 4.85,471.01 5.06,470.97 5.27,470.94 5.48,470.97 5.69,471.00 5.88,471.10 6.06,471.20 6.21,471.35 6.36,471.50 6.45,471.70 6.54,471.89 6.57,472.10 6.59,472.31 6.55,472.52 6.50,472.73 6.40,472.91 6.29,473.09 6.13,473.23 5.97,473.37 5.77,473.45 5.57,473.53 5.36,473.54 5.15,473.56 4.94,473.50 4.74,473.45 4.56,473.33 4.38,473.21 4.25,473.04 4.12,472.88 4.05,472.68 3.98,472.48 3.98,472.26 3.98,472.05 4.05,471.85 4.11,471.65 4.24,471.48 4.37,471.31 4.54,471.18 4.72,471.06 4.92,471.01 5.13,470.95 5.34,470.96 5.55,470.97 5.75,471.04 5.95,471.12 6.11,471.26 6.27,471.39 6.38,471.57 6.49,471.75 6.54,471.96 6.59,472.17 6.57,472.38 6.55,472.59 6.46,472.78 6.37,472.98 6.37,472.98 6.37,472.98 5.13,475.29 3.89,477.59 2.72,477.82 1.55,478.04 0.27,476.68 -1.00,475.32 -1.05,474.23 -1.11,473.14 -1.32,471.97 -1.53,470.80 -1.60,469.20 -1.66,467.60 -1.66,466.40 -1.67,465.20 -1.66,463.96 -1.66,462.72 -1.66,461.54 -1.66,460.36 -1.66,458.70 -1.66,457.03 -1.66,455.69 -1.66,454.35 -1.66,453.24 -1.66,452.13 -1.66,451.04 -1.65,449.95 -1.64,448.52 -1.62,447.09 -1.59,445.92 -1.57,444.75 -1.50,443.05 -1.44,441.35 -1.35,440.01 -1.27,438.68 -1.27,437.36 -1.26,436.05 -1.25,434.76 -1.24,433.47 -1.21,432.03 -1.18,430.60 -1.11,428.99 -1.04,427.37 -0.95,426.20 -0.86,425.03 -0.72,423.08 -0.57,421.13 -0.48,419.88 -0.39,418.63 -0.38,417.35 -0.37,416.08 -0.36,414.80 -0.36,413.51 -0.35,412.23 -0.34,410.95 -0.32,409.40 -0.29,407.86 -0.24,405.98 -0.18,404.09 -0.06,401.86 0.05,399.63 0.22,396.90 0.38,394.18 0.51,391.87 0.63,389.56 0.74,387.13 0.84,384.70 0.90,381.97 0.96,379.25 1.03,375.99 1.10,372.72 1.13,370.03 1.17,367.33 1.19,364.48 1.21,361.63 1.25,358.67 1.30,355.70 1.35,352.58 1.40,349.45 1.44,346.13 1.49,342.81 1.53,339.02 1.57,335.24 1.61,332.30 1.64,329.37 1.65,326.21 1.67,323.05 1.69,319.32 1.72,315.60 1.78,312.58 1.85,309.56 1.93,306.56 2.01,303.56 2.01,300.44 2.00,297.32 2.00,294.07 1.99,290.83 1.97,287.35 1.96,283.88 1.91,279.89 1.87,275.90 1.76,272.58 1.66,269.27 1.53,265.56 1.40,261.86 1.23,257.32 1.06,252.77 1.04,249.04 1.02,245.30 1.04,241.41 1.06,237.52 1.10,233.44 1.15,229.35 1.26,225.07 1.37,220.78 1.63,216.30 1.89,211.82 2.24,206.84 2.58,201.85 2.82,198.19 3.05,194.53 3.29,190.97 3.52,187.42 3.75,183.91 3.97,180.40 4.24,176.76 4.51,173.12 4.64,170.57 4.77,168.02 4.89,165.51 5.00,163.01 5.13,160.54 5.27,158.08 5.40,155.63 5.52,153.17 5.63,150.51 5.74,147.84 5.80,145.87 5.86,143.91 5.94,141.98 6.01,140.06 6.13,138.08 6.24,136.11 6.37,133.89 6.50,131.67 6.61,130.06 6.71,128.45 6.83,126.84 6.95,125.24 7.29,122.44 7.62,119.65 8.11,117.25 8.60,114.84 8.88,113.58 9.16,112.32 9.29,111.05 9.42,109.78 9.49,107.97 9.56,106.16 9.56,104.72 9.55,103.29 9.55,102.09 9.55,100.89 9.53,99.60 9.50,98.31 9.51,97.07 9.52,95.83 9.52,94.59 9.52,93.35 9.52,91.96 9.52,90.58 9.52,89.49 9.52,88.41 9.52,87.34 9.51,86.28 9.48,84.39 9.45,82.51 9.37,81.37 9.29,80.24 9.25,79.11 9.20,77.99 9.14,76.64 9.08,75.30 9.02,73.74 8.95,72.18 8.86,70.45 8.78,68.71 8.61,67.36 8.45,66.02 8.23,64.65 8.01,63.27 7.74,61.76 7.47,60.25 7.14,58.48 6.81,56.70 6.43,54.53 6.04,52.36 5.71,50.50 5.38,48.63 4.98,46.65 4.58,44.66 4.07,42.47 3.56,40.28 2.92,37.73 2.28,35.18 1.68,33.05 1.09,30.92 0.53,28.67 -0.02,26.42 -0.49,24.06 -0.95,21.70 -1.31,19.18 -1.68,16.65 -1.94,13.85 -2.20,11.04 -2.33,9.05 -2.46,7.05 -2.51,5.26 -2.57,3.46 -1.97,1.75 -1.38,0.04 -1.37,-0.12 -1.35,-0.28 -1.30,-0.44 -1.25,-0.60 -1.15,-0.74 -1.06,-0.88 -0.94,-1.00 -0.82,-1.11 -0.68,-1.19 -0.53,-1.28 -0.37,-1.32 -0.21,-1.37 -0.04,-1.37 0.12,-1.38 0.28,-1.34 0.45,-1.31 0.60,-1.24 0.75,-1.16 0.88,-1.06 1.00,-0.95 1.10,-0.81 1.20,-0.68 1.27,-0.53 1.33,-0.37 1.36,-0.21 1.38,-0.04 1.38,-0.04 L 1.38,-0.04 Z"/></g><g transform="translate(63.6171875 388.56640625) rotate(0 349.34375 2.037109375)" stroke="none"><path fill="#000000" d="M 0.22,-1.36 Q 0.22,-1.36 1.00,-2.01 1.78,-2.66 2.88,-2.47 3.97,-2.28 5.12,-2.07 6.27,-1.86 7.82,-1.63 9.38,-1.40 11.66,-1.35 13.95,-1.30 15.09,-1.30 16.23,-1.30 18.45,-1.16 20.67,-1.01 21.88,-0.89 23.08,-0.77 25.04,-0.72 27.00,-0.66 29.07,-0.64 31.14,-0.62 33.35,-0.62 35.57,-0.62 37.93,-0.65 40.30,-0.68 43.68,-0.74 47.06,-0.79 50.14,-0.81 53.23,-0.82 56.17,-0.83 59.12,-0.84 62.03,-0.84 64.94,-0.84 67.96,-0.62 70.98,-0.40 73.97,-0.06 76.95,0.27 80.71,0.71 84.46,1.15 87.51,1.44 90.57,1.73 93.25,1.91 95.93,2.08 99.11,2.35 102.29,2.61 104.93,2.95 107.56,3.28 109.89,3.65 112.22,4.01 114.35,4.35 116.47,4.70 118.44,4.91 120.40,5.13 122.32,5.30 124.25,5.48 126.54,5.66 128.82,5.84 130.68,6.00 132.54,6.17 134.13,6.32 135.72,6.47 137.67,6.61 139.61,6.75 141.42,6.84 143.22,6.93 145.10,6.99 146.98,7.05 148.95,7.08 150.93,7.10 153.05,7.11 155.17,7.13 157.35,7.13 159.53,7.13 162.17,7.14 164.81,7.14 167.00,7.14 169.19,7.13 171.07,7.13 172.95,7.13 175.03,7.13 177.11,7.12 178.81,7.11 180.51,7.10 182.08,7.09 183.65,7.08 185.21,7.07 186.78,7.06 188.40,7.05 190.01,7.05 191.68,7.04 193.35,7.04 195.61,7.03 197.87,7.03 199.93,7.03 201.98,7.03 204.04,7.05 206.11,7.08 208.27,7.09 210.43,7.10 213.50,7.10 216.57,7.10 219.46,7.10 222.34,7.10 225.26,7.10 228.17,7.10 231.04,7.10 233.92,7.10 236.64,7.10 239.35,7.10 242.61,7.20 245.87,7.31 248.60,7.47 251.34,7.63 253.83,7.74 256.32,7.86 258.70,7.91 261.08,7.96 264.05,7.98 267.02,8.00 269.37,8.01 271.73,8.02 273.63,8.02 275.53,8.02 277.10,8.03 278.67,8.03 279.97,8.06 281.27,8.09 282.47,8.19 283.66,8.28 284.80,8.39 285.94,8.50 287.08,8.59 288.23,8.68 289.97,8.75 291.70,8.82 293.19,8.83 294.68,8.85 296.63,8.85 298.57,8.86 300.83,8.70 303.09,8.54 305.72,8.29 308.34,8.03 311.89,7.73 315.45,7.42 318.68,7.18 321.92,6.94 325.11,6.65 328.30,6.36 331.61,5.97 334.92,5.57 339.52,4.92 344.12,4.26 348.29,3.71 352.46,3.15 356.44,2.72 360.43,2.29 364.33,1.97 368.22,1.65 372.06,1.38 375.90,1.10 380.45,0.74 385.00,0.38 388.71,0.04 392.43,-0.30 395.73,-0.66 399.03,-1.02 402.20,-1.35 405.38,-1.67 409.34,-2.00 413.30,-2.33 416.67,-2.63 420.05,-2.94 423.24,-3.26 426.43,-3.57 429.59,-3.90 432.74,-4.23 435.86,-4.59 438.99,-4.95 443.13,-5.36 447.27,-5.77 450.76,-6.11 454.25,-6.45 457.19,-6.82 460.13,-7.18 462.62,-7.52 465.11,-7.87 467.16,-8.13 469.20,-8.39 471.19,-8.51 473.17,-8.63 474.61,-8.68 476.05,-8.73 477.45,-8.67 478.84,-8.61 480.17,-8.50 481.50,-8.38 483.21,-8.32 484.92,-8.25 486.62,-8.22 488.32,-8.19 490.13,-8.18 491.94,-8.17 493.88,-8.16 495.82,-8.16 497.80,-8.24 499.78,-8.31 502.61,-8.61 505.43,-8.91 508.21,-9.28 510.99,-9.65 513.97,-10.02 516.96,-10.40 520.14,-10.73 523.33,-11.06 527.31,-11.29 531.29,-11.51 534.49,-11.61 537.69,-11.70 540.50,-11.75 543.31,-11.79 545.98,-11.80 548.65,-11.82 551.17,-11.83 553.70,-11.84 556.58,-11.70 559.45,-11.57 561.69,-11.34 563.92,-11.11 565.77,-10.88 567.62,-10.64 569.36,-10.37 571.11,-10.11 573.49,-9.63 575.87,-9.15 578.05,-8.70 580.22,-8.26 582.40,-7.86 584.57,-7.46 586.80,-7.14 589.04,-6.81 591.40,-6.54 593.77,-6.27 597.12,-5.96 600.48,-5.66 603.44,-5.45 606.40,-5.23 609.14,-5.09 611.88,-4.95 614.48,-4.83 617.09,-4.72 620.30,-4.45 623.50,-4.17 626.23,-3.84 628.97,-3.50 631.57,-3.14 634.17,-2.78 637.63,-2.36 641.09,-1.94 643.36,-1.70 645.63,-1.47 649.03,-1.27 652.44,-1.06 655.59,-0.95 658.75,-0.84 661.76,-0.79 664.77,-0.74 667.63,-0.72 670.49,-0.70 673.57,-0.66 676.65,-0.63 678.92,-0.53 681.18,-0.43 682.85,-0.33 684.52,-0.24 685.80,-0.14 687.07,-0.04 689.13,0.17 691.18,0.40 692.97,0.60 694.76,0.81 696.52,0.96 698.27,1.11 700.07,1.90 701.87,2.69 702.39,4.01 702.90,5.33 702.90,5.72 702.89,6.11 702.85,6.53 702.80,6.96 702.66,7.36 702.51,7.76 702.28,8.12 702.04,8.48 701.73,8.77 701.41,9.06 701.04,9.26 700.66,9.47 700.25,9.58 699.83,9.69 699.41,9.69 698.98,9.70 698.56,9.61 698.14,9.51 697.76,9.32 697.38,9.13 697.05,8.85 696.73,8.57 696.48,8.23 696.23,7.88 696.07,7.48 695.91,7.08 695.85,6.66 695.79,6.24 696.91,4.64 698.03,3.05 698.06,2.84 698.10,2.63 698.20,2.44 698.30,2.26 698.45,2.11 698.61,1.96 698.80,1.87 698.99,1.78 699.20,1.76 699.41,1.74 699.62,1.78 699.83,1.83 700.01,1.94 700.19,2.05 700.33,2.21 700.47,2.37 700.55,2.57 700.63,2.77 700.64,2.98 700.65,3.19 700.59,3.40 700.53,3.60 700.42,3.78 700.30,3.95 700.13,4.08 699.96,4.21 699.76,4.28 699.55,4.35 699.34,4.35 699.13,4.35 698.93,4.28 698.73,4.21 698.56,4.08 698.39,3.95 698.27,3.78 698.15,3.60 698.09,3.40 698.04,3.19 698.05,2.98 698.06,2.77 698.14,2.57 698.22,2.37 698.36,2.21 698.49,2.05 698.67,1.94 698.86,1.83 699.06,1.78 699.27,1.74 699.48,1.76 699.69,1.78 699.89,1.87 700.08,1.96 700.23,2.11 700.39,2.26 700.49,2.44 700.59,2.63 700.62,2.84 700.66,3.05 700.66,3.05 700.66,3.05 701.77,4.58 702.89,6.11 702.85,6.53 702.80,6.96 702.66,7.36 702.51,7.76 702.28,8.12 702.04,8.48 701.73,8.77 701.41,9.06 701.04,9.26 700.66,9.47 700.25,9.58 699.83,9.69 699.41,9.69 698.98,9.70 698.56,9.61 698.14,9.51 697.76,9.32 697.38,9.13 697.05,8.85 696.73,8.57 696.48,8.23 696.23,7.88 696.07,7.48 695.91,7.08 695.85,6.66 695.79,6.24 695.85,6.35 695.91,6.47 696.71,7.38 697.51,8.30 695.75,8.14 693.99,7.98 692.15,7.78 690.31,7.57 688.42,7.36 686.53,7.15 685.31,7.06 684.10,6.97 682.48,6.87 680.86,6.78 678.72,6.68 676.57,6.59 673.50,6.55 670.44,6.51 667.55,6.49 664.65,6.47 661.57,6.42 658.49,6.37 655.25,6.25 652.01,6.13 648.45,5.92 644.89,5.71 642.56,5.47 640.22,5.23 636.70,4.80 633.17,4.37 630.62,4.02 628.07,3.66 625.48,3.33 622.88,3.01 619.83,2.74 616.77,2.48 614.14,2.37 611.50,2.25 608.69,2.10 605.89,1.95 602.86,1.74 599.82,1.52 596.38,1.21 592.94,0.90 590.47,0.61 587.99,0.32 585.63,-0.01 583.26,-0.36 581.02,-0.77 578.79,-1.19 576.61,-1.63 574.44,-2.07 572.22,-2.52 570.00,-2.97 568.36,-3.22 566.71,-3.48 564.95,-3.70 563.18,-3.93 561.15,-4.14 559.11,-4.35 556.41,-4.48 553.72,-4.62 551.21,-4.61 548.70,-4.60 546.06,-4.59 543.42,-4.57 540.66,-4.53 537.90,-4.49 534.80,-4.40 531.69,-4.31 527.88,-4.10 524.07,-3.88 520.97,-3.57 517.87,-3.25 514.90,-2.87 511.94,-2.49 509.06,-2.11 506.18,-1.73 503.12,-1.42 500.06,-1.10 497.93,-1.02 495.80,-0.94 493.84,-0.95 491.89,-0.95 490.04,-0.97 488.19,-0.98 486.41,-1.01 484.62,-1.05 482.75,-1.13 480.88,-1.21 479.68,-1.31 478.48,-1.42 477.38,-1.48 476.29,-1.54 474.94,-1.50 473.59,-1.46 471.84,-1.37 470.09,-1.27 468.09,-1.02 466.08,-0.77 463.53,-0.43 460.98,-0.09 457.96,0.26 454.93,0.62 451.44,0.94 447.95,1.27 443.87,1.65 439.78,2.03 436.62,2.38 433.46,2.74 430.29,3.06 427.12,3.38 423.90,3.70 420.67,4.02 417.27,4.32 413.88,4.62 409.98,4.94 406.08,5.26 402.93,5.58 399.79,5.89 396.43,6.25 393.06,6.62 389.30,6.96 385.54,7.31 380.97,7.67 376.39,8.03 372.59,8.30 368.79,8.57 364.98,8.88 361.17,9.19 357.27,9.61 353.37,10.03 349.23,10.58 345.10,11.13 340.42,11.79 335.73,12.45 332.33,12.85 328.93,13.25 325.68,13.54 322.43,13.83 319.23,14.07 316.03,14.30 312.52,14.60 309.01,14.90 306.28,15.16 303.56,15.42 301.05,15.58 298.54,15.74 296.58,15.73 294.61,15.73 293.04,15.71 291.48,15.69 290.21,15.64 288.94,15.60 287.78,15.53 286.62,15.46 285.48,15.33 284.33,15.20 282.73,15.07 281.12,14.94 279.89,14.91 278.66,14.89 277.09,14.88 275.51,14.88 273.61,14.88 271.70,14.87 269.34,14.86 266.97,14.85 263.95,14.83 260.94,14.81 258.46,14.75 255.99,14.70 253.47,14.58 250.94,14.45 248.29,14.30 245.63,14.14 242.49,14.03 239.35,13.93 236.63,13.92 233.92,13.92 231.04,13.92 228.17,13.92 225.25,13.92 222.34,13.91 219.45,13.91 216.56,13.91 213.48,13.90 210.39,13.89 208.21,13.88 206.02,13.86 204.00,13.84 201.98,13.81 199.93,13.81 197.87,13.81 195.61,13.80 193.35,13.80 191.68,13.79 190.01,13.79 188.40,13.78 186.78,13.77 185.21,13.76 183.65,13.75 182.08,13.74 180.51,13.73 178.81,13.72 177.11,13.72 175.03,13.71 172.95,13.70 171.07,13.70 169.18,13.70 167.00,13.69 164.81,13.69 162.16,13.69 159.51,13.68 157.32,13.68 155.13,13.67 152.98,13.66 150.84,13.65 148.80,13.62 146.76,13.59 144.83,13.52 142.91,13.46 141.02,13.37 139.13,13.27 137.12,13.12 135.10,12.97 133.54,12.83 131.98,12.68 130.14,12.52 128.30,12.36 125.98,12.17 123.66,11.99 121.67,11.80 119.68,11.62 117.55,11.38 115.43,11.15 113.32,10.80 111.21,10.46 108.97,10.10 106.72,9.75 104.23,9.42 101.74,9.09 98.62,8.83 95.50,8.56 92.73,8.37 89.95,8.18 86.82,7.88 83.70,7.58 79.96,7.13 76.21,6.68 73.36,6.35 70.50,6.02 67.72,5.80 64.95,5.59 62.04,5.60 59.13,5.60 56.19,5.60 53.26,5.61 50.19,5.62 47.13,5.64 43.74,5.65 40.35,5.67 37.94,5.68 35.52,5.69 33.28,5.66 31.03,5.63 28.89,5.58 26.75,5.53 24.58,5.42 22.41,5.31 21.19,5.16 19.97,5.01 18.08,4.85 16.18,4.69 15.02,4.67 13.87,4.66 12.40,4.63 10.93,4.61 8.82,4.43 6.71,4.24 5.26,3.97 3.82,3.70 2.32,3.40 0.82,3.10 0.29,2.23 -0.22,1.36 -0.38,1.31 -0.54,1.26 -0.68,1.18 -0.83,1.09 -0.95,0.98 -1.07,0.86 -1.16,0.72 -1.24,0.58 -1.30,0.42 -1.35,0.27 -1.36,0.10 -1.37,-0.06 -1.35,-0.22 -1.32,-0.38 -1.25,-0.54 -1.19,-0.69 -1.09,-0.82 -0.99,-0.95 -0.86,-1.06 -0.73,-1.16 -0.58,-1.23 -0.43,-1.30 -0.26,-1.34 -0.10,-1.37 0.06,-1.36 0.22,-1.36 0.22,-1.36 L 0.22,-1.36 Z"/></g><g transform="translate(79.44140625 350.671875) rotate(0 242.619140625 -159.916015625)" stroke="none"><path fill="#000000" d="M 0.69,-1.55 Q 0.69,-1.55 1.64,-1.57 2.58,-1.59 4.42,-1.55 6.27,-1.51 7.73,-1.56 9.20,-1.60 10.76,-1.81 12.32,-2.02 14.54,-2.39 16.76,-2.76 18.84,-3.06 20.91,-3.36 22.92,-3.55 24.92,-3.74 26.94,-3.85 28.96,-3.96 31.47,-4.13 33.99,-4.29 36.12,-4.47 38.25,-4.65 40.22,-4.91 42.18,-5.18 44.27,-5.64 46.35,-6.10 48.82,-6.83 51.28,-7.57 55.08,-8.65 58.87,-9.73 62.09,-10.50 65.31,-11.26 67.93,-11.79 70.55,-12.31 72.59,-12.72 74.64,-13.13 76.31,-13.42 77.98,-13.71 79.89,-13.97 81.81,-14.24 83.57,-14.47 85.33,-14.69 87.17,-14.92 89.00,-15.15 91.50,-15.66 94.00,-16.16 96.14,-16.70 98.29,-17.24 100.16,-17.78 102.02,-18.33 103.69,-18.84 105.36,-19.35 106.87,-19.83 108.39,-20.31 109.83,-20.83 111.28,-21.35 113.37,-22.17 115.46,-22.99 117.47,-23.75 119.47,-24.51 121.52,-25.21 123.56,-25.90 125.56,-26.54 127.56,-27.17 129.52,-27.70 131.48,-28.22 133.87,-28.80 136.27,-29.39 138.39,-29.85 140.51,-30.32 142.42,-30.69 144.33,-31.06 146.12,-31.36 147.91,-31.65 150.38,-32.14 152.86,-32.62 155.33,-33.16 157.81,-33.69 160.25,-34.25 162.68,-34.80 165.60,-35.53 168.51,-36.26 170.97,-36.95 173.44,-37.63 175.92,-38.46 178.41,-39.28 181.23,-40.35 184.04,-41.43 187.18,-42.72 190.33,-44.01 193.68,-45.44 197.03,-46.86 201.68,-48.82 206.33,-50.77 210.59,-52.55 214.86,-54.33 218.93,-56.02 223.01,-57.71 226.91,-59.35 230.81,-60.99 235.62,-63.03 240.44,-65.06 244.59,-66.80 248.74,-68.55 252.73,-70.22 256.73,-71.89 261.45,-73.85 266.17,-75.81 271.90,-78.24 277.62,-80.68 283.44,-83.26 289.26,-85.84 293.22,-87.76 297.17,-89.69 300.95,-91.68 304.72,-93.68 308.62,-95.89 312.52,-98.09 317.40,-101.15 322.27,-104.21 326.16,-106.78 330.05,-109.36 333.15,-111.54 336.25,-113.73 338.85,-115.68 341.46,-117.63 343.91,-119.56 346.37,-121.49 349.99,-124.20 353.62,-126.91 356.98,-129.27 360.34,-131.64 363.33,-133.66 366.33,-135.68 368.76,-137.38 371.19,-139.09 373.72,-141.08 376.24,-143.06 378.35,-144.86 380.47,-146.67 382.41,-148.52 384.35,-150.36 386.32,-152.42 388.28,-154.48 390.50,-156.81 392.72,-159.15 395.17,-161.60 397.61,-164.04 400.47,-166.87 403.33,-169.70 405.35,-171.92 407.37,-174.15 408.94,-176.15 410.51,-178.15 412.27,-181.01 414.03,-183.87 415.76,-186.80 417.49,-189.73 419.22,-192.68 420.94,-195.62 422.53,-198.46 424.12,-201.29 425.42,-203.88 426.71,-206.47 427.69,-208.88 428.66,-211.28 429.78,-214.45 430.89,-217.62 431.83,-220.47 432.77,-223.32 433.67,-225.88 434.58,-228.45 435.91,-231.36 437.25,-234.27 438.54,-236.70 439.84,-239.14 441.14,-241.34 442.45,-243.55 443.72,-245.58 444.98,-247.62 446.10,-249.46 447.22,-251.30 448.26,-253.05 449.31,-254.81 450.57,-256.95 451.83,-259.08 452.96,-260.90 454.10,-262.71 455.19,-264.48 456.29,-266.24 457.89,-268.86 459.50,-271.48 460.97,-273.92 462.44,-276.35 463.76,-278.67 465.07,-280.98 466.21,-283.17 467.34,-285.37 468.31,-287.39 469.27,-289.41 470.05,-291.17 470.83,-292.94 471.64,-294.96 472.45,-296.98 473.15,-298.75 473.86,-300.53 474.49,-302.12 475.11,-303.72 475.67,-305.05 476.22,-306.39 476.71,-307.61 477.21,-308.84 477.61,-309.86 478.01,-310.87 478.70,-312.78 479.40,-314.69 480.14,-316.64 480.88,-318.59 481.39,-319.82 481.89,-321.05 482.05,-321.31 482.20,-321.58 482.38,-321.91 482.56,-322.24 482.81,-322.52 483.07,-322.80 483.38,-323.01 483.69,-323.22 484.05,-323.35 484.40,-323.48 484.78,-323.52 485.15,-323.56 485.52,-323.51 485.90,-323.46 486.25,-323.32 486.60,-323.18 486.91,-322.96 487.21,-322.74 487.46,-322.46 487.70,-322.17 487.88,-321.84 488.05,-321.50 488.13,-321.13 488.22,-320.77 488.21,-320.39 488.21,-320.01 488.11,-319.65 488.02,-319.29 484.49,-319.49 480.96,-319.70 480.75,-319.75 480.55,-319.80 480.37,-319.92 480.19,-320.03 480.06,-320.20 479.92,-320.37 479.85,-320.57 479.78,-320.77 479.77,-320.98 479.77,-321.19 479.83,-321.39 479.89,-321.60 480.02,-321.77 480.14,-321.94 480.32,-322.06 480.49,-322.19 480.69,-322.25 480.90,-322.31 481.11,-322.30 481.32,-322.30 481.52,-322.22 481.72,-322.15 481.88,-322.02 482.05,-321.88 482.16,-321.70 482.28,-321.52 482.33,-321.32 482.38,-321.11 482.36,-320.90 482.34,-320.69 482.26,-320.49 482.17,-320.30 482.03,-320.14 481.89,-319.98 481.70,-319.88 481.52,-319.78 481.31,-319.74 481.10,-319.70 480.89,-319.73 480.68,-319.76 480.49,-319.85 480.30,-319.95 480.15,-320.10 480.00,-320.25 479.91,-320.44 479.81,-320.63 479.78,-320.84 479.76,-321.05 479.80,-321.26 479.84,-321.47 479.94,-321.65 480.05,-321.84 480.21,-321.98 480.37,-322.12 480.56,-322.20 480.76,-322.28 480.97,-322.30 481.18,-322.32 481.18,-322.32 481.18,-322.32 481.69,-321.95 482.20,-321.58 482.38,-321.91 482.56,-322.24 482.81,-322.52 483.07,-322.80 483.38,-323.01 483.69,-323.22 484.05,-323.35 484.40,-323.48 484.78,-323.52 485.15,-323.56 485.52,-323.51 485.90,-323.46 486.25,-323.32 486.60,-323.18 486.90,-322.96 487.21,-322.74 487.46,-322.46 487.70,-322.17 487.88,-321.84 488.05,-321.50 488.13,-321.14 488.22,-320.77 488.21,-320.39 488.21,-320.01 488.11,-319.65 488.02,-319.29 488.00,-318.96 487.99,-318.64 487.55,-317.41 487.12,-316.18 486.73,-315.19 486.35,-314.20 485.67,-312.34 485.00,-310.49 484.63,-309.47 484.26,-308.45 483.85,-307.39 483.44,-306.32 482.93,-305.07 482.43,-303.82 481.90,-302.54 481.37,-301.27 480.74,-299.66 480.12,-298.05 479.41,-296.26 478.70,-294.47 477.85,-292.34 477.00,-290.21 476.18,-288.36 475.36,-286.51 474.35,-284.39 473.34,-282.26 472.14,-279.95 470.95,-277.64 469.59,-275.26 468.24,-272.87 466.76,-270.40 465.28,-267.94 463.67,-265.30 462.05,-262.66 460.95,-260.89 459.86,-259.13 458.77,-257.38 457.68,-255.63 456.42,-253.48 455.15,-251.34 454.09,-249.55 453.03,-247.77 451.89,-245.89 450.75,-244.02 449.52,-242.05 448.30,-240.09 447.07,-238.01 445.83,-235.94 444.63,-233.68 443.42,-231.42 442.20,-228.80 440.98,-226.19 440.09,-223.69 439.21,-221.19 438.25,-218.28 437.29,-215.37 436.11,-212.04 434.93,-208.72 433.84,-206.08 432.76,-203.44 431.39,-200.71 430.01,-197.98 428.39,-195.10 426.78,-192.21 425.05,-189.26 423.32,-186.30 421.56,-183.29 419.79,-180.29 417.81,-177.12 415.83,-173.96 414.10,-171.78 412.38,-169.60 410.23,-167.24 408.09,-164.89 405.24,-162.07 402.39,-159.26 400.01,-156.88 397.62,-154.50 395.39,-152.15 393.17,-149.80 391.08,-147.63 389.00,-145.46 386.92,-143.50 384.84,-141.54 382.62,-139.65 380.40,-137.76 377.73,-135.67 375.06,-133.57 372.58,-131.84 370.09,-130.10 367.16,-128.11 364.22,-126.13 360.94,-123.82 357.66,-121.51 354.10,-118.84 350.55,-116.18 348.03,-114.20 345.52,-112.21 342.84,-110.21 340.16,-108.20 336.98,-105.94 333.80,-103.69 329.84,-101.07 325.88,-98.46 320.86,-95.32 315.85,-92.19 311.87,-89.95 307.88,-87.71 304.00,-85.66 300.12,-83.61 296.06,-81.64 292.00,-79.67 286.13,-77.07 280.26,-74.47 274.51,-72.03 268.76,-69.58 264.04,-67.63 259.32,-65.67 255.32,-64.01 251.33,-62.35 247.18,-60.63 243.04,-58.90 238.21,-56.87 233.39,-54.84 229.47,-53.20 225.55,-51.56 221.48,-49.89 217.41,-48.21 213.15,-46.44 208.89,-44.66 204.24,-42.73 199.60,-40.80 196.21,-39.37 192.82,-37.94 189.59,-36.61 186.36,-35.29 183.40,-34.19 180.44,-33.08 177.80,-32.22 175.16,-31.37 172.61,-30.67 170.06,-29.98 167.07,-29.26 164.09,-28.54 161.61,-27.99 159.13,-27.45 156.58,-26.92 154.04,-26.40 151.48,-25.93 148.93,-25.46 147.22,-25.18 145.51,-24.90 143.69,-24.55 141.86,-24.20 139.80,-23.75 137.74,-23.30 135.41,-22.74 133.09,-22.19 131.26,-21.70 129.42,-21.21 127.49,-20.62 125.56,-20.02 123.62,-19.36 121.68,-18.70 119.70,-17.95 117.71,-17.19 115.53,-16.36 113.36,-15.52 111.81,-14.97 110.26,-14.42 108.70,-13.93 107.15,-13.43 105.44,-12.92 103.73,-12.41 101.74,-11.84 99.75,-11.27 97.45,-10.73 95.16,-10.18 92.45,-9.68 89.74,-9.17 87.91,-8.94 86.08,-8.72 84.35,-8.51 82.62,-8.30 80.81,-8.05 78.99,-7.81 77.40,-7.53 75.80,-7.26 73.76,-6.86 71.71,-6.45 69.19,-5.96 66.68,-5.47 63.57,-4.74 60.46,-4.01 56.68,-2.99 52.90,-1.97 50.22,-1.22 47.55,-0.47 45.24,0.00 42.92,0.47 40.82,0.73 38.71,1.00 36.52,1.17 34.33,1.33 31.79,1.48 29.25,1.62 27.34,1.71 25.43,1.80 23.56,1.97 21.69,2.13 19.65,2.41 17.62,2.68 15.29,3.03 12.96,3.37 11.13,3.57 9.30,3.77 7.65,3.77 6.01,3.78 4.58,3.68 3.16,3.58 1.86,3.29 0.57,3.01 -0.06,2.28 -0.69,1.55 -0.87,1.45 -1.05,1.34 -1.19,1.19 -1.34,1.05 -1.44,0.87 -1.55,0.70 -1.61,0.50 -1.67,0.31 -1.69,0.10 -1.70,-0.10 -1.66,-0.30 -1.62,-0.50 -1.54,-0.69 -1.46,-0.88 -1.33,-1.04 -1.20,-1.20 -1.04,-1.33 -0.88,-1.45 -0.69,-1.54 -0.51,-1.62 -0.30,-1.66 -0.10,-1.70 0.09,-1.69 0.30,-1.67 0.50,-1.61 0.69,-1.55 0.69,-1.55 L 0.69,-1.55 Z"/></g><g transform="translate(196.0625 284.07421875) rotate(0 4.44921875 15.67578125)" stroke="none"><path fill="#000000" d="M 1.52,0.55 Q 1.52,0.55 0.94,3.39 0.36,6.24 -0.54,8.83 -1.46,11.42 -2.32,13.98 -3.19,16.54 -3.98,19.01 -4.77,21.48 -5.64,23.95 -6.51,26.42 -7.08,27.89 -7.65,29.35 -8.26,30.61 -8.87,31.87 -9.03,32.15 -9.19,32.42 -9.41,32.64 -9.63,32.87 -9.90,33.04 -10.17,33.20 -10.47,33.30 -10.77,33.40 -11.08,33.42 -11.40,33.44 -11.71,33.39 -12.02,33.34 -12.31,33.21 -12.60,33.09 -12.85,32.89 -13.10,32.70 -13.30,32.46 -13.50,32.21 -13.63,31.92 -13.77,31.64 -13.83,31.33 -13.89,31.02 -13.87,30.70 -13.86,30.38 -13.77,30.08 -13.68,29.78 -12.24,29.05 -10.81,28.32 -8.48,26.06 -6.15,23.80 -3.64,21.77 -1.13,19.73 1.50,17.85 4.14,15.96 6.37,14.63 8.59,13.31 10.16,12.60 11.72,11.89 13.11,11.56 14.51,11.22 16.81,9.93 19.12,8.64 19.25,8.48 19.39,8.31 19.57,8.21 19.76,8.10 19.96,8.05 20.17,8.00 20.38,8.03 20.59,8.05 20.79,8.14 20.98,8.23 21.13,8.37 21.29,8.52 21.39,8.71 21.49,8.89 21.52,9.10 21.56,9.31 21.52,9.52 21.49,9.73 21.39,9.92 21.29,10.11 21.14,10.25 20.98,10.40 20.79,10.49 20.60,10.58 20.38,10.60 20.17,10.63 19.97,10.58 19.76,10.54 19.58,10.43 19.39,10.32 19.26,10.15 19.12,9.99 19.04,9.80 18.96,9.60 18.95,9.39 18.94,9.17 18.99,8.97 19.05,8.76 19.17,8.59 19.29,8.41 19.46,8.28 19.63,8.16 19.83,8.09 20.03,8.02 20.24,8.02 20.45,8.02 20.66,8.09 20.86,8.15 21.03,8.28 21.20,8.41 21.31,8.59 21.43,8.76 21.49,8.97 21.55,9.17 21.54,9.38 21.53,9.60 21.45,9.79 21.37,9.99 21.37,9.99 21.37,9.99 19.72,12.64 18.07,15.30 16.03,16.10 13.99,16.91 12.71,17.50 11.43,18.08 9.39,19.29 7.35,20.50 4.83,22.27 2.31,24.04 -0.14,25.99 -2.61,27.95 -4.94,29.89 -7.28,31.83 -8.85,32.61 -10.43,33.39 -9.65,32.63 -8.87,31.87 -9.03,32.14 -9.19,32.42 -9.41,32.64 -9.63,32.87 -9.90,33.04 -10.17,33.20 -10.47,33.30 -10.77,33.40 -11.08,33.42 -11.40,33.44 -11.71,33.39 -12.02,33.34 -12.31,33.21 -12.60,33.09 -12.85,32.89 -13.10,32.70 -13.30,32.46 -13.50,32.21 -13.63,31.92 -13.77,31.64 -13.83,31.33 -13.89,31.02 -13.87,30.70 -13.86,30.38 -13.77,30.08 -13.68,29.78 -13.08,28.61 -12.49,27.45 -11.94,26.07 -11.39,24.70 -10.54,22.28 -9.68,19.87 -8.85,17.37 -8.02,14.88 -7.11,12.29 -6.20,9.71 -5.24,7.13 -4.29,4.54 -2.91,1.99 -1.52,-0.55 -1.43,-0.73 -1.34,-0.90 -1.22,-1.05 -1.09,-1.20 -0.93,-1.31 -0.77,-1.42 -0.59,-1.50 -0.40,-1.57 -0.21,-1.59 -0.02,-1.62 0.17,-1.60 0.36,-1.58 0.55,-1.51 0.73,-1.44 0.89,-1.33 1.06,-1.23 1.19,-1.08 1.32,-0.94 1.41,-0.76 1.51,-0.59 1.56,-0.40 1.61,-0.21 1.61,-0.02 1.61,0.17 1.57,0.36 1.52,0.55 1.52,0.55 L 1.52,0.55 Z"/></g><g transform="translate(194.0703125 306.14453125) rotate(0 17.66796875 -22.357421875)" stroke="none"><path fill="#000000" d="M -1.14,-0.83 Q -1.14,-0.83 -0.85,-2.16 -0.56,-3.49 0.31,-4.69 1.18,-5.88 2.38,-7.54 3.59,-9.20 6.17,-12.52 8.76,-15.85 11.52,-19.29 14.28,-22.74 17.09,-26.19 19.90,-29.65 22.45,-32.80 25.00,-35.95 27.01,-38.37 29.01,-40.79 31.23,-42.82 33.46,-44.85 33.58,-45.03 33.71,-45.20 33.88,-45.32 34.06,-45.44 34.26,-45.50 34.47,-45.56 34.68,-45.55 34.89,-45.54 35.09,-45.46 35.29,-45.39 35.45,-45.25 35.61,-45.12 35.73,-44.94 35.84,-44.76 35.89,-44.55 35.93,-44.34 35.91,-44.13 35.89,-43.92 35.81,-43.72 35.72,-43.53 35.58,-43.37 35.43,-43.22 35.25,-43.12 35.06,-43.01 34.85,-42.98 34.64,-42.94 34.43,-42.97 34.22,-43.00 34.03,-43.10 33.84,-43.20 33.69,-43.35 33.55,-43.50 33.45,-43.70 33.36,-43.89 33.34,-44.10 33.31,-44.31 33.35,-44.52 33.40,-44.73 33.51,-44.91 33.61,-45.09 33.77,-45.23 33.93,-45.37 34.13,-45.45 34.33,-45.53 34.54,-45.55 34.75,-45.56 34.96,-45.51 35.16,-45.45 35.34,-45.34 35.52,-45.22 35.65,-45.05 35.78,-44.88 35.85,-44.68 35.92,-44.48 35.92,-44.27 35.92,-44.06 35.86,-43.86 35.79,-43.65 35.79,-43.65 35.79,-43.65 34.56,-40.46 33.32,-37.27 31.36,-34.83 29.39,-32.39 26.83,-29.24 24.27,-26.08 21.46,-22.65 18.65,-19.21 15.88,-15.80 13.10,-12.39 10.49,-9.18 7.87,-5.97 6.58,-4.33 5.29,-2.68 4.39,-1.60 3.50,-0.53 2.32,0.15 1.14,0.83 1.03,0.96 0.91,1.08 0.77,1.18 0.62,1.27 0.46,1.33 0.30,1.38 0.13,1.40 -0.03,1.42 -0.20,1.39 -0.37,1.37 -0.53,1.30 -0.69,1.24 -0.83,1.13 -0.97,1.03 -1.08,0.90 -1.19,0.77 -1.26,0.62 -1.34,0.46 -1.37,0.30 -1.41,0.13 -1.41,-0.03 -1.40,-0.20 -1.36,-0.37 -1.31,-0.53 -1.23,-0.68 -1.14,-0.83 -1.14,-0.83 L -1.14,-0.83 Z"/></g><g transform="translate(157.02734375 347.734375) rotate(0 4.02734375 -8.619140625)" stroke="none"><path fill="#000000" d="M -1.54,0.59 Q -1.54,0.59 -2.55,-0.65 -3.57,-1.89 -3.83,-3.93 -4.10,-5.96 -3.62,-8.13 -3.14,-10.29 -1.96,-12.11 -0.78,-13.93 1.35,-15.02 3.49,-16.11 5.40,-16.05 7.31,-15.99 8.75,-15.04 10.18,-14.08 10.93,-12.62 11.67,-11.16 11.62,-9.05 11.58,-6.94 10.74,-5.11 9.91,-3.28 8.56,-1.86 7.21,-0.43 5.69,0.39 4.18,1.23 1.85,0.86 -0.46,0.49 -1.35,-1.10 -2.25,-2.71 -2.36,-4.89 -2.48,-7.07 -1.80,-9.32 -1.12,-11.56 0.05,-13.50 1.23,-15.44 2.55,-16.89 3.86,-18.33 5.87,-19.09 7.88,-19.86 9.16,-19.31 10.44,-18.77 11.11,-17.25 11.79,-15.73 11.96,-14.25 12.13,-12.76 11.63,-10.87 11.13,-8.97 10.24,-7.75 9.35,-6.54 7.70,-5.88 6.06,-5.22 4.42,-5.79 2.79,-6.35 1.59,-7.93 0.40,-9.50 -0.09,-11.99 -0.59,-14.47 -0.64,-14.67 -0.70,-14.88 -0.69,-15.09 -0.67,-15.30 -0.60,-15.50 -0.52,-15.69 -0.38,-15.86 -0.24,-16.02 -0.06,-16.13 0.12,-16.23 0.32,-16.28 0.53,-16.32 0.74,-16.30 0.95,-16.28 1.15,-16.19 1.34,-16.10 1.49,-15.95 1.65,-15.80 1.74,-15.62 1.84,-15.43 1.88,-15.22 1.91,-15.01 1.87,-14.80 1.84,-14.59 1.74,-14.40 1.64,-14.21 1.48,-14.07 1.33,-13.92 1.14,-13.83 0.94,-13.75 0.73,-13.72 0.52,-13.70 0.31,-13.75 0.11,-13.79 -0.07,-13.91 -0.25,-14.02 -0.38,-14.18 -0.52,-14.34 -0.60,-14.54 -0.68,-14.74 -0.69,-14.95 -0.70,-15.16 -0.64,-15.36 -0.58,-15.57 -0.46,-15.74 -0.34,-15.92 -0.17,-16.05 -0.00,-16.18 0.19,-16.24 0.39,-16.31 0.60,-16.31 0.81,-16.31 1.02,-16.24 1.22,-16.17 1.39,-16.04 1.55,-15.91 1.67,-15.74 1.79,-15.56 1.79,-15.56 1.79,-15.56 3.15,-13.98 4.51,-12.39 4.96,-11.26 5.41,-10.13 6.23,-11.31 7.05,-12.49 7.27,-13.69 7.50,-14.89 6.51,-13.82 5.51,-12.74 4.59,-11.33 3.67,-9.92 3.13,-8.50 2.59,-7.08 3.13,-5.60 3.67,-4.13 4.55,-4.90 5.44,-5.68 6.23,-7.58 7.02,-9.49 6.13,-10.49 5.25,-11.49 4.22,-11.14 3.18,-10.79 2.53,-9.85 1.87,-8.92 1.49,-7.69 1.10,-6.46 1.24,-5.11 1.39,-3.76 1.46,-2.18 1.54,-0.59 1.59,-0.40 1.64,-0.20 1.64,-0.00 1.64,0.19 1.60,0.38 1.55,0.58 1.46,0.75 1.36,0.93 1.23,1.08 1.10,1.23 0.94,1.35 0.77,1.46 0.59,1.53 0.40,1.60 0.20,1.63 0.00,1.65 -0.19,1.63 -0.38,1.61 -0.57,1.54 -0.76,1.47 -0.92,1.35 -1.09,1.24 -1.22,1.09 -1.36,0.94 -1.45,0.77 -1.54,0.59 -1.54,0.59 L -1.54,0.59 Z"/></g><g transform="translate(228.17578125 197.19921875) rotate(0 -4.404296875 19.373046875)" stroke="none"><path fill="#000000" d="M 1.40,1.11 Q 1.40,1.11 0.51,2.91 -0.38,4.72 -1.63,7.23 -2.88,9.75 -3.77,12.66 -4.66,15.58 -5.08,18.82 -5.50,22.05 -5.43,25.18 -5.36,28.30 -4.19,30.74 -3.02,33.19 -1.55,35.07 -0.08,36.94 0.05,37.10 0.19,37.27 0.26,37.46 0.34,37.66 0.35,37.87 0.36,38.09 0.31,38.29 0.25,38.50 0.13,38.67 0.01,38.85 -0.15,38.98 -0.32,39.10 -0.52,39.17 -0.72,39.24 -0.94,39.24 -1.15,39.24 -1.35,39.17 -1.55,39.10 -1.72,38.97 -1.89,38.84 -2.01,38.67 -2.12,38.49 -2.18,38.28 -2.24,38.08 -2.23,37.87 -2.21,37.66 -2.13,37.46 -2.05,37.26 -1.92,37.10 -1.78,36.94 -1.60,36.83 -1.41,36.72 -1.21,36.67 -1.00,36.63 -0.79,36.65 -0.58,36.68 -0.38,36.77 -0.19,36.86 -0.04,37.00 0.11,37.15 0.21,37.34 0.30,37.53 0.34,37.74 0.37,37.95 0.34,38.15 0.30,38.36 0.20,38.55 0.10,38.74 -0.04,38.88 -0.20,39.03 -0.39,39.12 -0.58,39.21 -0.80,39.23 -1.01,39.25 -1.21,39.21 -1.42,39.16 -1.60,39.05 -1.78,38.94 -1.78,38.94 -1.78,38.94 -4.56,37.19 -7.34,35.44 -8.96,32.02 -10.58,28.60 -10.65,24.98 -10.72,21.35 -10.21,17.69 -9.69,14.03 -8.63,10.70 -7.58,7.37 -6.04,4.43 -4.51,1.48 -2.96,0.18 -1.40,-1.11 -1.25,-1.26 -1.10,-1.41 -0.91,-1.52 -0.73,-1.63 -0.52,-1.70 -0.31,-1.76 -0.10,-1.77 0.11,-1.79 0.32,-1.75 0.54,-1.71 0.73,-1.62 0.93,-1.53 1.10,-1.39 1.27,-1.26 1.40,-1.09 1.53,-0.92 1.62,-0.72 1.71,-0.52 1.75,-0.31 1.79,-0.10 1.77,0.11 1.76,0.33 1.69,0.53 1.63,0.74 1.52,0.92 1.40,1.11 1.40,1.11 L 1.40,1.11 Z"/></g><g transform="translate(248.828125 202.50390625) rotate(0 0.7578125 9.994140625)" stroke="none"><path fill="#000000" d="M 1.34,0.64 Q 1.34,0.64 0.25,3.62 -0.83,6.61 -1.67,9.09 -2.51,11.57 -2.90,13.66 -3.29,15.75 -3.16,16.82 -3.03,17.89 -2.08,16.93 -1.13,15.98 0.45,13.05 2.04,10.12 3.02,7.51 4.00,4.91 4.41,3.14 4.81,1.38 4.69,0.40 4.57,-0.57 4.65,-0.82 4.74,-1.06 4.88,-1.27 5.03,-1.48 5.22,-1.65 5.41,-1.83 5.63,-1.95 5.86,-2.07 6.10,-2.14 6.35,-2.20 6.61,-2.21 6.86,-2.21 7.11,-2.15 7.36,-2.09 7.59,-1.98 7.82,-1.86 8.02,-1.69 8.21,-1.53 8.36,-1.32 8.51,-1.11 8.60,-0.87 8.69,-0.63 8.73,-0.38 8.76,-0.13 8.74,0.12 8.71,0.37 5.20,0.98 1.70,1.58 1.49,1.51 1.29,1.45 1.12,1.32 0.95,1.19 0.83,1.02 0.71,0.85 0.65,0.64 0.59,0.44 0.59,0.23 0.60,0.01 0.68,-0.17 0.75,-0.37 0.89,-0.54 1.03,-0.70 1.21,-0.81 1.39,-0.93 1.59,-0.97 1.80,-1.02 2.01,-1.00 2.22,-0.98 2.42,-0.90 2.61,-0.81 2.77,-0.67 2.92,-0.52 3.03,-0.34 3.13,-0.15 3.17,0.05 3.20,0.26 3.17,0.47 3.14,0.68 3.04,0.87 2.95,1.06 2.79,1.21 2.64,1.35 2.45,1.45 2.26,1.54 2.05,1.56 1.84,1.59 1.63,1.55 1.42,1.50 1.24,1.40 1.05,1.29 0.91,1.13 0.77,0.97 0.69,0.77 0.61,0.58 0.60,0.37 0.58,0.15 0.64,-0.04 0.69,-0.25 0.81,-0.42 0.92,-0.60 1.09,-0.73 1.26,-0.86 1.46,-0.93 1.66,-1.01 1.87,-1.01 2.08,-1.01 2.08,-1.01 2.08,-1.01 3.33,-0.79 4.57,-0.57 4.65,-0.82 4.74,-1.06 4.88,-1.27 5.03,-1.48 5.22,-1.65 5.41,-1.83 5.63,-1.95 5.86,-2.07 6.10,-2.14 6.35,-2.20 6.61,-2.21 6.86,-2.21 7.11,-2.15 7.36,-2.09 7.59,-1.98 7.82,-1.86 8.02,-1.69 8.21,-1.53 8.36,-1.32 8.51,-1.11 8.60,-0.87 8.69,-0.63 8.73,-0.38 8.76,-0.13 8.74,0.12 8.71,0.37 8.86,1.31 9.01,2.24 8.52,4.34 8.03,6.44 6.91,9.35 5.78,12.25 3.69,15.75 1.60,19.24 -0.34,20.46 -2.29,21.69 -4.32,20.81 -6.35,19.93 -6.94,17.49 -7.53,15.06 -7.04,12.61 -6.54,10.16 -5.58,7.49 -4.61,4.82 -2.97,2.09 -1.34,-0.64 -1.24,-0.79 -1.15,-0.94 -1.02,-1.06 -0.89,-1.19 -0.73,-1.28 -0.58,-1.37 -0.40,-1.42 -0.23,-1.47 -0.05,-1.47 0.12,-1.48 0.29,-1.44 0.47,-1.41 0.63,-1.33 0.79,-1.25 0.93,-1.14 1.07,-1.03 1.18,-0.88 1.29,-0.74 1.36,-0.57 1.43,-0.41 1.45,-0.23 1.48,-0.05 1.47,0.12 1.45,0.29 1.40,0.46 1.34,0.64 1.34,0.64 L 1.34,0.64 Z"/></g><g transform="translate(269.578125 226.8515625) rotate(0 -4.216796875 8.3359375)" stroke="none"><path fill="#000000" d="M 1.42,0.35 Q 1.42,0.35 1.31,2.87 1.20,5.39 0.40,7.61 -0.38,9.83 -1.27,11.69 -2.15,13.55 -4.45,15.18 -6.75,16.82 -6.92,16.95 -7.09,17.07 -7.29,17.14 -7.50,17.21 -7.71,17.20 -7.92,17.20 -8.12,17.13 -8.32,17.06 -8.49,16.93 -8.66,16.80 -8.78,16.63 -8.89,16.45 -8.95,16.24 -9.00,16.04 -8.99,15.83 -8.98,15.61 -8.90,15.42 -8.82,15.22 -8.68,15.06 -8.54,14.90 -8.35,14.79 -8.17,14.68 -7.96,14.64 -7.76,14.60 -7.55,14.62 -7.33,14.65 -7.14,14.74 -6.95,14.83 -6.80,14.97 -6.64,15.12 -6.55,15.31 -6.45,15.50 -6.42,15.71 -6.38,15.92 -6.42,16.13 -6.46,16.34 -6.56,16.52 -6.66,16.71 -6.81,16.86 -6.97,17.00 -7.16,17.09 -7.36,17.18 -7.57,17.20 -7.78,17.22 -7.99,17.17 -8.19,17.12 -8.37,17.01 -8.56,16.90 -8.69,16.74 -8.83,16.57 -8.90,16.38 -8.98,16.18 -8.99,15.97 -9.00,15.75 -8.94,15.55 -8.88,15.35 -8.76,15.17 -8.64,15.00 -8.64,15.00 -8.64,15.00 -7.62,13.19 -6.60,11.38 -5.85,9.73 -5.10,8.07 -4.35,6.13 -3.60,4.18 -2.51,1.91 -1.42,-0.35 -1.36,-0.52 -1.29,-0.68 -1.19,-0.83 -1.09,-0.97 -0.96,-1.09 -0.83,-1.21 -0.67,-1.29 -0.51,-1.37 -0.34,-1.41 -0.17,-1.46 0.00,-1.45 0.18,-1.45 0.35,-1.41 0.52,-1.37 0.68,-1.29 0.83,-1.20 0.97,-1.08 1.10,-0.97 1.20,-0.82 1.30,-0.67 1.36,-0.51 1.42,-0.34 1.44,-0.17 1.47,0.00 1.44,0.18 1.42,0.35 1.42,0.35 L 1.42,0.35 Z"/></g><g transform="translate(292.3125 207.14453125) rotate(0 0.521484375 10.421875)" stroke="none"><path fill="#000000" d="M 1.65,-0.07 Q 1.65,-0.07 2.15,3.39 2.65,6.86 2.72,9.70 2.80,12.54 2.52,15.90 2.24,19.26 2.22,19.47 2.20,19.68 2.12,19.88 2.03,20.07 1.89,20.23 1.74,20.38 1.56,20.49 1.37,20.59 1.16,20.63 0.95,20.66 0.74,20.63 0.53,20.60 0.34,20.51 0.16,20.41 0.01,20.26 -0.13,20.10 -0.22,19.91 -0.32,19.72 -0.34,19.51 -0.37,19.30 -0.33,19.09 -0.28,18.88 -0.18,18.70 -0.07,18.52 0.08,18.38 0.24,18.24 0.44,18.15 0.63,18.07 0.84,18.06 1.06,18.04 1.26,18.10 1.47,18.15 1.64,18.27 1.82,18.38 1.95,18.55 2.08,18.72 2.16,18.92 2.23,19.12 2.23,19.33 2.23,19.54 2.17,19.75 2.10,19.95 1.98,20.12 1.85,20.29 1.68,20.41 1.50,20.53 1.30,20.59 1.10,20.65 0.88,20.65 0.67,20.64 0.47,20.56 0.27,20.49 0.11,20.35 -0.04,20.22 -0.16,20.04 -0.27,19.86 -0.32,19.65 -0.37,19.44 -0.37,19.44 -0.37,19.44 -1.12,16.05 -1.86,12.66 -1.93,9.87 -1.99,7.08 -1.82,3.58 -1.65,0.07 -1.63,-0.12 -1.62,-0.31 -1.55,-0.50 -1.49,-0.69 -1.39,-0.86 -1.28,-1.03 -1.14,-1.17 -1.00,-1.31 -0.82,-1.41 -0.65,-1.51 -0.46,-1.57 -0.27,-1.62 -0.07,-1.63 0.12,-1.64 0.31,-1.60 0.51,-1.57 0.69,-1.48 0.87,-1.40 1.02,-1.27 1.18,-1.15 1.30,-0.99 1.42,-0.83 1.50,-0.65 1.58,-0.47 1.61,-0.27 1.65,-0.07 1.65,-0.07 L 1.65,-0.07 Z"/></g><g transform="translate(312.96484375 188.38671875) rotate(0 0.236328125 26.1484375)" stroke="none"><path fill="#000000" d="M 0.33,1.57 Q 0.33,1.57 -0.16,1.70 -0.66,1.84 0.30,2.43 1.27,3.01 1.91,4.25 2.55,5.49 3.18,6.66 3.81,7.84 4.40,9.00 4.99,10.16 5.52,11.43 6.05,12.71 6.49,14.14 6.93,15.56 7.25,17.23 7.56,18.90 7.70,21.31 7.85,23.72 7.90,25.72 7.95,27.72 7.84,29.75 7.72,31.78 7.07,34.50 6.43,37.21 5.82,39.26 5.22,41.30 4.74,42.76 4.26,44.21 3.88,45.20 3.50,46.19 2.05,48.14 0.61,50.08 -0.25,50.88 -1.12,51.67 -2.57,51.37 -4.03,51.06 -3.82,51.12 -3.62,51.17 -3.44,51.29 -3.27,51.41 -3.14,51.58 -3.01,51.75 -2.94,51.95 -2.87,52.15 -2.87,52.36 -2.87,52.58 -2.94,52.78 -3.01,52.98 -3.14,53.15 -3.26,53.32 -3.44,53.44 -3.62,53.56 -3.82,53.61 -4.02,53.67 -4.24,53.66 -4.45,53.65 -4.65,53.57 -4.84,53.49 -5.01,53.35 -5.17,53.22 -5.28,53.03 -5.39,52.85 -5.43,52.64 -5.48,52.44 -5.46,52.23 -5.43,52.01 -5.34,51.82 -5.26,51.63 -5.11,51.47 -4.96,51.32 -4.78,51.22 -4.59,51.12 -4.38,51.09 -4.17,51.05 -3.96,51.09 -3.75,51.12 -3.56,51.22 -3.37,51.32 -3.23,51.47 -3.08,51.63 -2.99,51.82 -2.90,52.01 -2.88,52.22 -2.86,52.43 -2.90,52.64 -2.95,52.85 -3.06,53.03 -3.17,53.21 -3.33,53.35 -3.49,53.49 -3.69,53.57 -3.88,53.65 -4.10,53.66 -4.31,53.67 -4.31,53.67 -4.31,53.67 -4.36,50.86 -4.41,48.05 -2.96,46.77 -1.52,45.48 -0.87,44.10 -0.22,42.73 0.23,41.34 0.69,39.96 1.27,38.02 1.84,36.08 2.44,33.78 3.03,31.49 3.14,29.66 3.25,27.84 3.21,25.90 3.16,23.96 3.07,21.84 2.97,19.73 2.73,18.31 2.49,16.89 2.14,15.68 1.78,14.46 1.33,13.35 0.88,12.24 0.32,11.13 -0.22,10.02 -0.88,8.79 -1.54,7.57 -2.27,6.11 -3.01,4.64 -3.41,2.46 -3.81,0.27 -2.60,-0.56 -1.40,-1.40 -0.86,-1.48 -0.33,-1.57 -0.13,-1.58 0.05,-1.60 0.24,-1.57 0.43,-1.54 0.61,-1.47 0.79,-1.39 0.95,-1.28 1.10,-1.16 1.22,-1.01 1.35,-0.86 1.43,-0.69 1.52,-0.51 1.56,-0.32 1.60,-0.13 1.59,0.05 1.58,0.24 1.53,0.43 1.48,0.62 1.38,0.78 1.29,0.95 1.15,1.09 1.02,1.23 0.86,1.34 0.69,1.44 0.51,1.51 0.33,1.57 0.33,1.57 L 0.33,1.57 Z"/></g><g transform="translate(166.9765625 610.24609375) rotate(0 7.771484375 227.037109375)" stroke="none"><path fill="#000000" d="M 1.53,-0.74 Q 1.53,-0.74 2.22,0.04 2.92,0.83 3.28,2.90 3.63,4.97 3.79,6.94 3.96,8.92 4.09,11.12 4.22,13.32 4.27,15.73 4.33,18.14 4.37,21.48 4.40,24.82 4.42,28.00 4.43,31.19 4.45,34.58 4.47,37.98 4.44,41.70 4.41,45.43 4.38,49.23 4.35,53.04 4.36,57.62 4.36,62.19 4.35,66.05 4.35,69.90 4.35,73.42 4.34,76.93 4.34,80.31 4.35,83.68 4.40,86.86 4.46,90.04 4.53,93.91 4.61,97.77 4.64,100.93 4.68,104.08 4.69,106.89 4.70,109.71 4.63,112.44 4.56,115.17 4.30,118.75 4.03,122.33 3.80,125.32 3.58,128.30 3.38,130.94 3.18,133.58 3.03,136.02 2.89,138.46 2.46,142.15 2.04,145.83 1.37,149.82 0.70,153.82 -0.35,159.21 -1.41,164.60 -2.44,171.12 -3.47,177.64 -3.98,184.27 -4.49,190.90 -4.60,197.66 -4.71,204.41 -4.10,213.71 -3.49,223.01 -2.88,231.61 -2.26,240.20 -1.64,248.49 -1.02,256.77 -0.02,267.07 0.97,277.37 2.18,286.11 3.39,294.85 4.81,302.87 6.22,310.89 7.66,318.44 9.11,325.98 10.49,333.20 11.88,340.42 13.26,347.29 14.64,354.16 16.40,362.35 18.16,370.53 19.51,377.00 20.87,383.46 21.80,388.15 22.73,392.85 23.46,397.65 24.19,402.46 24.70,406.79 25.20,411.11 25.50,415.06 25.80,419.01 25.96,422.48 26.11,425.95 26.24,428.74 26.36,431.53 26.47,433.57 26.57,435.62 26.62,437.07 26.67,438.52 26.71,439.91 26.75,441.30 26.70,442.65 26.65,444.00 26.08,445.32 25.52,446.64 24.17,448.15 22.82,449.65 21.88,450.71 20.95,451.77 20.21,452.66 19.48,453.56 18.20,455.01 16.92,456.46 15.31,457.07 13.69,457.67 11.13,456.97 8.57,456.26 8.37,456.22 8.16,456.18 7.97,456.08 7.79,455.97 7.65,455.81 7.50,455.65 7.42,455.46 7.34,455.26 7.32,455.05 7.31,454.84 7.36,454.63 7.41,454.43 7.52,454.25 7.64,454.07 7.81,453.94 7.97,453.80 8.17,453.73 8.37,453.66 8.58,453.65 8.80,453.65 9.00,453.71 9.20,453.77 9.37,453.90 9.55,454.02 9.67,454.20 9.79,454.37 9.85,454.57 9.92,454.78 9.91,454.99 9.90,455.20 9.83,455.40 9.75,455.60 9.62,455.76 9.49,455.93 9.31,456.04 9.13,456.16 8.92,456.21 8.72,456.26 8.50,456.24 8.29,456.22 8.10,456.14 7.90,456.05 7.75,455.91 7.59,455.77 7.48,455.58 7.38,455.40 7.34,455.19 7.30,454.98 7.33,454.77 7.36,454.56 7.45,454.37 7.55,454.18 7.70,454.03 7.85,453.88 8.04,453.79 8.23,453.69 8.44,453.66 8.65,453.64 8.65,453.64 8.65,453.64 10.82,452.98 12.99,452.33 13.87,451.09 14.76,449.85 15.53,448.83 16.31,447.80 17.25,446.67 18.19,445.53 19.34,444.55 20.48,443.56 20.54,442.47 20.59,441.38 20.58,440.05 20.57,438.71 20.52,437.32 20.48,435.93 20.37,433.86 20.27,431.79 20.15,429.00 20.04,426.22 19.89,422.84 19.75,419.47 19.46,415.64 19.17,411.81 18.69,407.59 18.20,403.37 17.49,398.70 16.78,394.02 15.86,389.36 14.94,384.70 13.60,378.25 12.26,371.80 10.51,363.56 8.76,355.33 7.39,348.44 6.03,341.54 4.66,334.32 3.28,327.10 1.84,319.50 0.40,311.91 -1.01,303.78 -2.43,295.66 -3.65,286.79 -4.86,277.93 -5.86,267.57 -6.85,257.20 -7.45,248.91 -8.06,240.62 -8.66,232.00 -9.27,223.38 -9.87,213.85 -10.47,204.32 -10.34,197.38 -10.22,190.45 -9.67,183.59 -9.12,176.73 -8.03,170.11 -6.94,163.48 -5.84,158.17 -4.74,152.87 -4.04,149.01 -3.35,145.15 -2.87,141.62 -2.39,138.10 -2.20,135.64 -2.00,133.17 -1.79,130.54 -1.58,127.91 -1.35,124.92 -1.12,121.92 -0.84,118.47 -0.55,115.03 -0.47,112.38 -0.39,109.73 -0.40,106.93 -0.41,104.13 -0.45,101.00 -0.48,97.87 -0.56,94.00 -0.63,90.13 -0.69,86.90 -0.74,83.68 -0.74,80.30 -0.73,76.93 -0.73,73.41 -0.72,69.89 -0.71,66.03 -0.69,62.17 -0.65,57.57 -0.61,52.97 -0.53,49.17 -0.46,45.36 -0.39,41.67 -0.31,37.99 -0.30,34.59 -0.28,31.20 -0.29,28.02 -0.30,24.85 -0.30,21.54 -0.31,18.24 -0.36,15.91 -0.40,13.58 -0.52,11.44 -0.63,9.29 -0.78,7.44 -0.93,5.59 -1.05,4.17 -1.18,2.75 -1.35,1.74 -1.53,0.74 -1.59,0.54 -1.66,0.35 -1.68,0.15 -1.70,-0.05 -1.67,-0.25 -1.63,-0.45 -1.56,-0.64 -1.48,-0.83 -1.35,-1.00 -1.23,-1.16 -1.08,-1.30 -0.92,-1.43 -0.73,-1.52 -0.55,-1.61 -0.35,-1.65 -0.15,-1.69 0.05,-1.68 0.25,-1.68 0.45,-1.62 0.65,-1.57 0.83,-1.47 1.01,-1.36 1.16,-1.22 1.30,-1.08 1.42,-0.91 1.53,-0.74 1.53,-0.74 L 1.53,-0.74 Z"/></g><g transform="translate(98.19921875 981.70703125) rotate(0 214.15234375 16.767578125)" stroke="none"><path fill="#000000" d="M 1.13,1.17 Q 1.13,1.17 0.60,2.19 0.07,3.22 2.27,3.66 4.46,4.09 7.21,4.33 9.96,4.57 15.21,4.67 20.46,4.77 30.64,4.15 40.81,3.52 50.14,2.82 59.48,2.12 68.35,1.46 77.23,0.80 86.09,0.24 94.94,-0.30 106.81,-0.60 118.68,-0.90 129.17,-0.67 139.66,-0.44 149.51,0.48 159.35,1.41 169.46,2.90 179.57,4.39 190.59,6.25 201.61,8.12 217.97,10.63 234.34,13.13 249.87,15.14 265.40,17.15 280.57,18.79 295.73,20.42 310.20,21.79 324.67,23.16 337.90,24.32 351.13,25.48 365.42,26.52 379.71,27.55 390.22,28.18 400.72,28.81 407.76,29.16 414.81,29.51 418.79,29.72 422.77,29.92 425.15,30.10 427.53,30.29 428.89,30.31 430.26,30.34 430.65,30.41 431.03,30.49 431.39,30.65 431.75,30.82 432.06,31.06 432.37,31.31 432.61,31.62 432.86,31.93 433.02,32.29 433.18,32.65 433.24,33.04 433.31,33.43 433.29,33.82 433.26,34.22 433.14,34.59 433.02,34.97 432.82,35.31 432.61,35.64 432.33,35.92 432.05,36.20 431.71,36.40 431.37,36.60 430.99,36.72 430.62,36.83 430.22,36.86 429.83,36.88 427.88,35.76 425.94,34.65 424.50,33.77 423.07,32.89 421.54,31.48 420.02,30.07 419.84,29.96 419.66,29.85 419.52,29.68 419.39,29.52 419.31,29.32 419.23,29.12 419.22,28.91 419.21,28.70 419.27,28.50 419.33,28.29 419.45,28.12 419.57,27.94 419.74,27.81 419.91,27.69 420.11,27.62 420.31,27.55 420.52,27.55 420.74,27.56 420.94,27.63 421.14,27.69 421.31,27.82 421.47,27.95 421.59,28.13 421.71,28.31 421.77,28.51 421.82,28.72 421.81,28.93 421.80,29.14 421.72,29.34 421.64,29.54 421.50,29.70 421.36,29.86 421.18,29.97 420.99,30.07 420.78,30.12 420.58,30.16 420.37,30.14 420.15,30.11 419.96,30.02 419.77,29.93 419.62,29.79 419.46,29.64 419.37,29.45 419.27,29.26 419.23,29.05 419.20,28.84 419.24,28.63 419.27,28.42 419.37,28.24 419.48,28.05 419.63,27.90 419.79,27.76 419.98,27.67 420.17,27.58 420.38,27.56 420.60,27.54 420.80,27.59 421.01,27.63 421.01,27.63 421.01,27.63 423.28,27.76 425.55,27.89 427.90,29.12 430.26,30.34 430.65,30.41 431.03,30.49 431.39,30.65 431.75,30.82 432.06,31.06 432.37,31.31 432.61,31.62 432.86,31.93 433.02,32.29 433.18,32.65 433.24,33.04 433.31,33.43 433.29,33.82 433.26,34.22 433.14,34.59 433.02,34.97 432.82,35.31 432.61,35.64 432.33,35.92 432.05,36.20 431.71,36.40 431.37,36.60 430.99,36.72 430.62,36.83 430.22,36.86 429.83,36.88 429.54,36.94 429.26,37.00 428.16,36.92 427.06,36.85 424.75,36.70 422.44,36.54 418.46,36.34 414.48,36.14 407.40,35.79 400.32,35.44 389.78,34.81 379.23,34.18 364.89,33.13 350.55,32.09 337.30,30.93 324.04,29.76 309.53,28.37 295.02,26.97 279.79,25.29 264.56,23.62 248.95,21.55 233.35,19.49 216.95,16.89 200.54,14.30 189.60,12.37 178.65,10.43 168.71,8.88 158.77,7.32 149.14,6.34 139.51,5.36 129.17,5.07 118.82,4.78 107.06,5.06 95.29,5.33 86.47,5.87 77.64,6.41 68.76,7.05 59.89,7.69 50.51,8.36 41.13,9.04 30.73,9.60 20.33,10.17 14.87,10.00 9.40,9.83 6.15,9.44 2.90,9.04 0.80,8.27 -1.29,7.50 -2.58,6.28 -3.88,5.06 -4.11,3.59 -4.35,2.11 -3.79,0.96 -3.23,-0.17 -2.18,-0.67 -1.13,-1.17 -0.97,-1.29 -0.81,-1.41 -0.63,-1.48 -0.45,-1.56 -0.26,-1.59 -0.07,-1.63 0.12,-1.61 0.32,-1.59 0.50,-1.53 0.69,-1.47 0.86,-1.37 1.02,-1.26 1.16,-1.12 1.30,-0.98 1.40,-0.81 1.49,-0.64 1.55,-0.45 1.60,-0.26 1.61,-0.06 1.62,0.12 1.58,0.31 1.54,0.51 1.46,0.69 1.38,0.86 1.25,1.02 1.13,1.17 1.13,1.17 L 1.13,1.17 Z"/></g><g transform="translate(13.50390625 651.265625) rotate(0 257.306640625 159.7265625)" stroke="none"><path fill="#000000" d="M -0.30,1.36 Q -0.30,1.36 -1.35,1.46 -2.40,1.55 -1.75,2.70 -1.10,3.86 -1.08,5.09 -1.06,6.32 -1.04,7.63 -1.03,8.95 -0.93,10.19 -0.83,11.44 -0.61,12.69 -0.39,13.94 0.07,15.69 0.54,17.44 1.06,19.10 1.57,20.76 2.15,22.47 2.72,24.18 3.36,25.98 4.01,27.78 4.99,30.36 5.97,32.94 6.86,35.27 7.74,37.60 8.56,39.83 9.39,42.06 10.18,44.19 10.97,46.33 11.71,48.32 12.46,50.31 13.20,52.20 13.94,54.09 14.86,56.50 15.77,58.90 16.46,61.08 17.15,63.25 17.68,65.40 18.21,67.55 18.65,70.40 19.10,73.24 19.43,75.61 19.77,77.97 20.11,80.16 20.44,82.35 20.80,84.40 21.15,86.45 21.47,88.44 21.79,90.43 22.05,92.37 22.30,94.31 22.52,96.77 22.73,99.23 22.92,101.23 23.11,103.23 23.39,105.00 23.68,106.77 24.23,108.95 24.77,111.13 25.33,113.12 25.89,115.11 26.40,117.17 26.90,119.22 27.30,121.36 27.70,123.49 28.06,125.57 28.42,127.66 28.78,129.67 29.15,131.67 29.77,134.00 30.39,136.32 31.03,138.26 31.66,140.20 32.32,142.13 32.98,144.05 33.81,146.82 34.63,149.58 35.27,152.15 35.90,154.73 36.44,157.26 36.99,159.78 37.54,162.15 38.09,164.51 38.65,166.73 39.21,168.94 39.78,170.96 40.36,172.99 41.19,175.40 42.02,177.81 42.79,179.94 43.55,182.06 44.33,184.16 45.12,186.25 45.94,188.42 46.77,190.59 47.94,193.37 49.11,196.15 50.28,198.39 51.45,200.63 52.68,202.62 53.90,204.62 55.14,206.46 56.39,208.29 57.66,210.15 58.94,212.01 60.58,214.49 62.23,216.96 63.69,219.21 65.16,221.47 66.62,223.58 68.09,225.70 69.68,227.74 71.27,229.79 73.47,232.45 75.67,235.11 77.59,237.42 79.51,239.73 81.33,241.84 83.14,243.95 84.95,246.01 86.75,248.08 88.62,250.02 90.49,251.97 93.16,254.41 95.84,256.85 98.37,258.96 100.91,261.07 103.41,263.01 105.91,264.96 108.41,266.81 110.91,268.66 114.12,270.87 117.33,273.08 120.12,274.81 122.91,276.54 125.50,278.00 128.10,279.45 130.60,280.74 133.10,282.03 135.59,283.29 138.07,284.55 141.25,286.05 144.42,287.55 147.06,288.74 149.70,289.92 152.05,290.84 154.40,291.75 156.66,292.44 158.92,293.14 161.90,293.85 164.89,294.56 167.56,295.11 170.24,295.66 172.81,296.05 175.39,296.44 178.05,296.76 180.72,297.09 183.46,297.39 186.20,297.69 189.78,298.04 193.35,298.38 196.50,298.66 199.65,298.95 202.59,299.23 205.53,299.51 208.25,299.74 210.97,299.97 214.20,300.28 217.43,300.60 219.98,300.84 222.54,301.08 224.81,301.24 227.09,301.39 229.23,301.48 231.38,301.57 233.44,301.60 235.50,301.64 237.95,301.66 240.40,301.67 242.42,301.73 244.43,301.79 246.24,301.93 248.05,302.06 249.75,302.17 251.45,302.28 253.74,302.35 256.03,302.42 258.11,302.45 260.20,302.48 262.22,302.50 264.25,302.51 266.34,302.51 268.43,302.52 270.65,302.52 272.87,302.52 276.18,302.52 279.50,302.52 282.65,302.52 285.80,302.52 288.96,302.52 292.13,302.51 295.33,302.51 298.52,302.51 301.88,302.53 305.24,302.56 310.08,302.90 314.93,303.24 319.43,303.65 323.93,304.07 328.40,304.52 332.88,304.97 337.60,305.43 342.32,305.88 348.41,306.55 354.49,307.21 359.39,307.84 364.29,308.47 368.49,309.18 372.69,309.89 376.29,310.61 379.89,311.33 383.09,312.01 386.29,312.70 389.87,313.33 393.44,313.96 396.38,314.33 399.32,314.70 401.92,314.86 404.51,315.01 406.92,315.08 409.32,315.14 412.22,315.04 415.13,314.93 417.62,314.70 420.12,314.47 422.47,314.25 424.83,314.04 427.10,313.87 429.37,313.70 431.69,313.59 434.00,313.49 437.03,313.45 440.05,313.40 442.66,313.38 445.28,313.37 447.91,313.36 450.55,313.35 453.38,313.43 456.21,313.51 459.87,313.62 463.54,313.73 466.50,313.81 469.46,313.89 471.95,313.94 474.43,314.00 476.51,314.03 478.58,314.05 480.44,314.06 482.30,314.08 484.89,314.08 487.47,314.08 490.18,314.09 492.89,314.09 495.95,314.20 499.01,314.31 502.21,314.58 505.42,314.84 508.62,315.26 511.82,315.68 513.61,315.94 515.39,316.20 516.60,316.35 517.81,316.50 518.88,316.92 519.94,317.34 517.61,319.42 515.28,321.50 515.07,321.47 514.86,321.44 514.66,321.35 514.47,321.26 514.32,321.11 514.17,320.96 514.08,320.77 513.98,320.58 513.95,320.37 513.92,320.16 513.96,319.95 514.00,319.74 514.10,319.55 514.21,319.37 514.36,319.23 514.52,319.08 514.71,319.00 514.91,318.91 515.12,318.89 515.33,318.88 515.54,318.93 515.75,318.98 515.93,319.09 516.11,319.20 516.24,319.37 516.37,319.53 516.45,319.73 516.52,319.93 516.53,320.14 516.54,320.36 516.48,320.56 516.41,320.76 516.29,320.94 516.17,321.11 516.00,321.23 515.82,321.36 515.62,321.42 515.42,321.49 515.21,321.48 514.99,321.48 514.79,321.40 514.59,321.33 514.43,321.20 514.26,321.07 514.15,320.89 514.03,320.71 513.98,320.51 513.93,320.30 513.94,320.09 513.96,319.88 514.04,319.68 514.12,319.48 514.26,319.33 514.41,319.17 514.59,319.06 514.77,318.95 514.98,318.91 515.19,318.87 515.19,318.87 515.19,318.87 516.13,320.85 517.06,322.83 515.77,322.67 514.47,322.50 512.73,322.25 510.99,321.99 507.93,321.59 504.88,321.18 501.83,320.92 498.78,320.66 495.83,320.55 492.88,320.44 490.17,320.44 487.46,320.44 484.86,320.43 482.27,320.43 480.39,320.42 478.50,320.41 476.39,320.39 474.28,320.36 471.79,320.30 469.30,320.24 466.32,320.16 463.34,320.09 459.68,319.97 456.03,319.85 453.30,319.77 450.57,319.69 447.94,319.70 445.32,319.71 442.73,319.73 440.14,319.74 437.21,319.78 434.28,319.82 432.07,319.92 429.85,320.02 427.62,320.18 425.39,320.35 423.04,320.56 420.69,320.77 418.02,321.01 415.35,321.25 412.25,321.36 409.14,321.46 406.64,321.39 404.13,321.32 401.33,321.15 398.53,320.98 395.44,320.58 392.34,320.19 388.65,319.53 384.96,318.87 381.81,318.19 378.66,317.51 375.15,316.81 371.63,316.11 367.56,315.41 363.48,314.71 358.65,314.08 353.81,313.44 347.76,312.78 341.71,312.13 336.98,311.66 332.25,311.19 327.80,310.74 323.35,310.29 318.92,309.87 314.49,309.46 309.84,309.12 305.19,308.78 301.86,308.75 298.52,308.72 295.33,308.72 292.13,308.72 288.96,308.72 285.80,308.71 282.65,308.71 279.49,308.71 276.18,308.71 272.86,308.71 270.64,308.70 268.41,308.70 266.31,308.69 264.21,308.68 262.16,308.67 260.10,308.65 257.97,308.62 255.83,308.59 253.44,308.51 251.05,308.43 249.31,308.32 247.58,308.20 245.91,308.06 244.24,307.93 242.30,307.87 240.36,307.81 237.87,307.79 235.38,307.77 233.25,307.72 231.11,307.68 228.89,307.58 226.67,307.48 224.32,307.32 221.96,307.16 219.40,306.91 216.83,306.67 213.64,306.35 210.46,306.04 207.70,305.81 204.94,305.57 202.02,305.29 199.11,305.00 195.94,304.72 192.77,304.43 189.15,304.08 185.53,303.73 182.76,303.42 179.98,303.11 177.23,302.77 174.48,302.43 171.75,302.01 169.01,301.59 166.24,301.02 163.47,300.45 160.31,299.67 157.15,298.89 154.68,298.13 152.21,297.37 149.73,296.40 147.25,295.43 144.54,294.24 141.83,293.04 138.58,291.50 135.33,289.97 132.82,288.69 130.31,287.42 127.72,286.09 125.13,284.75 122.42,283.23 119.70,281.71 116.79,279.90 113.87,278.10 110.57,275.82 107.28,273.55 104.73,271.65 102.18,269.75 99.60,267.74 97.02,265.72 94.39,263.52 91.75,261.32 88.94,258.73 86.12,256.15 84.16,254.10 82.20,252.05 80.38,249.96 78.57,247.88 76.73,245.73 74.89,243.58 72.96,241.25 71.03,238.93 68.78,236.20 66.54,233.47 64.85,231.29 63.16,229.11 61.64,226.92 60.13,224.74 58.68,222.51 57.23,220.28 55.61,217.84 53.99,215.40 52.71,213.53 51.42,211.65 50.11,209.70 48.79,207.75 47.46,205.57 46.12,203.39 44.86,200.94 43.59,198.48 42.38,195.60 41.16,192.72 40.33,190.53 39.51,188.35 38.71,186.22 37.91,184.09 37.13,181.92 36.36,179.75 35.48,177.19 34.61,174.63 34.00,172.52 33.40,170.40 32.83,168.13 32.26,165.86 31.71,163.45 31.16,161.03 30.64,158.59 30.11,156.14 29.53,153.70 28.94,151.25 28.17,148.60 27.40,145.95 26.74,143.98 26.08,142.01 25.40,139.92 24.72,137.82 24.06,135.27 23.39,132.71 23.02,130.67 22.65,128.63 22.32,126.57 21.98,124.52 21.64,122.55 21.30,120.57 20.83,118.61 20.36,116.65 19.79,114.57 19.22,112.49 18.64,110.08 18.06,107.67 17.75,105.71 17.45,103.75 17.26,101.71 17.08,99.66 16.92,97.34 16.76,95.02 16.52,93.17 16.29,91.31 15.98,89.35 15.67,87.39 15.31,85.29 14.95,83.18 14.62,80.96 14.28,78.75 13.95,76.40 13.62,74.04 13.27,71.43 12.91,68.81 12.45,66.83 11.99,64.85 11.38,62.81 10.76,60.77 9.90,58.39 9.03,56.02 8.27,54.08 7.52,52.14 6.78,50.14 6.04,48.13 5.27,45.99 4.50,43.84 3.70,41.64 2.90,39.43 2.02,37.10 1.14,34.77 0.15,32.14 -0.83,29.52 -1.49,27.66 -2.16,25.81 -2.74,24.04 -3.33,22.27 -3.87,20.49 -4.41,18.71 -4.90,16.73 -5.39,14.75 -5.61,13.25 -5.84,11.74 -5.90,10.34 -5.96,8.94 -5.94,7.62 -5.92,6.30 -5.89,5.05 -5.86,3.80 -5.79,2.61 -5.72,1.43 -5.29,-0.04 -4.86,-1.51 -3.19,-1.97 -1.51,-2.42 -0.60,-1.89 0.30,-1.36 0.46,-1.31 0.62,-1.25 0.76,-1.16 0.90,-1.07 1.01,-0.94 1.13,-0.82 1.21,-0.67 1.29,-0.52 1.34,-0.36 1.38,-0.20 1.39,-0.03 1.39,0.13 1.35,0.30 1.32,0.46 1.24,0.61 1.17,0.76 1.06,0.89 0.95,1.02 0.81,1.12 0.67,1.22 0.52,1.28 0.36,1.35 0.19,1.37 0.03,1.40 -0.13,1.38 -0.30,1.36 -0.30,1.36 L -0.30,1.36 Z"/></g><g transform="translate(174.65234375 945.04296875) rotate(0 -0.806640625 0.048828125)" stroke="none"><path fill="#000000" d="M -1.56,-0.41 Q -1.56,-0.41 -1.47,-2.02 -1.38,-3.64 -0.81,-4.72 -0.25,-5.81 1.15,-6.18 2.55,-6.55 3.53,-6.01 4.51,-5.46 5.35,-3.47 6.18,-1.49 5.76,-0.07 5.34,1.34 3.64,2.77 1.94,4.20 0.42,4.98 -1.09,5.76 -2.86,5.98 -4.64,6.20 -5.87,4.98 -7.09,3.76 -6.80,1.58 -6.50,-0.58 -5.36,-2.26 -4.21,-3.95 -2.81,-4.92 -1.40,-5.90 0.25,-6.19 1.92,-6.48 3.26,-5.77 4.61,-5.05 5.24,-3.48 5.87,-1.92 5.38,0.23 4.90,2.38 4.11,3.74 3.31,5.11 2.71,5.64 2.11,6.16 1.91,6.40 1.72,6.64 1.47,6.82 1.23,7.01 0.94,7.13 0.66,7.25 0.35,7.30 0.05,7.34 -0.25,7.32 -0.55,7.29 -0.84,7.19 -1.13,7.10 -1.39,6.93 -1.65,6.76 -1.87,6.54 -2.08,6.32 -2.23,6.05 -2.38,5.79 -2.47,5.49 -2.55,5.19 -2.56,4.89 -2.58,4.58 -2.51,4.28 -2.45,3.98 -2.32,3.70 -2.18,3.42 -1.16,0.97 -0.14,-1.47 0.03,-1.36 0.21,-1.25 0.35,-1.09 0.49,-0.92 0.57,-0.73 0.65,-0.53 0.66,-0.32 0.67,-0.10 0.61,0.09 0.56,0.30 0.44,0.47 0.32,0.65 0.15,0.78 -0.01,0.90 -0.21,0.97 -0.41,1.04 -0.62,1.04 -0.84,1.04 -1.04,0.97 -1.24,0.90 -1.41,0.78 -1.58,0.65 -1.70,0.47 -1.82,0.30 -1.87,0.09 -1.93,-0.10 -1.92,-0.32 -1.91,-0.53 -1.83,-0.72 -1.75,-0.92 -1.61,-1.08 -1.48,-1.25 -1.29,-1.36 -1.11,-1.47 -0.90,-1.51 -0.70,-1.56 -0.49,-1.53 -0.27,-1.51 -0.08,-1.42 0.10,-1.33 0.26,-1.19 0.41,-1.04 0.51,-0.85 0.61,-0.67 0.64,-0.46 0.68,-0.25 0.64,-0.04 0.61,0.16 0.51,0.35 0.41,0.54 0.26,0.69 0.10,0.83 -0.08,0.92 -0.27,1.01 -0.48,1.03 -0.70,1.06 -0.90,1.01 -1.11,0.96 -1.11,0.96 -1.11,0.96 -0.05,1.43 1.00,1.90 1.55,4.03 2.11,6.16 1.91,6.40 1.72,6.64 1.47,6.82 1.23,7.01 0.94,7.13 0.66,7.25 0.35,7.30 0.05,7.34 -0.25,7.32 -0.55,7.29 -0.84,7.19 -1.13,7.10 -1.39,6.93 -1.65,6.76 -1.87,6.54 -2.08,6.32 -2.23,6.05 -2.38,5.79 -2.47,5.49 -2.55,5.19 -2.56,4.89 -2.58,4.58 -2.51,4.28 -2.45,3.98 -2.32,3.70 -2.19,3.42 -0.99,2.11 0.20,0.79 0.91,-0.73 1.62,-2.27 0.57,-1.68 -0.47,-1.08 -1.87,0.13 -3.26,1.35 -2.09,0.79 -0.92,0.23 0.11,-0.33 1.15,-0.90 2.08,-1.68 3.01,-2.45 2.28,-1.02 1.56,0.41 1.48,0.59 1.41,0.77 1.30,0.93 1.18,1.09 1.03,1.22 0.89,1.34 0.71,1.43 0.54,1.52 0.35,1.56 0.16,1.60 -0.03,1.60 -0.22,1.59 -0.41,1.54 -0.60,1.49 -0.77,1.40 -0.94,1.31 -1.08,1.17 -1.23,1.04 -1.33,0.88 -1.44,0.72 -1.51,0.53 -1.57,0.35 -1.59,0.16 -1.61,-0.03 -1.58,-0.22 -1.56,-0.41 -1.56,-0.41 L -1.56,-0.41 Z"/></g><g transform="translate(215.671875 900.04296875) rotate(0 10.421875 17.57421875)" stroke="none"><path fill="#000000" d="M 1.75,0.68 Q 1.75,0.68 1.27,2.82 0.80,4.97 -1.42,8.89 -3.65,12.81 -5.94,16.56 -8.24,20.31 -10.17,23.59 -12.11,26.86 -13.34,29.19 -14.58,31.52 -15.16,32.84 -15.75,34.16 -16.24,33.08 -16.73,32.01 -15.08,31.58 -13.43,31.15 -11.25,30.45 -9.06,29.76 -6.29,28.66 -3.51,27.56 0.61,25.81 4.73,24.07 11.59,21.53 18.46,18.98 22.99,17.55 27.53,16.12 30.54,15.39 33.55,14.66 36.05,14.67 38.55,14.69 38.76,14.68 38.97,14.66 39.18,14.71 39.39,14.77 39.56,14.88 39.74,15.00 39.87,15.16 40.01,15.33 40.08,15.53 40.15,15.73 40.15,15.94 40.16,16.16 40.09,16.36 40.03,16.56 39.91,16.73 39.78,16.90 39.61,17.03 39.43,17.15 39.23,17.21 39.03,17.27 38.81,17.26 38.60,17.26 38.40,17.18 38.20,17.11 38.04,16.97 37.87,16.84 37.76,16.66 37.65,16.48 37.60,16.27 37.55,16.07 37.57,15.85 37.59,15.64 37.67,15.45 37.76,15.25 37.90,15.10 38.04,14.94 38.23,14.84 38.41,14.73 38.62,14.69 38.83,14.66 39.04,14.69 39.25,14.72 39.44,14.81 39.63,14.91 39.78,15.06 39.93,15.21 40.02,15.40 40.12,15.59 40.14,15.80 40.17,16.01 40.13,16.22 40.09,16.43 39.98,16.61 39.88,16.80 39.72,16.94 39.56,17.08 39.36,17.16 39.17,17.25 39.17,17.25 39.17,17.25 37.02,18.38 34.87,19.52 32.01,20.38 29.16,21.24 24.75,22.65 20.34,24.07 13.58,26.56 6.83,29.05 2.63,30.81 -1.55,32.58 -4.52,33.71 -7.48,34.84 -9.83,35.56 -12.18,36.28 -14.16,36.73 -16.13,37.18 -18.16,36.32 -20.20,35.46 -20.35,33.79 -20.50,32.11 -19.84,30.60 -19.19,29.08 -17.89,26.64 -16.60,24.21 -14.64,20.90 -12.67,17.59 -10.41,13.90 -8.14,10.22 -6.05,6.65 -3.96,3.09 -2.85,1.20 -1.75,-0.68 -1.64,-0.88 -1.53,-1.08 -1.38,-1.25 -1.23,-1.42 -1.04,-1.54 -0.85,-1.67 -0.64,-1.75 -0.43,-1.83 -0.20,-1.85 0.02,-1.88 0.24,-1.85 0.47,-1.82 0.68,-1.73 0.89,-1.65 1.07,-1.52 1.26,-1.39 1.41,-1.22 1.56,-1.05 1.66,-0.85 1.76,-0.64 1.81,-0.42 1.87,-0.20 1.86,0.02 1.86,0.24 1.80,0.46 1.75,0.68 1.75,0.68 L 1.75,0.68 Z"/></g><g transform="translate(207.71484375 923.06640625) rotate(0 23.1640625 -17.052734375)" stroke="none"><path fill="#000000" d="M -0.97,-1.29 Q -0.97,-1.29 0.19,-2.74 1.36,-4.18 3.27,-5.79 5.18,-7.40 10.55,-11.38 15.92,-15.36 21.42,-19.24 26.92,-23.13 30.83,-25.88 34.75,-28.63 37.38,-30.51 40.02,-32.38 42.30,-33.65 44.57,-34.92 44.74,-35.03 44.92,-35.15 45.13,-35.21 45.33,-35.27 45.54,-35.25 45.75,-35.24 45.95,-35.16 46.15,-35.08 46.31,-34.95 46.47,-34.81 46.58,-34.63 46.69,-34.44 46.74,-34.24 46.78,-34.03 46.76,-33.82 46.73,-33.61 46.64,-33.41 46.56,-33.22 46.41,-33.07 46.26,-32.91 46.07,-32.81 45.89,-32.71 45.68,-32.68 45.47,-32.65 45.26,-32.68 45.05,-32.72 44.86,-32.82 44.67,-32.92 44.53,-33.07 44.38,-33.23 44.29,-33.42 44.20,-33.61 44.18,-33.82 44.16,-34.03 44.20,-34.24 44.25,-34.45 44.36,-34.63 44.47,-34.81 44.63,-34.95 44.80,-35.09 44.99,-35.16 45.19,-35.24 45.40,-35.25 45.61,-35.27 45.82,-35.21 46.02,-35.15 46.20,-35.03 46.38,-34.91 46.50,-34.74 46.63,-34.57 46.70,-34.37 46.77,-34.17 46.77,-33.96 46.77,-33.74 46.70,-33.54 46.63,-33.34 46.50,-33.17 46.37,-33.00 46.37,-33.00 46.37,-33.00 44.77,-30.62 43.18,-28.24 40.58,-26.13 37.99,-24.03 34.07,-21.27 30.16,-18.51 24.67,-14.68 19.19,-10.85 13.84,-7.06 8.49,-3.27 6.44,-1.72 4.40,-0.16 2.68,0.56 0.97,1.29 0.80,1.39 0.63,1.48 0.45,1.54 0.26,1.59 0.06,1.60 -0.12,1.61 -0.31,1.57 -0.50,1.53 -0.68,1.45 -0.86,1.37 -1.01,1.24 -1.16,1.12 -1.28,0.96 -1.40,0.81 -1.47,0.63 -1.55,0.45 -1.58,0.26 -1.61,0.06 -1.60,-0.12 -1.58,-0.32 -1.52,-0.50 -1.46,-0.69 -1.36,-0.85 -1.25,-1.02 -1.11,-1.15 -0.97,-1.29 -0.97,-1.29 L -0.97,-1.29 Z"/></g><g transform="translate(287.0078125 859.49609375) rotate(0 -0.61328125 14.353515625)" stroke="none"><path fill="#000000" d="M 0.37,1.43 Q 0.37,1.43 -1.04,2.28 -2.45,3.12 -3.88,4.46 -5.31,5.79 -6.86,8.13 -8.41,10.47 -9.41,14.28 -10.42,18.08 -10.48,20.78 -10.55,23.47 -9.84,24.43 -9.13,25.40 -7.69,25.37 -6.26,25.34 -4.13,24.05 -2.00,22.76 1.02,19.55 4.05,16.33 5.96,13.42 7.87,10.52 8.68,8.37 9.48,6.23 8.32,4.52 7.17,2.80 5.09,2.39 3.02,1.98 2.82,1.90 2.63,1.82 2.46,1.69 2.30,1.55 2.19,1.37 2.08,1.19 2.03,0.98 1.98,0.77 2.00,0.56 2.02,0.35 2.11,0.16 2.20,-0.03 2.34,-0.18 2.49,-0.34 2.68,-0.44 2.86,-0.54 3.07,-0.58 3.28,-0.61 3.49,-0.58 3.70,-0.55 3.89,-0.45 4.08,-0.35 4.23,-0.20 4.37,-0.05 4.46,0.14 4.55,0.33 4.58,0.54 4.60,0.75 4.56,0.96 4.52,1.17 4.41,1.35 4.30,1.53 4.14,1.67 3.98,1.81 3.78,1.89 3.59,1.97 3.37,1.98 3.16,2.00 2.96,1.94 2.75,1.89 2.57,1.77 2.40,1.65 2.27,1.48 2.14,1.32 2.07,1.11 2.00,0.91 2.00,0.70 1.99,0.49 2.06,0.29 2.13,0.08 2.25,-0.08 2.38,-0.25 2.56,-0.37 2.73,-0.49 2.93,-0.55 3.14,-0.60 3.35,-0.59 3.56,-0.58 3.56,-0.58 3.56,-0.59 5.95,-0.06 8.34,0.46 10.85,1.46 13.36,2.47 13.81,5.15 14.26,7.83 13.18,10.59 12.11,13.35 9.86,16.59 7.61,19.84 3.91,23.40 0.21,26.97 -3.09,28.44 -6.40,29.91 -9.17,29.32 -11.94,28.74 -13.58,26.33 -15.22,23.93 -15.17,20.37 -15.12,16.81 -13.80,12.30 -12.48,7.80 -10.47,4.94 -8.47,2.08 -6.16,0.29 -3.86,-1.49 -2.11,-1.46 -0.37,-1.43 -0.19,-1.46 -0.01,-1.48 0.16,-1.46 0.33,-1.44 0.50,-1.38 0.67,-1.32 0.82,-1.22 0.97,-1.12 1.09,-0.99 1.21,-0.85 1.29,-0.70 1.38,-0.54 1.42,-0.36 1.47,-0.19 1.47,-0.01 1.47,0.16 1.43,0.33 1.39,0.51 1.31,0.66 1.23,0.82 1.11,0.96 0.99,1.10 0.85,1.20 0.70,1.30 0.53,1.37 0.37,1.43 0.37,1.43 L 0.37,1.43 Z"/></g><g transform="translate(312.4921875 891.8984375) rotate(0 -5.73046875 5.63671875)" stroke="none"><path fill="#000000" d="M 1.35,1.22 Q 1.35,1.22 -0.49,3.60 -2.34,5.98 -4.12,7.75 -5.89,9.52 -7.89,10.59 -9.89,11.67 -10.08,11.78 -10.26,11.89 -10.47,11.93 -10.68,11.98 -10.89,11.95 -11.10,11.93 -11.29,11.84 -11.48,11.75 -11.64,11.60 -11.79,11.45 -11.89,11.27 -11.99,11.08 -12.02,10.87 -12.05,10.66 -12.02,10.45 -11.98,10.24 -11.88,10.05 -11.78,9.86 -11.62,9.72 -11.47,9.57 -11.27,9.49 -11.08,9.40 -10.87,9.38 -10.66,9.36 -10.45,9.40 -10.24,9.45 -10.06,9.56 -9.88,9.67 -9.74,9.84 -9.61,10.00 -9.53,10.20 -9.45,10.39 -9.44,10.61 -9.43,10.82 -9.49,11.02 -9.55,11.23 -9.67,11.40 -9.79,11.58 -9.96,11.70 -10.13,11.83 -10.33,11.90 -10.53,11.96 -10.75,11.96 -10.96,11.96 -11.16,11.89 -11.36,11.82 -11.53,11.69 -11.70,11.56 -11.82,11.39 -11.93,11.21 -11.99,11.00 -12.04,10.80 -12.03,10.59 -12.02,10.38 -11.94,10.18 -11.86,9.98 -11.72,9.82 -11.58,9.66 -11.58,9.66 -11.58,9.66 -10.32,8.01 -9.07,6.36 -7.39,4.65 -5.71,2.94 -3.53,0.85 -1.35,-1.22 -1.19,-1.37 -1.02,-1.51 -0.82,-1.61 -0.63,-1.71 -0.41,-1.76 -0.20,-1.81 0.01,-1.81 0.23,-1.81 0.45,-1.76 0.66,-1.70 0.85,-1.60 1.05,-1.49 1.21,-1.34 1.38,-1.20 1.50,-1.01 1.62,-0.83 1.70,-0.62 1.78,-0.42 1.80,-0.20 1.83,0.01 1.80,0.23 1.77,0.45 1.69,0.66 1.61,0.86 1.48,1.04 1.35,1.22 1.35,1.22 L 1.35,1.22 Z"/></g><g transform="translate(347.734375 868.40234375) rotate(0 -2.4140625 14.873046875)" stroke="none"><path fill="#000000" d="M 1.80,0.14 Q 1.80,0.14 1.86,3.32 1.92,6.50 1.31,10.25 0.70,13.99 -0.04,17.53 -0.78,21.06 -1.33,23.66 -1.87,26.25 -2.60,27.73 -3.33,29.21 -3.39,29.41 -3.46,29.61 -3.58,29.79 -3.70,29.96 -3.88,30.08 -4.05,30.21 -4.25,30.27 -4.45,30.33 -4.67,30.33 -4.88,30.32 -5.08,30.25 -5.28,30.18 -5.44,30.05 -5.61,29.91 -5.73,29.73 -5.84,29.56 -5.89,29.35 -5.94,29.14 -5.93,28.93 -5.91,28.72 -5.83,28.52 -5.74,28.33 -5.60,28.17 -5.46,28.01 -5.27,27.91 -5.09,27.80 -4.88,27.76 -4.67,27.72 -4.46,27.75 -4.25,27.78 -4.06,27.87 -3.87,27.97 -3.72,28.12 -3.57,28.27 -3.47,28.46 -3.38,28.65 -3.35,28.86 -3.32,29.07 -3.36,29.28 -3.40,29.48 -3.51,29.67 -3.61,29.85 -3.77,30.00 -3.93,30.14 -4.12,30.22 -4.32,30.31 -4.53,30.33 -4.74,30.34 -4.94,30.29 -5.15,30.24 -5.33,30.13 -5.51,30.01 -5.64,29.85 -5.78,29.68 -5.85,29.48 -5.92,29.28 -5.93,29.07 -5.94,28.86 -5.94,28.86 -5.94,28.86 -6.24,27.13 -6.54,25.40 -6.12,22.70 -5.69,20.00 -4.93,16.58 -4.17,13.16 -3.53,9.64 -2.89,6.13 -2.35,2.99 -1.80,-0.14 -1.76,-0.35 -1.72,-0.56 -1.63,-0.76 -1.53,-0.96 -1.39,-1.13 -1.26,-1.30 -1.08,-1.43 -0.91,-1.56 -0.71,-1.65 -0.51,-1.74 -0.29,-1.77 -0.07,-1.81 0.13,-1.79 0.35,-1.77 0.56,-1.71 0.77,-1.64 0.95,-1.52 1.14,-1.40 1.29,-1.25 1.44,-1.09 1.55,-0.90 1.66,-0.71 1.72,-0.50 1.79,-0.29 1.79,-0.07 1.80,0.14 1.80,0.14 L 1.80,0.14 Z"/></g><g transform="translate(276.58984375 841.875) rotate(0 -8.810546875 21.7890625)" stroke="none"><path fill="#000000" d="M 0.98,1.49 Q 0.98,1.49 -0.64,2.99 -2.27,4.48 -3.91,5.83 -5.54,7.19 -7.06,9.06 -8.57,10.93 -9.98,13.60 -11.39,16.27 -12.38,19.61 -13.38,22.95 -13.77,27.30 -14.17,31.66 -13.80,34.41 -13.43,37.17 -11.80,39.39 -10.18,41.60 -10.05,41.77 -9.92,41.94 -9.86,42.15 -9.79,42.35 -9.80,42.56 -9.80,42.77 -9.87,42.97 -9.94,43.17 -10.07,43.34 -10.21,43.51 -10.38,43.63 -10.56,43.74 -10.77,43.80 -10.97,43.85 -11.18,43.84 -11.40,43.82 -11.59,43.74 -11.79,43.66 -11.95,43.52 -12.11,43.38 -12.21,43.19 -12.32,43.01 -12.36,42.80 -12.41,42.59 -12.38,42.38 -12.35,42.17 -12.26,41.98 -12.17,41.79 -12.02,41.64 -11.87,41.48 -11.68,41.39 -11.49,41.29 -11.28,41.26 -11.07,41.23 -10.86,41.27 -10.66,41.30 -10.47,41.41 -10.28,41.51 -10.14,41.67 -10.00,41.82 -9.91,42.02 -9.82,42.21 -9.80,42.42 -9.78,42.63 -9.83,42.84 -9.88,43.05 -9.99,43.23 -10.11,43.41 -10.27,43.54 -10.43,43.68 -10.63,43.75 -10.83,43.83 -11.04,43.84 -11.26,43.85 -11.46,43.79 -11.66,43.73 -11.84,43.60 -12.01,43.48 -12.01,43.48 -12.01,43.48 -15.17,41.02 -18.33,38.56 -18.95,34.87 -19.57,31.18 -19.07,26.28 -18.58,21.37 -17.36,17.53 -16.15,13.68 -14.40,10.59 -12.65,7.50 -10.71,5.31 -8.77,3.12 -6.89,1.71 -5.02,0.30 -3.00,-0.59 -0.98,-1.49 -0.78,-1.59 -0.59,-1.68 -0.38,-1.73 -0.17,-1.78 0.04,-1.77 0.25,-1.77 0.46,-1.71 0.67,-1.65 0.86,-1.55 1.05,-1.44 1.20,-1.30 1.36,-1.15 1.48,-0.97 1.60,-0.79 1.67,-0.59 1.74,-0.38 1.76,-0.17 1.79,0.04 1.75,0.25 1.72,0.46 1.64,0.66 1.56,0.86 1.43,1.04 1.31,1.21 1.14,1.35 0.98,1.49 0.98,1.49 L 0.98,1.49 Z"/></g><g transform="translate(364.21875 854.76171875) rotate(0 0.94921875 33.916015625)" stroke="none"><path fill="#000000" d="M 1.20,-0.64 Q 1.20,-0.64 2.40,0.53 3.60,1.71 4.31,3.27 5.02,4.82 5.68,6.42 6.35,8.01 7.05,9.89 7.76,11.76 8.53,15.11 9.31,18.47 9.72,21.92 10.13,25.38 10.30,29.00 10.47,32.63 10.30,36.34 10.12,40.05 8.86,44.78 7.60,49.50 6.01,53.30 4.43,57.10 2.96,59.95 1.49,62.80 0.44,64.57 -0.60,66.35 -3.70,65.68 -6.80,65.01 -6.89,64.81 -6.97,64.62 -7.00,64.41 -7.02,64.20 -6.97,63.99 -6.92,63.78 -6.81,63.60 -6.70,63.42 -6.54,63.28 -6.38,63.15 -6.18,63.07 -5.98,62.99 -5.77,62.98 -5.56,62.97 -5.35,63.03 -5.15,63.09 -4.97,63.21 -4.80,63.33 -4.67,63.50 -4.54,63.67 -4.48,63.87 -4.41,64.07 -4.41,64.28 -4.41,64.49 -4.48,64.70 -4.55,64.90 -4.68,65.07 -4.81,65.23 -4.99,65.35 -5.16,65.47 -5.37,65.53 -5.57,65.58 -5.78,65.57 -6.00,65.56 -6.19,65.48 -6.39,65.40 -6.55,65.26 -6.71,65.12 -6.82,64.94 -6.93,64.76 -6.97,64.55 -7.02,64.34 -6.99,64.13 -6.97,63.92 -6.88,63.73 -6.79,63.53 -6.64,63.38 -6.50,63.23 -6.31,63.13 -6.12,63.03 -5.91,63.00 -5.70,62.96 -5.49,63.00 -5.28,63.03 -5.09,63.13 -4.91,63.23 -4.76,63.39 -4.62,63.54 -4.62,63.54 -4.62,63.54 -4.91,63.65 -5.20,63.76 -4.29,62.04 -3.38,60.31 -2.02,57.63 -0.67,54.94 0.79,51.49 2.26,48.03 3.43,43.89 4.61,39.75 4.79,36.31 4.97,32.88 4.83,29.43 4.69,25.98 4.35,22.79 4.01,19.59 3.42,16.54 2.84,13.48 2.25,11.66 1.66,9.85 1.09,8.29 0.52,6.73 -0.01,5.34 -0.55,3.95 -0.87,2.30 -1.20,0.64 -1.26,0.49 -1.32,0.34 -1.34,0.17 -1.36,0.01 -1.34,-0.14 -1.33,-0.31 -1.27,-0.46 -1.21,-0.62 -1.12,-0.75 -1.03,-0.89 -0.91,-1.00 -0.78,-1.11 -0.64,-1.19 -0.49,-1.27 -0.33,-1.31 -0.17,-1.35 -0.01,-1.35 0.15,-1.35 0.31,-1.32 0.47,-1.28 0.61,-1.20 0.76,-1.13 0.88,-1.02 1.01,-0.91 1.10,-0.78 1.20,-0.64 1.20,-0.64 L 1.20,-0.64 Z"/></g><g transform="translate(27.71484375 534.64453125) rotate(0 10.990234375 13.546875)" stroke="none"><path fill="#000000" d="M 1.78,-0.08 Q 1.78,-0.08 2.11,2.84 2.45,5.78 2.53,8.74 2.61,11.71 2.64,14.77 2.68,17.83 2.69,20.57 2.70,23.32 2.71,25.52 2.71,27.72 2.79,29.00 2.86,30.29 2.83,30.58 2.79,30.86 2.69,31.13 2.59,31.40 2.43,31.64 2.26,31.88 2.05,32.07 1.83,32.26 1.58,32.40 1.32,32.53 1.04,32.60 0.76,32.67 0.47,32.67 0.18,32.67 -0.09,32.60 -0.37,32.54 -0.63,32.40 -0.88,32.27 -1.10,32.08 -1.31,31.89 -1.48,31.65 -1.64,31.41 -1.75,31.14 -1.85,30.87 -1.88,30.58 -1.92,30.30 -2.12,26.85 -2.32,23.41 -2.36,20.43 -2.40,17.46 -2.06,14.20 -1.71,10.95 -0.94,7.68 -0.17,4.41 0.82,1.54 1.83,-1.32 3.12,-3.66 4.42,-6.01 5.69,-7.29 6.97,-8.56 8.89,-8.87 10.81,-9.18 12.16,-8.21 13.50,-7.25 14.15,-5.43 14.79,-3.60 14.61,-1.05 14.43,1.50 13.54,3.64 12.64,5.77 11.44,7.33 10.23,8.89 9.12,9.78 8.01,10.67 7.06,11.07 6.11,11.47 5.84,11.57 5.57,11.68 5.28,11.71 4.99,11.75 4.71,11.72 4.42,11.68 4.15,11.58 3.88,11.48 3.64,11.32 3.40,11.15 3.21,10.94 3.02,10.72 2.88,10.47 2.74,10.21 2.67,9.93 2.60,9.65 2.60,9.36 2.60,9.07 2.67,8.79 2.74,8.51 2.87,8.26 3.00,8.00 3.19,7.78 3.38,7.56 3.62,7.40 3.86,7.23 5.57,7.51 7.29,7.78 8.58,9.25 9.87,10.72 11.55,13.75 13.22,16.78 14.64,19.59 16.06,22.39 17.33,24.74 18.59,27.09 19.69,28.78 20.78,30.47 21.58,32.10 22.38,33.73 22.49,33.91 22.61,34.08 22.66,34.29 22.71,34.50 22.70,34.71 22.68,34.92 22.60,35.12 22.52,35.31 22.38,35.47 22.23,35.63 22.05,35.73 21.87,35.84 21.66,35.88 21.45,35.92 21.24,35.90 21.03,35.87 20.84,35.77 20.65,35.68 20.50,35.53 20.34,35.38 20.25,35.19 20.15,35.00 20.12,34.79 20.09,34.58 20.13,34.37 20.17,34.16 20.27,33.98 20.38,33.79 20.54,33.65 20.69,33.51 20.89,33.42 21.08,33.34 21.29,33.32 21.51,33.30 21.71,33.35 21.92,33.40 22.10,33.51 22.28,33.63 22.41,33.79 22.55,33.96 22.62,34.16 22.69,34.36 22.70,34.57 22.71,34.78 22.65,34.98 22.59,35.19 22.46,35.36 22.34,35.53 22.17,35.66 22.00,35.78 21.79,35.85 21.59,35.91 21.38,35.91 21.17,35.90 20.97,35.83 20.77,35.76 20.60,35.62 20.43,35.49 20.43,35.49 20.43,35.49 18.65,34.28 16.87,33.06 15.63,31.21 14.38,29.35 13.09,26.95 11.81,24.54 10.42,21.80 9.04,19.06 7.59,16.36 6.14,13.65 6.12,12.56 6.11,11.47 5.84,11.57 5.57,11.68 5.28,11.71 4.99,11.75 4.71,11.72 4.42,11.68 4.15,11.58 3.88,11.48 3.64,11.32 3.40,11.15 3.21,10.94 3.02,10.72 2.88,10.47 2.74,10.21 2.67,9.93 2.60,9.65 2.60,9.36 2.60,9.07 2.67,8.79 2.74,8.51 2.87,8.26 3.00,8.00 3.19,7.78 3.38,7.56 3.62,7.40 3.86,7.23 4.13,7.20 4.40,7.17 5.45,6.50 6.50,5.83 7.39,4.80 8.29,3.76 8.99,2.35 9.69,0.94 9.19,-1.30 8.69,-3.55 7.58,-1.61 6.47,0.33 5.54,2.94 4.61,5.56 3.89,8.52 3.18,11.49 2.84,14.44 2.51,17.40 2.55,20.32 2.58,23.24 2.72,26.77 2.86,30.29 2.83,30.58 2.79,30.86 2.69,31.13 2.59,31.40 2.43,31.64 2.26,31.88 2.05,32.07 1.83,32.26 1.58,32.40 1.32,32.53 1.04,32.60 0.76,32.67 0.47,32.67 0.18,32.67 -0.09,32.60 -0.37,32.54 -0.63,32.40 -0.88,32.27 -1.10,32.08 -1.31,31.89 -1.48,31.65 -1.64,31.41 -1.75,31.14 -1.85,30.87 -1.88,30.58 -1.92,30.30 -1.85,29.01 -1.78,27.73 -1.78,25.53 -1.79,23.33 -1.80,20.60 -1.80,17.87 -1.82,14.83 -1.83,11.80 -1.87,8.89 -1.91,5.98 -1.84,3.03 -1.78,0.08 -1.76,-0.13 -1.74,-0.34 -1.68,-0.55 -1.61,-0.75 -1.50,-0.93 -1.38,-1.11 -1.23,-1.26 -1.07,-1.41 -0.89,-1.52 -0.70,-1.63 -0.50,-1.69 -0.29,-1.75 -0.08,-1.76 0.13,-1.77 0.34,-1.73 0.55,-1.69 0.74,-1.60 0.94,-1.51 1.11,-1.37 1.27,-1.24 1.40,-1.07 1.53,-0.90 1.62,-0.70 1.70,-0.50 1.74,-0.29 1.78,-0.08 1.78,-0.08 L 1.78,-0.08 Z"/></g><g transform="translate(73.9453125 536.82421875) rotate(0 3.173828125 11.69921875)" stroke="none"><path fill="#000000" d="M 1.42,1.04 Q 1.42,1.04 -0.63,4.33 -2.70,7.62 -4.06,10.39 -5.42,13.16 -6.08,15.56 -6.74,17.96 -5.01,17.75 -3.27,17.55 -1.27,15.49 0.72,13.42 2.57,11.08 4.42,8.73 5.78,6.86 7.14,4.98 9.33,3.74 11.52,2.50 12.18,4.93 12.84,7.36 12.79,9.17 12.74,10.98 12.27,11.94 11.80,12.89 13.67,13.24 15.54,13.59 15.75,13.64 15.95,13.69 16.13,13.80 16.31,13.91 16.45,14.07 16.58,14.24 16.66,14.44 16.74,14.64 16.74,14.85 16.75,15.06 16.69,15.26 16.63,15.47 16.51,15.64 16.39,15.82 16.22,15.94 16.05,16.07 15.84,16.13 15.64,16.20 15.43,16.20 15.22,16.19 15.02,16.12 14.82,16.05 14.65,15.92 14.48,15.79 14.37,15.61 14.25,15.43 14.20,15.23 14.14,15.02 14.16,14.81 14.17,14.60 14.25,14.40 14.33,14.21 14.47,14.05 14.61,13.89 14.80,13.78 14.98,13.67 15.19,13.63 15.40,13.59 15.61,13.61 15.82,13.64 16.01,13.73 16.20,13.82 16.35,13.97 16.51,14.12 16.60,14.31 16.70,14.50 16.73,14.71 16.76,14.92 16.72,15.13 16.69,15.34 16.58,15.52 16.48,15.71 16.33,15.85 16.17,16.00 15.98,16.08 15.78,16.17 15.57,16.19 15.36,16.21 15.36,16.21 15.36,16.21 12.98,16.27 10.61,16.32 9.53,13.59 8.45,10.86 8.76,8.40 9.07,5.94 9.81,6.70 10.55,7.46 9.14,9.40 7.73,11.33 5.76,13.86 3.79,16.38 1.42,18.84 -0.94,21.31 -3.55,22.61 -6.16,23.92 -8.15,23.24 -10.13,22.55 -10.65,19.65 -11.17,16.75 -10.37,13.93 -9.57,11.11 -8.00,8.01 -6.44,4.90 -3.93,1.93 -1.42,-1.04 -1.28,-1.19 -1.13,-1.35 -0.95,-1.47 -0.77,-1.58 -0.57,-1.65 -0.37,-1.72 -0.16,-1.74 0.04,-1.76 0.25,-1.73 0.46,-1.70 0.66,-1.62 0.86,-1.54 1.03,-1.41 1.20,-1.29 1.34,-1.12 1.48,-0.96 1.57,-0.77 1.66,-0.58 1.71,-0.37 1.76,-0.16 1.75,0.04 1.74,0.26 1.69,0.46 1.63,0.67 1.53,0.85 1.42,1.04 1.42,1.04 L 1.42,1.04 Z"/></g><g transform="translate(104.453125 542.88671875) rotate(0 7.95703125 6.44140625)" stroke="none"><path fill="#000000" d="M 1.76,0.04 Q 1.76,0.04 1.89,2.44 2.03,4.84 2.00,6.76 1.96,8.68 1.88,9.86 1.80,11.05 2.01,11.46 2.21,11.88 2.17,12.13 2.13,12.39 2.03,12.62 1.93,12.86 1.78,13.07 1.62,13.27 1.43,13.44 1.23,13.60 1.00,13.71 0.76,13.82 0.51,13.87 0.26,13.92 0.00,13.92 -0.24,13.91 -0.49,13.83 -0.74,13.76 -0.96,13.64 -1.18,13.51 -1.37,13.33 -1.56,13.15 -1.69,12.94 -1.83,12.72 -1.91,12.48 -2.00,12.23 -2.02,11.98 -2.04,11.72 -0.96,10.05 0.12,8.38 1.33,6.71 2.55,5.04 3.94,3.37 5.33,1.71 6.56,0.60 7.80,-0.49 9.82,-0.85 11.85,-1.22 12.84,-0.44 13.83,0.33 14.40,1.78 14.98,3.23 15.18,4.59 15.38,5.95 15.50,7.17 15.62,8.39 16.19,9.51 16.75,10.63 16.90,10.79 17.04,10.94 17.13,11.14 17.22,11.33 17.24,11.54 17.26,11.75 17.21,11.96 17.17,12.17 17.06,12.35 16.95,12.53 16.78,12.67 16.62,12.80 16.42,12.88 16.22,12.96 16.01,12.97 15.80,12.98 15.60,12.92 15.39,12.86 15.22,12.74 15.04,12.62 14.91,12.45 14.79,12.28 14.72,12.08 14.65,11.88 14.65,11.66 14.66,11.45 14.72,11.25 14.79,11.05 14.92,10.88 15.05,10.71 15.23,10.60 15.41,10.48 15.61,10.42 15.82,10.37 16.03,10.38 16.24,10.39 16.44,10.47 16.63,10.55 16.79,10.69 16.96,10.83 17.06,11.01 17.17,11.19 17.22,11.40 17.26,11.61 17.24,11.82 17.21,12.03 17.12,12.22 17.03,12.42 16.89,12.57 16.74,12.72 16.55,12.82 16.36,12.92 16.15,12.95 15.94,12.99 15.73,12.95 15.52,12.91 15.34,12.81 15.15,12.71 15.15,12.71 15.15,12.71 13.06,10.96 10.97,9.22 10.75,7.87 10.54,6.52 10.60,4.67 10.67,2.82 9.67,3.67 8.66,4.53 7.35,6.07 6.04,7.60 4.13,9.74 2.21,11.88 2.17,12.13 2.13,12.39 2.03,12.62 1.93,12.86 1.78,13.07 1.63,13.27 1.43,13.44 1.23,13.60 1.00,13.71 0.76,13.82 0.51,13.87 0.26,13.92 0.00,13.92 -0.24,13.91 -0.49,13.83 -0.74,13.76 -0.96,13.64 -1.18,13.51 -1.37,13.33 -1.56,13.15 -1.69,12.94 -1.83,12.72 -1.91,12.48 -2.00,12.23 -2.02,11.98 -2.04,11.72 -2.23,11.57 -2.42,11.42 -2.40,9.99 -2.38,8.57 -2.32,6.65 -2.25,4.74 -2.00,2.35 -1.76,-0.04 -1.72,-0.25 -1.69,-0.46 -1.61,-0.65 -1.53,-0.85 -1.41,-1.02 -1.29,-1.19 -1.12,-1.33 -0.96,-1.47 -0.77,-1.56 -0.58,-1.66 -0.37,-1.70 -0.17,-1.75 0.04,-1.74 0.25,-1.74 0.45,-1.68 0.66,-1.63 0.84,-1.52 1.03,-1.42 1.18,-1.28 1.34,-1.13 1.46,-0.95 1.57,-0.78 1.64,-0.58 1.71,-0.38 1.73,-0.17 1.76,0.04 1.76,0.04 L 1.76,0.04 Z"/></g><g transform="translate(142.7265625 541.0859375) rotate(0 19.98828125 20.416015625)" stroke="none"><path fill="#000000" d="M 1.59,0.95 Q 1.59,0.95 0.24,3.83 -1.09,6.71 -1.87,9.83 -2.64,12.95 -2.63,14.57 -2.62,16.19 -1.43,16.12 -0.24,16.05 1.31,14.46 2.88,12.88 4.08,11.35 5.28,9.81 5.94,8.80 6.60,7.78 6.91,7.28 7.22,6.78 7.39,6.57 7.56,6.36 7.77,6.20 7.99,6.03 8.23,5.92 8.48,5.82 8.74,5.77 9.01,5.72 9.27,5.74 9.54,5.76 9.80,5.84 10.05,5.93 10.28,6.07 10.51,6.21 10.70,6.40 10.89,6.59 11.02,6.82 11.16,7.05 11.24,7.31 11.32,7.57 11.33,7.83 11.34,8.10 11.29,8.37 11.24,8.63 11.13,8.87 11.02,9.12 11.35,10.84 11.68,12.56 11.72,15.01 11.75,17.46 11.28,20.27 10.81,23.07 9.67,25.97 8.52,28.87 6.15,32.25 3.78,35.64 1.57,37.75 -0.63,39.87 -2.65,40.91 -4.66,41.95 -6.70,41.28 -8.74,40.62 -9.11,38.78 -9.49,36.94 -7.65,34.93 -5.82,32.92 -2.05,31.16 1.70,29.41 7.49,27.47 13.28,25.53 19.70,23.47 26.13,21.41 31.71,19.45 37.29,17.50 40.03,16.41 42.77,15.32 43.75,14.67 44.74,14.02 42.32,13.18 39.90,12.33 38.16,13.06 36.41,13.79 35.02,15.54 33.64,17.28 32.78,19.75 31.93,22.22 31.83,25.60 31.74,28.98 32.36,30.91 32.98,32.83 34.46,33.51 35.94,34.19 39.29,34.16 42.65,34.13 42.87,34.14 43.08,34.15 43.28,34.23 43.47,34.31 43.64,34.44 43.80,34.58 43.91,34.76 44.02,34.94 44.07,35.15 44.11,35.36 44.09,35.57 44.07,35.78 43.98,35.97 43.90,36.16 43.75,36.32 43.61,36.48 43.42,36.58 43.23,36.68 43.02,36.71 42.81,36.75 42.60,36.72 42.39,36.68 42.20,36.58 42.02,36.49 41.87,36.33 41.72,36.18 41.63,35.99 41.54,35.79 41.52,35.58 41.49,35.37 41.54,35.16 41.58,34.96 41.69,34.77 41.80,34.59 41.96,34.45 42.12,34.31 42.32,34.23 42.51,34.15 42.73,34.14 42.94,34.13 43.14,34.18 43.35,34.24 43.52,34.36 43.70,34.48 43.83,34.64 43.96,34.81 44.03,35.01 44.10,35.21 44.10,35.43 44.10,35.64 44.03,35.84 43.97,36.04 43.84,36.21 43.71,36.38 43.54,36.50 43.36,36.62 43.16,36.68 42.95,36.74 42.95,36.74 42.95,36.74 38.54,37.61 34.12,38.48 31.47,36.79 28.82,35.10 27.80,31.97 26.78,28.85 27.07,24.70 27.36,20.55 28.67,17.35 29.99,14.15 32.31,11.79 34.63,9.42 37.63,8.56 40.63,7.70 43.84,8.65 47.06,9.59 48.20,11.51 49.34,13.42 48.65,15.53 47.97,17.64 46.30,18.80 44.64,19.97 41.79,21.09 38.94,22.21 33.30,24.19 27.65,26.16 21.25,28.21 14.85,30.25 9.30,32.10 3.74,33.94 0.56,35.31 -2.61,36.68 -4.44,36.98 -6.27,37.29 -5.18,36.70 -4.09,36.10 -2.19,34.37 -0.30,32.64 1.86,29.80 4.02,26.95 5.09,24.56 6.16,22.16 6.68,19.80 7.19,17.44 7.24,15.06 7.28,12.68 7.33,11.00 7.39,9.33 7.31,8.05 7.22,6.78 7.39,6.57 7.56,6.36 7.77,6.20 7.98,6.03 8.23,5.92 8.48,5.82 8.74,5.77 9.01,5.72 9.27,5.74 9.54,5.76 9.80,5.84 10.05,5.93 10.28,6.07 10.51,6.21 10.70,6.40 10.89,6.59 11.02,6.82 11.16,7.05 11.24,7.31 11.32,7.57 11.33,7.83 11.34,8.10 11.29,8.37 11.24,8.63 11.13,8.87 11.02,9.12 10.74,9.64 10.45,10.16 9.71,11.42 8.98,12.67 7.52,14.57 6.07,16.46 3.44,18.58 0.81,20.71 -1.53,20.74 -3.87,20.78 -5.57,19.03 -7.26,17.27 -7.40,14.50 -7.54,11.72 -6.49,7.94 -5.44,4.17 -3.51,1.60 -1.59,-0.95 -1.45,-1.13 -1.31,-1.31 -1.14,-1.44 -0.96,-1.58 -0.76,-1.68 -0.55,-1.77 -0.33,-1.81 -0.11,-1.85 0.10,-1.84 0.32,-1.83 0.54,-1.76 0.75,-1.69 0.94,-1.58 1.14,-1.46 1.30,-1.30 1.46,-1.15 1.57,-0.96 1.69,-0.76 1.76,-0.55 1.82,-0.34 1.84,-0.11 1.85,0.10 1.81,0.32 1.77,0.54 1.68,0.75 1.59,0.95 1.59,0.95 L 1.59,0.95 Z"/></g><g transform="translate(222.77734375 558.80078125) rotate(0 1.611328125 -0.994140625)" stroke="none"><path fill="#000000" d="M -0.76,-1.08 Q -0.76,-1.08 0.51,-0.33 1.79,0.41 1.59,0.49 1.40,0.58 1.18,0.59 0.97,0.61 0.77,0.56 0.56,0.51 0.38,0.39 0.20,0.28 0.07,0.11 -0.06,-0.04 -0.13,-0.24 -0.20,-0.44 -0.21,-0.65 -0.21,-0.86 -0.15,-1.07 -0.09,-1.27 0.03,-1.44 0.15,-1.62 0.32,-1.74 0.49,-1.86 0.70,-1.93 0.90,-1.99 1.11,-1.98 1.33,-1.98 1.52,-1.90 1.72,-1.83 1.89,-1.70 2.06,-1.56 2.17,-1.39 2.28,-1.21 2.34,-1.00 2.39,-0.79 2.37,-0.58 2.35,-0.37 2.27,-0.18 2.18,0.01 2.04,0.17 1.90,0.33 1.72,0.43 1.53,0.54 1.32,0.58 1.11,0.62 0.90,0.59 0.69,0.56 0.50,0.46 0.31,0.37 0.16,0.22 0.01,0.07 -0.07,-0.11 -0.17,-0.30 -0.20,-0.51 -0.22,-0.72 -0.18,-0.93 -0.14,-1.14 -0.04,-1.33 0.05,-1.51 0.21,-1.65 0.37,-1.79 0.37,-1.79 0.37,-1.79 0.56,-0.35 0.76,1.08 0.61,1.16 0.47,1.23 0.32,1.27 0.16,1.31 0.00,1.31 -0.15,1.31 -0.30,1.28 -0.46,1.24 -0.60,1.17 -0.74,1.09 -0.86,0.99 -0.98,0.88 -1.07,0.75 -1.17,0.62 -1.22,0.47 -1.28,0.32 -1.30,0.16 -1.32,0.00 -1.30,-0.15 -1.29,-0.30 -1.23,-0.45 -1.17,-0.60 -1.08,-0.74 -0.99,-0.87 -0.87,-0.98 -0.76,-1.08 -0.76,-1.08 L -0.76,-1.08 Z"/></g><g transform="translate(227.703125 551.6015625) rotate(0 -3.314453125 21.98046875)" stroke="none"><path fill="#000000" d="M -1.01,-0.93 Q -1.01,-0.93 -0.81,-2.00 -0.61,-3.08 -0.38,-3.27 -0.14,-3.47 0.12,-3.61 0.39,-3.75 0.69,-3.81 0.99,-3.88 1.30,-3.88 1.60,-3.87 1.90,-3.79 2.19,-3.71 2.46,-3.56 2.73,-3.42 2.96,-3.21 3.18,-3.00 3.35,-2.75 3.52,-2.49 3.62,-2.20 3.72,-1.92 3.76,-1.61 3.79,-1.31 3.74,-1.00 3.70,-0.70 3.59,-0.42 3.47,-0.13 3.29,0.10 3.12,0.35 2.28,1.94 1.44,3.52 0.49,5.49 -0.44,7.46 -1.40,9.77 -2.36,12.08 -3.16,14.43 -3.96,16.77 -4.53,18.96 -5.10,21.16 -5.41,23.17 -5.72,25.18 -5.82,27.61 -5.92,30.03 -5.66,31.99 -5.39,33.95 -4.89,35.69 -4.40,37.44 -3.54,39.24 -2.68,41.04 -1.90,42.95 -1.12,44.86 -1.02,45.05 -0.93,45.24 -0.89,45.45 -0.86,45.66 -0.90,45.87 -0.94,46.08 -1.04,46.27 -1.14,46.45 -1.30,46.60 -1.45,46.74 -1.65,46.83 -1.84,46.91 -2.05,46.93 -2.26,46.96 -2.47,46.91 -2.68,46.86 -2.86,46.75 -3.04,46.64 -3.17,46.47 -3.31,46.31 -3.39,46.11 -3.46,45.91 -3.47,45.70 -3.48,45.49 -3.42,45.28 -3.36,45.08 -3.24,44.90 -3.12,44.73 -2.95,44.60 -2.78,44.48 -2.57,44.41 -2.37,44.35 -2.16,44.35 -1.95,44.35 -1.75,44.42 -1.55,44.49 -1.38,44.62 -1.21,44.75 -1.09,44.93 -0.98,45.11 -0.92,45.31 -0.87,45.52 -0.88,45.73 -0.90,45.94 -0.98,46.14 -1.06,46.34 -1.20,46.50 -1.34,46.66 -1.52,46.76 -1.71,46.87 -1.91,46.91 -2.12,46.96 -2.33,46.93 -2.54,46.91 -2.74,46.81 -2.93,46.72 -3.08,46.57 -3.23,46.43 -3.23,46.43 -3.23,46.43 -5.04,44.84 -6.86,43.25 -8.10,41.06 -9.35,38.88 -9.97,36.75 -10.58,34.62 -10.87,32.21 -11.15,29.81 -11.02,27.09 -10.89,24.37 -10.53,22.10 -10.17,19.83 -9.54,17.45 -8.91,15.08 -8.05,12.57 -7.18,10.06 -6.16,7.63 -5.13,5.19 -4.08,3.04 -3.03,0.88 -1.82,-1.09 -0.61,-3.08 -0.38,-3.27 -0.14,-3.47 0.12,-3.61 0.39,-3.75 0.69,-3.81 0.99,-3.88 1.30,-3.88 1.60,-3.87 1.90,-3.79 2.19,-3.71 2.46,-3.56 2.73,-3.42 2.96,-3.21 3.18,-3.00 3.35,-2.75 3.52,-2.49 3.62,-2.20 3.72,-1.92 3.76,-1.61 3.79,-1.31 3.74,-1.00 3.70,-0.70 3.59,-0.42 3.47,-0.13 3.29,0.10 3.12,0.35 2.06,0.64 1.01,0.93 0.88,1.04 0.76,1.15 0.61,1.22 0.46,1.30 0.30,1.33 0.14,1.37 -0.02,1.37 -0.19,1.36 -0.35,1.32 -0.51,1.28 -0.66,1.20 -0.80,1.12 -0.92,1.00 -1.05,0.89 -1.14,0.75 -1.23,0.61 -1.29,0.46 -1.34,0.30 -1.36,0.13 -1.38,-0.02 -1.35,-0.19 -1.33,-0.35 -1.27,-0.51 -1.21,-0.66 -1.11,-0.80 -1.01,-0.93 -1.01,-0.93 L -1.01,-0.93 Z"/></g><g transform="translate(248.640625 564.67578125) rotate(0 -0.994140625 10.08984375)" stroke="none"><path fill="#000000" d="M 1.25,1.08 Q 1.25,1.08 -0.72,3.87 -2.70,6.66 -3.68,8.92 -4.65,11.18 -5.05,13.19 -5.45,15.19 -5.46,16.58 -5.47,17.98 -3.41,16.90 -1.36,15.81 -0.08,14.36 1.19,12.91 2.02,11.42 2.85,9.93 3.15,8.32 3.45,6.71 3.30,5.59 3.14,4.47 2.20,2.66 1.27,0.84 1.06,0.90 0.86,0.96 0.65,0.95 0.43,0.94 0.24,0.87 0.04,0.79 -0.12,0.66 -0.28,0.52 -0.39,0.34 -0.51,0.16 -0.55,-0.03 -0.60,-0.24 -0.58,-0.45 -0.56,-0.66 -0.48,-0.86 -0.39,-1.05 -0.25,-1.21 -0.10,-1.37 0.07,-1.47 0.26,-1.57 0.47,-1.61 0.68,-1.65 0.89,-1.61 1.10,-1.58 1.29,-1.49 1.48,-1.39 1.62,-1.24 1.77,-1.09 1.86,-0.89 1.96,-0.70 1.98,-0.49 2.01,-0.28 1.97,-0.07 1.92,0.13 1.82,0.31 1.71,0.49 1.55,0.63 1.39,0.77 1.19,0.85 1.00,0.94 0.79,0.95 0.57,0.97 0.37,0.91 0.16,0.86 -0.00,0.74 -0.18,0.62 -0.31,0.46 -0.44,0.29 -0.52,0.09 -0.59,-0.10 -0.59,-0.31 -0.59,-0.53 -0.53,-0.73 -0.46,-0.93 -0.34,-1.10 -0.21,-1.27 -0.04,-1.39 0.13,-1.52 0.13,-1.52 0.13,-1.52 3.44,-0.34 6.76,0.82 7.40,2.39 8.05,3.96 8.16,5.86 8.28,7.76 7.67,10.04 7.07,12.33 5.90,14.25 4.73,16.16 2.97,17.98 1.21,19.80 -1.01,21.04 -3.25,22.28 -5.42,22.12 -7.60,21.95 -8.89,20.10 -10.18,18.25 -10.16,16.21 -10.13,14.18 -9.54,11.70 -8.94,9.22 -7.58,6.45 -6.22,3.68 -3.74,1.30 -1.25,-1.08 -1.10,-1.21 -0.95,-1.35 -0.78,-1.44 -0.60,-1.54 -0.41,-1.59 -0.22,-1.64 -0.02,-1.64 0.17,-1.64 0.37,-1.60 0.56,-1.55 0.74,-1.46 0.92,-1.37 1.07,-1.24 1.22,-1.11 1.34,-0.95 1.45,-0.78 1.53,-0.60 1.60,-0.41 1.63,-0.21 1.65,-0.02 1.63,0.17 1.61,0.37 1.54,0.56 1.47,0.75 1.36,0.91 1.25,1.08 1.25,1.08 L 1.25,1.08 Z"/></g><g transform="translate(263.80078125 582.203125) rotate(0 -2.46484375 8.57421875)" stroke="none"><path fill="#000000" d="M 1.49,0.03 Q 1.49,0.03 1.83,2.28 2.18,4.54 1.58,6.90 0.99,9.26 0.12,11.26 -0.73,13.26 -3.71,14.01 -6.68,14.76 -6.70,14.55 -6.72,14.34 -6.66,14.13 -6.61,13.92 -6.50,13.75 -6.38,13.57 -6.22,13.43 -6.05,13.30 -5.85,13.23 -5.65,13.16 -5.44,13.15 -5.23,13.15 -5.02,13.21 -4.82,13.27 -4.65,13.40 -4.48,13.52 -4.35,13.70 -4.23,13.87 -4.17,14.07 -4.11,14.28 -4.11,14.49 -4.12,14.70 -4.19,14.90 -4.27,15.10 -4.40,15.26 -4.53,15.43 -4.71,15.54 -4.89,15.66 -5.10,15.71 -5.31,15.76 -5.52,15.74 -5.73,15.72 -5.92,15.64 -6.12,15.55 -6.28,15.41 -6.43,15.27 -6.54,15.08 -6.64,14.90 -6.68,14.69 -6.72,14.48 -6.69,14.27 -6.66,14.06 -6.57,13.87 -6.47,13.68 -6.32,13.53 -6.17,13.38 -5.98,13.28 -5.79,13.19 -5.58,13.16 -5.37,13.13 -5.16,13.18 -4.95,13.22 -4.77,13.32 -4.58,13.43 -4.44,13.59 -4.30,13.74 -4.22,13.94 -4.13,14.14 -4.13,14.14 -4.13,14.14 -4.65,12.70 -5.16,11.26 -4.38,9.59 -3.59,7.93 -2.99,6.16 -2.40,4.39 -1.94,2.17 -1.49,-0.03 -1.46,-0.21 -1.43,-0.39 -1.37,-0.55 -1.30,-0.72 -1.19,-0.87 -1.09,-1.01 -0.95,-1.13 -0.81,-1.24 -0.65,-1.32 -0.49,-1.40 -0.31,-1.44 -0.14,-1.48 0.03,-1.47 0.21,-1.47 0.38,-1.42 0.56,-1.38 0.71,-1.29 0.87,-1.20 1.00,-1.08 1.13,-0.96 1.23,-0.81 1.33,-0.65 1.39,-0.49 1.45,-0.32 1.47,-0.14 1.49,0.03 1.49,0.03 L 1.49,0.03 Z"/></g><g transform="translate(308.703125 570.453125) rotate(0 -4.5 6.20703125)" stroke="none"><path fill="#000000" d="M -0.97,1.10 Q -0.97,1.10 -2.26,0.76 -3.55,0.43 -4.70,-0.09 -5.85,-0.62 -7.33,-0.51 -8.82,-0.40 -10.82,0.62 -12.82,1.65 -13.98,2.80 -15.14,3.96 -16.08,5.16 -17.01,6.36 -17.72,7.53 -18.44,8.70 -18.94,10.37 -19.45,12.04 -17.77,11.95 -16.09,11.87 -14.66,11.97 -13.24,12.06 -11.53,11.43 -9.82,10.80 -8.11,9.65 -6.40,8.49 -4.80,6.92 -3.19,5.34 -1.74,3.50 -0.29,1.67 1.05,-0.21 2.39,-2.09 3.56,-3.66 4.74,-5.23 5.78,-6.26 6.83,-7.28 9.03,-7.69 11.23,-8.10 12.01,-7.33 12.80,-6.55 13.59,-4.60 14.38,-2.66 14.72,-1.43 15.07,-0.21 15.29,1.19 15.52,2.60 15.63,4.01 15.73,5.41 15.55,7.29 15.36,9.17 14.76,10.92 14.16,12.67 13.14,14.31 12.11,15.96 10.80,17.35 9.49,18.74 7.64,19.73 5.80,20.71 4.03,20.80 2.27,20.89 0.74,19.96 -0.78,19.03 -1.68,17.49 -2.58,15.95 -3.08,14.44 -3.58,12.92 -3.74,11.11 -3.91,9.31 -3.95,9.10 -3.99,8.89 -3.96,8.68 -3.93,8.47 -3.83,8.28 -3.74,8.09 -3.58,7.94 -3.43,7.79 -3.24,7.70 -3.05,7.60 -2.84,7.58 -2.63,7.55 -2.42,7.59 -2.21,7.63 -2.03,7.74 -1.84,7.84 -1.70,8.00 -1.56,8.16 -1.48,8.36 -1.40,8.55 -1.38,8.76 -1.37,8.98 -1.42,9.18 -1.47,9.39 -1.59,9.57 -1.70,9.74 -1.87,9.88 -2.04,10.01 -2.24,10.08 -2.43,10.15 -2.65,10.16 -2.86,10.16 -3.06,10.10 -3.27,10.03 -3.44,9.91 -3.61,9.78 -3.73,9.61 -3.85,9.44 -3.92,9.23 -3.98,9.03 -3.97,8.82 -3.96,8.60 -3.89,8.41 -3.81,8.21 -3.68,8.04 -3.54,7.88 -3.37,7.76 -3.19,7.65 -2.98,7.60 -2.77,7.55 -2.56,7.57 -2.35,7.59 -2.15,7.67 -1.96,7.76 -1.80,7.90 -1.65,8.04 -1.54,8.23 -1.44,8.42 -1.44,8.42 -1.44,8.42 -0.43,9.86 0.56,11.31 1.10,12.46 1.64,13.62 2.65,14.80 3.66,15.99 4.75,15.53 5.85,15.07 6.84,14.09 7.83,13.10 8.64,11.98 9.45,10.86 9.95,9.68 10.45,8.51 10.69,7.10 10.93,5.68 10.88,4.48 10.83,3.27 10.69,2.13 10.55,0.98 10.28,-0.09 10.01,-1.17 9.98,-2.62 9.94,-4.07 9.14,-3.30 8.34,-2.53 7.21,-1.02 6.08,0.48 4.70,2.49 3.32,4.50 1.71,6.59 0.09,8.67 -1.81,10.56 -3.71,12.44 -5.91,13.92 -8.10,15.40 -10.70,16.35 -13.30,17.30 -15.09,17.27 -16.87,17.23 -18.69,16.93 -20.50,16.62 -22.16,15.55 -23.82,14.48 -24.33,12.83 -24.84,11.17 -24.57,9.88 -24.29,8.59 -23.71,7.21 -23.13,5.82 -22.23,4.38 -21.33,2.94 -20.15,1.47 -18.96,-0.00 -17.31,-1.54 -15.65,-3.08 -14.16,-3.94 -12.66,-4.79 -11.04,-5.33 -9.43,-5.87 -7.75,-6.00 -6.08,-6.13 -4.01,-5.49 -1.94,-4.86 -0.99,-4.22 -0.03,-3.58 0.46,-2.34 0.97,-1.10 1.09,-0.97 1.20,-0.84 1.29,-0.68 1.37,-0.52 1.41,-0.35 1.46,-0.18 1.46,-0.00 1.46,0.17 1.42,0.34 1.37,0.51 1.29,0.67 1.21,0.83 1.09,0.96 0.98,1.09 0.83,1.20 0.68,1.30 0.52,1.36 0.35,1.42 0.18,1.45 0.00,1.47 -0.17,1.45 -0.34,1.43 -0.51,1.36 -0.67,1.30 -0.82,1.20 -0.97,1.10 -0.97,1.10 L -0.97,1.10 Z"/></g><g transform="translate(339.58984375 558.61328125) rotate(0 2.935546875 23.63671875)" stroke="none"><path fill="#000000" d="M 1.22,-0.83 Q 1.22,-0.83 2.44,0.12 3.67,1.08 4.41,2.50 5.16,3.93 5.77,5.47 6.38,7.02 6.86,8.73 7.34,10.44 7.72,12.74 8.10,15.04 8.28,17.16 8.45,19.28 8.53,21.39 8.61,23.50 8.56,26.24 8.52,28.98 8.28,31.39 8.03,33.81 7.72,35.85 7.41,37.89 7.02,39.55 6.64,41.20 6.17,42.52 5.70,43.85 5.19,44.91 4.68,45.97 2.36,47.27 0.04,48.56 -0.15,48.48 -0.35,48.41 -0.51,48.27 -0.67,48.14 -0.79,47.96 -0.90,47.77 -0.94,47.57 -0.99,47.36 -0.97,47.15 -0.95,46.94 -0.86,46.74 -0.78,46.55 -0.63,46.39 -0.49,46.24 -0.30,46.14 -0.11,46.04 0.08,46.00 0.29,45.96 0.50,45.99 0.71,46.03 0.90,46.12 1.09,46.22 1.24,46.37 1.39,46.53 1.48,46.72 1.57,46.91 1.59,47.12 1.62,47.33 1.58,47.54 1.53,47.75 1.43,47.93 1.32,48.11 1.16,48.25 1.00,48.39 0.80,48.47 0.60,48.55 0.39,48.57 0.18,48.58 -0.02,48.53 -0.22,48.47 -0.40,48.36 -0.57,48.24 -0.71,48.07 -0.84,47.90 -0.91,47.70 -0.98,47.50 -0.98,47.29 -0.98,47.08 -0.91,46.87 -0.85,46.67 -0.72,46.50 -0.60,46.33 -0.42,46.21 -0.25,46.09 -0.04,46.03 0.15,45.97 0.36,45.98 0.58,45.99 0.58,45.99 0.58,45.99 0.54,43.95 0.50,41.92 0.90,40.90 1.29,39.87 1.67,38.45 2.05,37.02 2.38,35.13 2.71,33.25 2.95,31.06 3.19,28.87 3.26,26.26 3.32,23.66 3.28,21.66 3.23,19.66 3.12,17.75 3.00,15.84 2.70,13.79 2.40,11.74 2.03,10.26 1.67,8.78 1.20,7.44 0.73,6.10 0.21,4.95 -0.30,3.81 -0.76,2.32 -1.22,0.83 -1.30,0.68 -1.38,0.52 -1.42,0.35 -1.47,0.17 -1.47,-0.00 -1.47,-0.18 -1.42,-0.35 -1.38,-0.52 -1.30,-0.68 -1.21,-0.84 -1.09,-0.97 -0.98,-1.11 -0.83,-1.21 -0.68,-1.31 -0.51,-1.37 -0.35,-1.43 -0.17,-1.46 0.00,-1.48 0.17,-1.45 0.35,-1.43 0.52,-1.37 0.69,-1.31 0.83,-1.20 0.98,-1.10 1.10,-0.97 1.22,-0.83 1.22,-0.83 L 1.22,-0.83 Z"/></g></svg>