<svg version="1.1" xmlns="http://www.w3.org/2000/svg" viewBox="0 0 535.0859375 466.49609375" width="1070.171875" height="932.9921875">
  <!-- svg-source:excalidraw -->
  
  <defs>
    <style>
      @font-face {
        font-family: "Virgil";
        src: url("https://unpkg.com/@zsviczian/excalidraw@0.12.0-obsidian-8/dist/excalidraw-assets/Virgil.woff2");
      }
      @font-face {
        font-family: "Cascadia";
        src: url("https://unpkg.com/@zsviczian/excalidraw@0.12.0-obsidian-8/dist/excalidraw-assets/Cascadia.woff2");
      }
    </style>
  </defs>
  <rect x="0" y="0" width="535.0859375" height="466.49609375" fill="#ffffff"/><g stroke-linecap="round"><g transform="translate(58.03515625 10) rotate(0 -1.232421875 223.248046875)"><path d="M0.37 -1.16 C0.24 73.05, -1.64 371.34, -1.98 445.99 M-0.89 0.84 C-1.03 75.15, -2.49 372.71, -2.68 447.27" stroke="#000000" stroke-width="0.5" fill="none"/></g></g><g stroke-linecap="round"><g transform="translate(10 418.03125) rotate(0 247.12109375 -0.8046875)"><path d="M-0.47 -0.51 C81.95 -0.9, 412.84 -1.74, 495.33 -1.98 M1.48 -1.82 C83.78 -2.07, 412.89 -0.81, 494.95 -0.64" stroke="#000000" stroke-width="0.5" fill="none"/></g></g><g transform="translate(87.78125 344.234375) rotate(0 0 -0.23828125)" stroke="none"><path fill="#000000" d="M 0.75,-0.23 Q 0.75,-0.23 0.76,-0.04 0.77,0.14 0.69,0.31 0.62,0.48 0.47,0.60 0.32,0.71 0.13,0.75 -0.04,0.78 -0.22,0.73 -0.40,0.67 -0.54,0.54 -0.67,0.40 -0.73,0.22 -0.78,0.04 -0.75,-0.13 -0.71,-0.32 -0.60,-0.47 -0.48,-0.62 -0.31,-0.69 -0.14,-0.77 0.04,-0.76 0.23,-0.75 0.39,-0.65 0.55,-0.55 0.65,-0.39 L 0.75,-0.23 Z"/></g><g transform="translate(94.6953125 373.98046875) rotate(0 194.306640625 -141.962890625)" stroke="none"><path fill="#000000" d="M -0.47,-0.47 Q -0.47,-0.47 -0.18,-1.25 0.09,-2.04 0.53,-3.10 0.98,-4.17 1.94,-7.05 2.90,-9.94 3.91,-13.25 4.92,-16.55 5.91,-20.23 6.90,-23.91 7.91,-27.95 8.92,-31.99 10.10,-37.51 11.28,-43.02 12.26,-47.82 13.25,-52.62 14.25,-56.94 15.24,-61.26 16.44,-65.16 17.63,-69.07 19.05,-72.69 20.47,-76.32 22.63,-80.89 24.79,-85.46 26.88,-89.55 28.97,-93.64 31.09,-97.52 33.21,-101.40 35.34,-105.07 37.47,-108.74 40.67,-113.40 43.86,-118.06 47.05,-122.31 50.24,-126.55 53.41,-130.80 56.58,-135.04 59.53,-139.42 62.49,-143.81 65.04,-148.17 67.58,-152.54 69.75,-156.57 71.92,-160.60 74.38,-164.95 76.84,-169.30 79.17,-172.88 81.49,-176.45 84.15,-179.79 86.81,-183.13 91.03,-187.40 95.24,-191.66 99.07,-195.29 102.90,-198.91 106.39,-202.09 109.87,-205.27 113.13,-208.15 116.38,-211.03 119.76,-213.72 123.13,-216.41 128.14,-219.84 133.15,-223.27 137.78,-226.32 142.40,-229.38 146.83,-232.21 151.25,-235.04 155.36,-237.60 159.48,-240.17 164.08,-243.11 168.68,-246.04 172.58,-248.47 176.48,-250.89 180.64,-253.07 184.80,-255.24 190.13,-257.41 195.46,-259.59 200.79,-261.46 206.11,-263.33 209.95,-264.59 213.80,-265.85 217.82,-267.00 221.85,-268.14 224.99,-268.95 228.12,-269.76 230.89,-270.46 233.66,-271.16 237.47,-272.06 241.27,-272.96 244.75,-273.73 248.22,-274.49 251.55,-275.20 254.88,-275.90 258.59,-276.67 262.29,-277.43 266.96,-278.30 271.62,-279.17 276.07,-279.93 280.51,-280.68 284.62,-281.27 288.72,-281.87 291.21,-282.17 293.70,-282.48 295.04,-282.67 296.38,-282.85 297.35,-283.03 298.32,-283.21 300.35,-283.62 302.38,-284.02 304.86,-284.39 307.35,-284.76 309.98,-285.03 312.61,-285.30 314.97,-285.44 317.33,-285.58 319.06,-285.67 320.80,-285.76 322.37,-285.85 323.94,-285.94 325.36,-286.03 326.79,-286.12 328.40,-286.19 330.01,-286.26 331.74,-286.29 333.47,-286.32 335.69,-286.36 337.92,-286.40 339.76,-286.44 341.60,-286.48 343.17,-286.53 344.74,-286.58 346.17,-286.62 347.59,-286.67 348.87,-286.69 350.15,-286.71 351.48,-286.72 352.81,-286.72 353.87,-286.73 354.93,-286.73 356.06,-286.73 357.19,-286.74 358.54,-286.74 359.89,-286.74 361.67,-286.74 363.44,-286.74 364.66,-286.74 365.87,-286.74 366.69,-286.74 367.51,-286.74 368.18,-286.74 368.85,-286.74 369.60,-286.74 370.35,-286.74 371.43,-286.74 372.51,-286.74 373.36,-286.74 374.20,-286.74 374.80,-286.74 375.40,-286.74 376.92,-286.65 378.44,-286.56 379.35,-286.47 380.25,-286.38 380.93,-286.31 381.60,-286.25 382.22,-286.17 382.83,-286.09 383.77,-285.79 384.72,-285.50 385.45,-285.21 386.18,-284.92 386.89,-284.58 387.61,-284.25 388.14,-283.93 388.67,-283.61 389.06,-282.10 389.46,-280.60 386.88,-279.11 384.29,-277.62 384.20,-277.58 384.10,-277.53 384.00,-277.52 383.89,-277.51 383.79,-277.53 383.68,-277.55 383.59,-277.61 383.50,-277.66 383.43,-277.74 383.36,-277.82 383.32,-277.92 383.28,-278.02 383.28,-278.13 383.27,-278.23 383.30,-278.34 383.33,-278.44 383.39,-278.53 383.45,-278.61 383.53,-278.68 383.62,-278.74 383.72,-278.78 383.82,-278.81 383.92,-278.81 384.03,-278.81 384.13,-278.78 384.23,-278.74 384.32,-278.68 384.40,-278.62 384.46,-278.53 384.52,-278.44 384.55,-278.34 384.58,-278.24 384.57,-278.13 384.57,-278.02 384.53,-277.92 384.49,-277.83 384.42,-277.74 384.35,-277.66 384.26,-277.61 384.17,-277.55 384.07,-277.53 383.96,-277.51 383.86,-277.52 383.75,-277.53 383.65,-277.57 383.56,-277.62 383.48,-277.69 383.40,-277.76 383.35,-277.86 383.30,-277.95 383.29,-278.06 383.27,-278.16 383.29,-278.27 383.30,-278.37 383.35,-278.47 383.40,-278.56 383.48,-278.63 383.56,-278.71 383.56,-278.71 383.56,-278.71 385.53,-280.32 387.50,-281.93 387.37,-281.40 387.24,-280.86 386.75,-281.07 386.26,-281.29 385.62,-281.57 384.97,-281.86 384.29,-282.13 383.60,-282.39 383.02,-282.58 382.43,-282.77 381.86,-282.85 381.29,-282.93 380.60,-282.99 379.92,-283.06 379.04,-283.14 378.16,-283.23 376.78,-283.30 375.40,-283.37 374.80,-283.37 374.20,-283.37 373.36,-283.37 372.51,-283.37 371.43,-283.37 370.35,-283.37 369.60,-283.37 368.85,-283.37 368.18,-283.37 367.51,-283.37 366.69,-283.37 365.87,-283.37 364.66,-283.37 363.44,-283.38 361.67,-283.37 359.89,-283.37 358.54,-283.37 357.19,-283.37 356.07,-283.37 354.94,-283.37 353.89,-283.37 352.83,-283.37 351.52,-283.36 350.20,-283.35 348.95,-283.33 347.70,-283.31 346.27,-283.26 344.83,-283.22 343.26,-283.17 341.68,-283.13 339.83,-283.08 337.98,-283.04 335.75,-283.00 333.53,-282.96 331.84,-282.93 330.15,-282.90 328.58,-282.84 327.01,-282.77 325.57,-282.68 324.13,-282.59 322.55,-282.49 320.96,-282.40 319.25,-282.32 317.53,-282.23 315.24,-282.10 312.95,-281.96 310.39,-281.70 307.84,-281.44 305.44,-281.09 303.03,-280.73 300.98,-280.32 298.94,-279.91 297.89,-279.72 296.84,-279.52 295.48,-279.34 294.12,-279.15 291.66,-278.85 289.20,-278.54 285.14,-277.96 281.07,-277.37 276.65,-276.62 272.24,-275.87 267.61,-275.01 262.97,-274.14 259.27,-273.38 255.58,-272.61 252.26,-271.91 248.94,-271.21 245.49,-270.45 242.04,-269.69 238.26,-268.80 234.48,-267.90 231.72,-267.21 228.96,-266.51 225.86,-265.71 222.77,-264.90 218.81,-263.78 214.84,-262.66 211.03,-261.41 207.23,-260.16 201.98,-258.31 196.73,-256.47 191.55,-254.36 186.36,-252.25 182.31,-250.14 178.26,-248.02 174.38,-245.61 170.50,-243.19 165.88,-240.25 161.27,-237.30 157.17,-234.75 153.07,-232.19 148.67,-229.38 144.26,-226.56 139.66,-223.52 135.06,-220.48 130.15,-217.12 125.24,-213.77 121.93,-211.13 118.62,-208.50 115.39,-205.63 112.15,-202.77 108.69,-199.61 105.23,-196.45 101.44,-192.86 97.65,-189.28 93.55,-185.15 89.45,-181.02 86.89,-177.81 84.33,-174.61 82.06,-171.12 79.79,-167.63 77.35,-163.31 74.90,-158.99 72.70,-154.91 70.50,-150.83 67.90,-146.38 65.29,-141.92 62.29,-137.47 59.28,-133.02 56.11,-128.77 52.93,-124.53 49.78,-120.34 46.63,-116.15 43.50,-111.61 40.37,-107.06 38.26,-103.42 36.14,-99.79 34.04,-95.96 31.93,-92.13 29.85,-88.08 27.77,-84.04 25.64,-79.58 23.50,-75.12 22.12,-71.62 20.73,-68.11 19.55,-64.32 18.37,-60.54 17.37,-56.25 16.37,-51.97 15.36,-47.16 14.35,-42.35 13.13,-36.80 11.90,-31.24 10.86,-27.18 9.82,-23.11 8.79,-19.39 7.76,-15.67 6.71,-12.33 5.66,-8.99 4.60,-5.98 3.54,-2.96 2.81,-1.54 2.08,-0.13 1.27,0.16 0.47,0.47 0.40,0.52 0.34,0.57 0.27,0.60 0.19,0.63 0.11,0.65 0.04,0.66 -0.03,0.66 -0.12,0.65 -0.19,0.63 -0.27,0.60 -0.34,0.56 -0.41,0.52 -0.46,0.46 -0.52,0.41 -0.56,0.34 -0.60,0.27 -0.63,0.19 -0.65,0.12 -0.66,0.03 -0.66,-0.04 -0.65,-0.11 -0.63,-0.19 -0.60,-0.27 -0.57,-0.34 -0.52,-0.40 -0.47,-0.47 -0.47,-0.47 L -0.47,-0.47 Z"/></g><g transform="translate(509.83203125 88.0625) rotate(0 -5.68359375 12.505859375)" stroke="none"><path fill="#000000" d="M 0.87,0.29 Q 0.87,0.29 0.35,2.11 -0.16,3.93 -0.98,6.14 -1.80,8.35 -3.14,11.43 -4.47,14.51 -5.67,16.87 -6.88,19.24 -8.68,21.99 -10.48,24.74 -10.55,24.82 -10.61,24.91 -10.70,24.97 -10.78,25.03 -10.89,25.06 -10.99,25.09 -11.10,25.08 -11.20,25.08 -11.30,25.04 -11.40,25.00 -11.48,24.93 -11.56,24.87 -11.62,24.77 -11.67,24.68 -11.70,24.58 -11.72,24.48 -11.71,24.37 -11.70,24.27 -11.66,24.17 -11.61,24.07 -11.54,23.99 -11.47,23.92 -11.38,23.87 -11.28,23.82 -11.18,23.80 -11.07,23.78 -10.97,23.80 -10.86,23.81 -10.77,23.86 -10.67,23.91 -10.60,23.99 -10.53,24.06 -10.48,24.16 -10.44,24.25 -10.42,24.36 -10.41,24.47 -10.43,24.57 -10.45,24.67 -10.51,24.76 -10.56,24.86 -10.64,24.93 -10.72,25.00 -10.82,25.04 -10.92,25.08 -11.03,25.08 -11.13,25.09 -11.23,25.06 -11.34,25.03 -11.42,24.98 -11.51,24.92 -11.58,24.83 -11.64,24.75 -11.68,24.65 -11.71,24.55 -11.71,24.44 -11.72,24.34 -11.68,24.23 -11.65,24.13 -11.65,24.13 -11.65,24.13 -10.28,21.17 -8.91,18.20 -7.73,15.90 -6.55,13.60 -5.22,10.58 -3.88,7.56 -3.05,5.40 -2.22,3.25 -1.54,1.48 -0.87,-0.29 -0.82,-0.39 -0.77,-0.49 -0.70,-0.57 -0.63,-0.66 -0.54,-0.72 -0.46,-0.79 -0.35,-0.83 -0.25,-0.88 -0.14,-0.90 -0.03,-0.91 0.07,-0.91 0.18,-0.90 0.28,-0.86 0.39,-0.83 0.48,-0.77 0.58,-0.71 0.65,-0.63 0.73,-0.55 0.79,-0.45 0.84,-0.36 0.87,-0.25 0.90,-0.14 0.91,-0.03 0.91,0.07 0.89,0.18 0.87,0.29 0.87,0.29 L 0.87,0.29 Z"/></g><g transform="translate(507.1796875 89.10546875) rotate(0 4.263671875 13.974609375)" stroke="none"><path fill="#000000" d="M -0.22,-0.77 Q -0.22,-0.77 1.11,-1.34 2.45,-1.90 3.61,-2.20 4.76,-2.51 5.98,-2.70 7.20,-2.89 8.81,-2.97 10.43,-3.06 11.74,-3.04 13.05,-3.01 14.26,-2.60 15.48,-2.19 16.43,-1.39 17.38,-0.59 17.89,0.50 18.39,1.59 18.21,3.14 18.04,4.68 16.89,5.93 15.74,7.18 13.95,8.02 12.16,8.87 10.33,9.30 8.49,9.73 7.00,9.91 5.52,10.09 4.63,9.88 3.73,9.67 3.60,9.44 3.46,9.21 3.33,9.16 3.20,9.11 3.08,9.03 2.97,8.96 2.87,8.85 2.78,8.75 2.71,8.63 2.65,8.51 2.61,8.37 2.58,8.24 2.58,8.10 2.57,7.96 2.61,7.83 2.64,7.69 2.70,7.57 2.76,7.44 2.85,7.34 2.94,7.23 3.06,7.15 3.17,7.07 3.30,7.02 3.43,6.97 3.57,6.95 3.71,6.93 3.84,6.95 3.98,6.96 5.09,6.52 6.20,6.09 7.90,6.30 9.59,6.51 11.14,7.32 12.68,8.13 13.89,9.41 15.10,10.70 15.77,12.27 16.43,13.84 16.42,15.94 16.40,18.04 15.74,19.77 15.08,21.50 13.88,22.97 12.69,24.43 11.01,25.72 9.34,27.01 7.35,28.05 5.37,29.08 2.84,29.71 0.32,30.35 -1.65,30.36 -3.63,30.38 -6.15,28.46 -8.68,26.54 -8.76,26.46 -8.83,26.39 -8.89,26.30 -8.94,26.20 -8.96,26.10 -8.97,26.00 -8.96,25.89 -8.94,25.79 -8.89,25.69 -8.85,25.60 -8.77,25.52 -8.69,25.45 -8.60,25.40 -8.50,25.36 -8.40,25.34 -8.29,25.33 -8.19,25.35 -8.08,25.37 -7.99,25.43 -7.90,25.48 -7.83,25.56 -7.76,25.64 -7.72,25.74 -7.68,25.84 -7.67,25.94 -7.66,26.05 -7.69,26.15 -7.72,26.25 -7.78,26.34 -7.83,26.43 -7.92,26.50 -8.00,26.56 -8.10,26.60 -8.20,26.63 -8.31,26.63 -8.41,26.64 -8.52,26.60 -8.62,26.57 -8.70,26.51 -8.79,26.44 -8.85,26.36 -8.91,26.27 -8.94,26.17 -8.97,26.07 -8.96,25.96 -8.96,25.85 -8.92,25.76 -8.88,25.66 -8.82,25.57 -8.75,25.49 -8.66,25.44 -8.57,25.38 -8.47,25.36 -8.36,25.33 -8.26,25.34 -8.15,25.35 -8.05,25.39 -7.96,25.44 -7.96,25.44 -7.96,25.44 -5.69,26.67 -3.42,27.89 -1.84,27.86 -0.27,27.82 1.98,27.31 4.23,26.80 6.04,25.90 7.85,25.00 9.36,23.93 10.86,22.86 11.88,21.72 12.91,20.58 13.50,19.25 14.09,17.92 14.19,16.27 14.30,14.62 13.84,13.41 13.39,12.20 12.46,11.16 11.54,10.13 10.38,9.45 9.22,8.78 7.89,8.57 6.55,8.36 5.88,8.43 5.21,8.51 4.33,8.86 3.46,9.21 3.33,9.16 3.20,9.11 3.08,9.03 2.97,8.96 2.87,8.85 2.78,8.75 2.71,8.63 2.65,8.51 2.61,8.37 2.58,8.24 2.58,8.10 2.57,7.96 2.61,7.83 2.64,7.69 2.70,7.57 2.76,7.44 2.85,7.34 2.94,7.23 3.06,7.15 3.17,7.07 3.30,7.02 3.43,6.97 3.57,6.95 3.70,6.93 3.84,6.95 3.98,6.96 4.64,7.37 5.29,7.79 6.63,7.63 7.97,7.47 9.59,7.11 11.21,6.74 12.67,6.10 14.14,5.46 15.01,4.76 15.88,4.05 16.08,3.18 16.29,2.31 16.04,1.69 15.79,1.06 15.22,0.52 14.64,-0.01 13.80,-0.33 12.97,-0.64 11.75,-0.67 10.54,-0.69 9.04,-0.63 7.54,-0.56 6.43,-0.41 5.32,-0.25 4.21,0.00 3.09,0.27 1.66,0.52 0.22,0.77 0.13,0.79 0.03,0.80 -0.06,0.80 -0.15,0.79 -0.25,0.76 -0.34,0.73 -0.42,0.68 -0.50,0.62 -0.57,0.55 -0.64,0.48 -0.69,0.40 -0.74,0.32 -0.77,0.22 -0.79,0.13 -0.80,0.03 -0.80,-0.06 -0.78,-0.15 -0.76,-0.25 -0.72,-0.34 -0.68,-0.42 -0.62,-0.50 -0.56,-0.58 -0.48,-0.64 -0.40,-0.69 -0.31,-0.73 -0.22,-0.77 -0.22,-0.77 L -0.22,-0.77 Z"/></g><g transform="translate(87.875 381.0859375) rotate(0 -4.21484375 11.888671875)" stroke="none"><path fill="#000000" d="M 0.73,-0.03 Q 0.73,-0.03 1.04,1.04 1.35,2.12 1.15,3.45 0.96,4.78 0.08,6.90 -0.80,9.03 -1.80,11.05 -2.80,13.07 -3.67,14.91 -4.55,16.75 -5.22,18.31 -5.88,19.86 -7.07,21.72 -8.26,23.57 -8.37,23.60 -8.47,23.64 -8.57,23.63 -8.68,23.63 -8.78,23.60 -8.88,23.56 -8.96,23.50 -9.05,23.43 -9.10,23.34 -9.16,23.25 -9.19,23.15 -9.21,23.05 -9.21,22.94 -9.20,22.83 -9.16,22.74 -9.12,22.64 -9.05,22.56 -8.98,22.48 -8.88,22.43 -8.79,22.37 -8.69,22.35 -8.58,22.33 -8.48,22.34 -8.37,22.36 -8.28,22.40 -8.18,22.45 -8.11,22.52 -8.03,22.60 -7.98,22.69 -7.93,22.79 -7.92,22.89 -7.90,23.00 -7.92,23.10 -7.94,23.21 -7.99,23.30 -8.05,23.39 -8.12,23.47 -8.20,23.54 -8.30,23.58 -8.40,23.62 -8.50,23.63 -8.61,23.64 -8.71,23.62 -8.82,23.59 -8.91,23.54 -9.00,23.48 -9.06,23.40 -9.13,23.31 -9.17,23.22 -9.20,23.12 -9.21,23.01 -9.21,22.90 -9.18,22.80 -9.15,22.70 -9.09,22.61 -9.03,22.53 -8.94,22.46 -8.86,22.40 -8.86,22.40 -8.86,22.40 -8.54,20.63 -8.22,18.86 -7.54,17.26 -6.85,15.66 -5.96,13.80 -5.07,11.94 -4.10,9.98 -3.13,8.03 -2.32,6.20 -1.52,4.36 -1.32,3.30 -1.13,2.23 -0.93,1.13 -0.73,0.03 -0.73,-0.05 -0.72,-0.14 -0.69,-0.22 -0.67,-0.31 -0.62,-0.38 -0.57,-0.46 -0.51,-0.52 -0.45,-0.58 -0.37,-0.63 -0.29,-0.67 -0.21,-0.70 -0.12,-0.72 -0.03,-0.73 0.05,-0.73 0.13,-0.72 0.22,-0.70 0.30,-0.66 0.38,-0.63 0.45,-0.57 0.52,-0.51 0.58,-0.44 0.63,-0.37 0.67,-0.29 0.70,-0.21 0.72,-0.12 0.73,-0.03 0.73,-0.03 L 0.73,-0.03 Z"/></g><g transform="translate(87.78125 383.92578125) rotate(0 2.3203125 8.1953125)" stroke="none"><path fill="#000000" d="M 0.74,-0.35 Q 0.74,-0.35 1.38,0.61 2.01,1.58 2.43,3.12 2.85,4.67 3.23,6.34 3.61,8.00 4.07,9.86 4.53,11.73 4.87,13.83 5.20,15.93 5.22,16.03 5.24,16.14 5.23,16.24 5.22,16.35 5.17,16.44 5.12,16.54 5.05,16.62 4.98,16.69 4.88,16.74 4.79,16.79 4.68,16.80 4.58,16.82 4.47,16.80 4.37,16.78 4.27,16.73 4.18,16.68 4.11,16.60 4.04,16.52 3.99,16.43 3.95,16.33 3.94,16.22 3.93,16.12 3.96,16.01 3.98,15.91 4.04,15.82 4.09,15.73 4.18,15.66 4.26,15.60 4.36,15.56 4.46,15.52 4.56,15.52 4.67,15.51 4.77,15.54 4.87,15.57 4.96,15.63 5.05,15.69 5.11,15.78 5.17,15.86 5.20,15.97 5.24,16.07 5.23,16.17 5.23,16.28 5.20,16.38 5.16,16.48 5.10,16.56 5.03,16.65 4.94,16.71 4.85,16.76 4.75,16.79 4.65,16.82 4.54,16.81 4.44,16.80 4.34,16.76 4.24,16.72 4.16,16.65 4.08,16.58 4.03,16.49 3.97,16.40 3.97,16.40 3.97,16.40 3.11,14.34 2.25,12.29 1.79,10.40 1.33,8.52 0.96,6.89 0.59,5.25 0.26,3.90 -0.05,2.55 -0.40,1.45 -0.74,0.35 -0.77,0.25 -0.80,0.16 -0.81,0.06 -0.82,-0.03 -0.80,-0.13 -0.78,-0.22 -0.74,-0.32 -0.71,-0.41 -0.65,-0.49 -0.59,-0.56 -0.51,-0.63 -0.43,-0.69 -0.34,-0.73 -0.25,-0.77 -0.16,-0.79 -0.06,-0.81 0.03,-0.81 0.13,-0.81 0.22,-0.78 0.32,-0.75 0.40,-0.70 0.49,-0.65 0.56,-0.58 0.63,-0.51 0.68,-0.43 0.74,-0.35 0.74,-0.35 L 0.74,-0.35 Z"/></g><g transform="translate(79.7265625 394.91796875) rotate(0 7.626953125 -0.474609375)" stroke="none"><path fill="#000000" d="M -0.22,-0.77 Q -0.22,-0.77 0.63,-1.26 1.50,-1.75 2.82,-1.90 4.15,-2.05 5.90,-2.12 7.66,-2.18 8.99,-2.20 10.33,-2.22 12.88,-1.91 15.43,-1.60 15.53,-1.58 15.64,-1.57 15.73,-1.52 15.83,-1.47 15.90,-1.39 15.97,-1.31 16.02,-1.22 16.06,-1.12 16.08,-1.02 16.09,-0.91 16.07,-0.81 16.04,-0.70 15.99,-0.61 15.93,-0.52 15.85,-0.45 15.77,-0.38 15.67,-0.34 15.58,-0.30 15.47,-0.30 15.36,-0.29 15.26,-0.32 15.16,-0.35 15.07,-0.41 14.98,-0.46 14.92,-0.55 14.85,-0.63 14.82,-0.73 14.78,-0.83 14.78,-0.94 14.78,-1.05 14.82,-1.15 14.85,-1.25 14.91,-1.33 14.98,-1.42 15.07,-1.48 15.15,-1.54 15.26,-1.57 15.36,-1.60 15.46,-1.59 15.57,-1.58 15.67,-1.55 15.77,-1.51 15.85,-1.44 15.93,-1.37 15.99,-1.28 16.04,-1.19 16.06,-1.08 16.09,-0.98 16.08,-0.88 16.07,-0.77 16.02,-0.67 15.98,-0.58 15.90,-0.50 15.83,-0.42 15.74,-0.37 15.64,-0.32 15.54,-0.30 15.43,-0.29 15.43,-0.29 15.43,-0.29 12.90,0.04 10.37,0.39 9.05,0.41 7.73,0.43 6.06,0.46 4.39,0.50 3.30,0.58 2.20,0.65 1.21,0.71 0.22,0.77 0.13,0.79 0.03,0.81 -0.06,0.80 -0.15,0.79 -0.25,0.76 -0.34,0.73 -0.42,0.68 -0.51,0.63 -0.57,0.56 -0.64,0.49 -0.69,0.40 -0.74,0.32 -0.77,0.22 -0.80,0.13 -0.80,0.03 -0.80,-0.06 -0.78,-0.15 -0.77,-0.25 -0.72,-0.34 -0.68,-0.43 -0.62,-0.50 -0.56,-0.58 -0.48,-0.64 -0.40,-0.70 -0.31,-0.73 -0.22,-0.77 -0.22,-0.77 L -0.22,-0.77 Z"/></g><g stroke-linecap="round"><g transform="translate(92.80078125 378.0546875) rotate(0 192.126953125 -142.720703125)"><path d="M-0.89 -0.7 C62.99 -48.51, 319.15 -239.09, 383.19 -286.48 M0.84 1.55 C65.09 -46.19, 321.18 -237.36, 385.34 -285.49" stroke="#000000" stroke-width="0.5" fill="none"/></g></g><g stroke-linecap="round"><g transform="translate(397.3828125 14.4609375) rotate(0 -183.126953125 144.423828125)"><path d="M0.84 1.19 C-60.22 49.46, -305.38 242.14, -366.44 290.01 M-0.18 0.76 C-61.41 48.7, -306.53 240.37, -367.49 288.49" stroke="#000000" stroke-width="0.5" fill="none"/></g></g><g transform="translate(217.5703125 156.9375) rotate(0 -2.55859375 3.98046875)" stroke="none"><path fill="#000000" d="M 0.69,0.27 Q 0.69,0.27 0.69,0.83 0.68,1.39 0.02,2.33 -0.62,3.26 -1.38,3.75 -2.13,4.23 -3.02,4.35 -3.91,4.47 -4.79,3.90 -5.68,3.34 -5.79,2.76 -5.90,2.18 -5.68,1.49 -5.46,0.80 -4.77,0.17 -4.08,-0.45 -3.43,-0.77 -2.77,-1.09 -2.12,-1.23 -1.47,-1.37 -0.23,-1.26 0.99,-1.16 1.57,-0.39 2.15,0.37 2.36,1.40 2.56,2.42 2.63,3.48 2.69,4.53 2.57,5.52 2.45,6.51 1.88,7.49 1.31,8.48 0.56,9.04 -0.18,9.61 -1.02,9.86 -1.87,10.12 -2.77,10.05 -3.66,9.98 -4.51,9.46 -5.36,8.94 -6.04,7.89 -6.72,6.83 -7.07,5.86 -7.42,4.89 -7.57,4.04 -7.72,3.18 -7.58,2.28 -7.43,1.38 -6.62,0.46 -5.80,-0.46 -5.05,-0.93 -4.30,-1.40 -3.58,-1.64 -2.85,-1.89 -2.16,-1.98 -1.46,-2.07 -0.64,-1.76 0.17,-1.45 0.79,-0.47 1.41,0.51 1.63,1.38 1.85,2.25 1.93,2.92 2.02,3.60 1.98,4.21 1.95,4.83 1.53,5.51 1.11,6.20 0.30,6.72 -0.49,7.24 -1.16,7.50 -1.83,7.77 -3.33,7.43 -4.83,7.10 -4.96,6.39 -5.10,5.68 -5.09,4.67 -5.09,3.66 -4.78,2.60 -4.47,1.54 -4.10,0.74 -3.72,-0.06 -3.32,-0.60 -2.92,-1.15 -2.53,-1.50 -2.15,-1.84 -2.04,-1.92 -1.93,-2.00 -1.81,-2.06 -1.69,-2.11 -1.55,-2.13 -1.42,-2.16 -1.28,-2.15 -1.15,-2.14 -1.02,-2.10 -0.89,-2.05 -0.78,-1.98 -0.66,-1.91 -0.57,-1.81 -0.47,-1.72 -0.40,-1.60 -0.34,-1.48 -0.30,-1.35 -0.26,-1.22 -0.25,-1.09 -0.25,-0.95 -0.27,-0.82 -0.30,-0.69 -0.35,-0.56 -0.41,-0.44 -0.50,-0.34 -0.58,-0.23 -0.77,-0.12 -0.96,-0.01 -0.87,-0.07 -0.78,-0.12 -0.68,-0.15 -0.58,-0.18 -0.47,-0.17 -0.36,-0.16 -0.27,-0.12 -0.17,-0.07 -0.09,-0.00 -0.01,0.06 0.03,0.15 0.08,0.24 0.10,0.35 0.12,0.45 0.11,0.56 0.10,0.66 0.05,0.76 0.00,0.85 -0.06,0.93 -0.14,1.00 -0.23,1.05 -0.33,1.10 -0.43,1.11 -0.54,1.13 -0.64,1.11 -0.75,1.09 -0.84,1.03 -0.93,0.98 -1.00,0.90 -1.08,0.82 -1.12,0.73 -1.16,0.63 -1.17,0.52 -1.18,0.42 -1.15,0.31 -1.13,0.21 -1.07,0.12 -1.01,0.03 -0.93,-0.03 -0.85,-0.09 -0.75,-0.13 -0.65,-0.17 -0.54,-0.17 -0.43,-0.17 -0.33,-0.14 -0.23,-0.11 -0.14,-0.05 -0.06,0.00 -0.00,0.09 0.06,0.18 0.09,0.28 0.12,0.38 0.12,0.49 0.11,0.59 0.08,0.69 0.04,0.79 -0.02,0.87 -0.08,0.96 -0.08,0.96 -0.08,0.96 -1.12,-0.44 -2.15,-1.84 -2.04,-1.92 -1.93,-2.00 -1.81,-2.06 -1.69,-2.11 -1.55,-2.13 -1.42,-2.16 -1.28,-2.15 -1.15,-2.14 -1.02,-2.10 -0.89,-2.05 -0.78,-1.98 -0.66,-1.91 -0.57,-1.81 -0.47,-1.72 -0.40,-1.60 -0.34,-1.48 -0.30,-1.35 -0.26,-1.22 -0.25,-1.09 -0.25,-0.95 -0.27,-0.82 -0.30,-0.69 -0.35,-0.56 -0.41,-0.44 -0.50,-0.34 -0.58,-0.23 -0.68,-0.16 -0.77,-0.10 -1.19,0.40 -1.61,0.90 -1.91,1.57 -2.20,2.24 -2.44,2.97 -2.68,3.70 -2.68,4.48 -2.68,5.27 -2.58,5.94 -2.47,6.61 -2.92,6.08 -3.36,5.55 -2.56,5.31 -1.75,5.08 -1.04,4.47 -0.33,3.87 -0.39,3.32 -0.45,2.77 -0.56,2.17 -0.68,1.57 -1.00,0.90 -1.31,0.23 -2.19,0.44 -3.07,0.65 -3.61,0.96 -4.14,1.26 -4.74,2.04 -5.34,2.82 -5.24,3.46 -5.13,4.10 -4.88,4.86 -4.62,5.62 -4.27,6.33 -3.91,7.04 -3.17,7.40 -2.43,7.76 -1.54,7.44 -0.64,7.12 -0.25,6.61 0.14,6.11 0.24,5.38 0.34,4.66 0.29,3.73 0.24,2.80 0.01,1.83 -0.20,0.85 -1.00,0.95 -1.81,1.04 -2.56,1.57 -3.32,2.09 -2.81,1.88 -2.30,1.68 -1.87,1.12 -1.45,0.56 -1.07,0.14 -0.69,-0.27 -0.65,-0.35 -0.61,-0.43 -0.55,-0.49 -0.49,-0.56 -0.41,-0.61 -0.34,-0.66 -0.25,-0.69 -0.17,-0.73 -0.08,-0.74 0.00,-0.75 0.09,-0.73 0.18,-0.72 0.27,-0.69 0.35,-0.66 0.42,-0.60 0.50,-0.55 0.56,-0.48 0.62,-0.42 0.66,-0.34 0.70,-0.26 0.72,-0.17 0.74,-0.08 0.74,0.00 0.74,0.09 0.72,0.18 0.69,0.27 0.69,0.27 L 0.69,0.27 Z"/></g></svg>