<svg xmlns="http://www.w3.org/2000/svg" viewBox="0 0 1003.27 1070.84"><defs><style>.cls-1,.cls-4{fill:#64c864;}.cls-1{opacity:0.5;}.cls-2,.cls-3,.cls-5,.cls-8{fill:none;stroke-miterlimit:10;}.cls-2,.cls-8{stroke:#e1e1e1;stroke-linecap:square;stroke-width:3px;}.cls-2{stroke-dasharray:24 12;}.cls-3{stroke:#64c864;}.cls-3,.cls-5{stroke-width:5px;}.cls-5{stroke:#c86464;}.cls-6{fill:#c86464;}.cls-7{fill:#e1e1e1;}</style></defs><g id="Laag_2" data-name="Laag 2"><g id="PS"><path class="cls-1" d="M1.77,942.65V542.59h400Z" transform="translate(0 -10.36)"/></g><g id="PUNTEN"><line class="cls-2" x1="401.77" y1="532.29" x2="401.77" y2="1032.29"/><line class="cls-2" x1="1.77" y1="532.29" x2="401.77" y2="532.29"/></g><g id="Qa"><line class="cls-3" x1="1.77" y1="932.29" x2="901.77" y2="32.29"/><path class="cls-4" d="M927.58,71.32A13.33,13.33,0,0,1,923.83,81l5.58,3.81-3.13,3.56-6.91-4.78a13.78,13.78,0,0,1-4,.54c-7.81,0-11.87-5.65-11.87-12.78s4.5-12.74,12.2-12.74C923,58.65,927.58,63.72,927.58,71.32Zm-18.54,0c0,4.86,2.12,8.53,6.51,8.53,4.79,0,6.48-4,6.48-8.42,0-4.72-1.94-8.39-6.55-8.39S909,66.46,909,71.28Z" transform="translate(0 -10.36)"/><path class="cls-4" d="M933.77,92.46l-1.11,3.33h-3.09l4.91-14.45h3.93l5.14,14.45h-3.3l-1.19-3.33Zm4.62-2.56c-1-3.06-1.68-5-2-6.32h0c-.36,1.43-1.07,3.7-1.89,6.32Z" transform="translate(0 -10.36)"/></g><g id="Qv"><line class="cls-5" x1="1.77" y1="132.29" x2="901.77" y2="1032.29"/><path class="cls-6" d="M927.58,1005.16a13.3,13.3,0,0,1-3.75,9.72l5.58,3.82-3.13,3.56-6.91-4.79a13.78,13.78,0,0,1-4,.54c-7.81,0-11.87-5.65-11.87-12.78s4.49-12.74,12.2-12.74C923,992.49,927.58,997.57,927.58,1005.16Zm-18.54,0c0,4.86,2.12,8.53,6.51,8.53,4.79,0,6.48-4,6.48-8.43,0-4.71-1.94-8.38-6.55-8.38S909,1000.3,909,1005.13Z" transform="translate(0 -10.36)"/><path class="cls-6" d="M934.46,1029.64l-5.1-14.45h3.36l2.14,6.67c.67,2,1.15,3.73,1.49,5.22h0a53.25,53.25,0,0,1,1.56-5.18l2.26-6.71h3.19l-5.24,14.45Z" transform="translate(0 -10.36)"/></g><g id="ASLAB."><path class="cls-7" d="M1000.16,1065.52a12.21,12.21,0,0,1-3.44,8.91l5.12,3.5L999,1081.2l-6.34-4.39a12.61,12.61,0,0,1-3.66.49c-7.17,0-10.89-5.18-10.89-11.71s4.12-11.69,11.18-11.69C995.93,1053.9,1000.16,1058.56,1000.16,1065.52Zm-17,0c0,4.45,1.94,7.82,6,7.82,4.39,0,5.94-3.66,5.94-7.72,0-4.33-1.78-7.69-6-7.69S983.16,1061.06,983.16,1065.49Z" transform="translate(0 -10.36)"/><path class="cls-7" d="M3.88,34.39V14.88c0-1.39,0-2.74,0-4.13H8.43A18.78,18.78,0,0,1,8.6,12.9a5.38,5.38,0,0,1,5-2.54c3.86,0,6.8,3.23,6.8,8.51,0,6-3.3,9.38-7.43,9.38-2.41,0-3.66-.93-4.32-1.92v8.06ZM12,14.15c-2.67,0-3.63,1.75-3.63,5.19,0,3.26.89,5.14,3.43,5.14s3.73-1.94,3.73-5.41C15.56,15.94,14.31,14.15,12,14.15Z" transform="translate(0 -10.36)"/></g><g id="Assen"><line class="cls-8" x1="1.77" y1="1032.29" x2="1.77" y2="32.29"/><line class="cls-8" x1="1001.77" y1="1032.29" x2="1.77" y2="1032.29"/></g></g></svg>