<svg version="1.1" xmlns="http://www.w3.org/2000/svg" viewBox="0 0 916.28125 349.9149966032608" width="1832.5625" height="699.8299932065216">
  <!-- svg-source:excalidraw -->
  
  <defs>
    <style>
      @font-face {
        font-family: "Virgil";
        src: url("https://unpkg.com/@zsviczian/excalidraw@0.12.0-obsidian-8/dist/excalidraw-assets/Virgil.woff2");
      }
      @font-face {
        font-family: "Cascadia";
        src: url("https://unpkg.com/@zsviczian/excalidraw@0.12.0-obsidian-8/dist/excalidraw-assets/Cascadia.woff2");
      }
    </style>
  </defs>
  <rect x="0" y="0" width="916.28125" height="349.9149966032608" fill="#ffffff"/><g transform="translate(10 194.26171875) rotate(0 19.89453125 23.921875)" stroke="none"><path fill="#000000" d="M 1.58,-0.96 Q 1.58,-0.96 3.26,1.44 4.93,3.86 7.26,6.93 9.60,10.01 12.81,13.58 16.02,17.14 19.63,20.80 23.24,24.46 26.68,27.82 30.11,31.17 33.18,34.82 36.26,38.47 38.11,42.08 39.95,45.69 40.04,45.89 40.12,46.08 40.14,46.29 40.16,46.50 40.11,46.71 40.06,46.92 39.95,47.10 39.84,47.28 39.67,47.41 39.51,47.54 39.31,47.62 39.11,47.69 38.90,47.70 38.69,47.71 38.48,47.65 38.28,47.59 38.10,47.46 37.93,47.34 37.81,47.17 37.68,47.00 37.62,46.80 37.55,46.59 37.56,46.38 37.56,46.17 37.63,45.97 37.70,45.77 37.84,45.60 37.97,45.44 38.15,45.32 38.32,45.20 38.53,45.15 38.74,45.10 38.95,45.11 39.16,45.13 39.36,45.21 39.55,45.29 39.71,45.44 39.87,45.58 39.98,45.76 40.08,45.94 40.12,46.15 40.17,46.36 40.14,46.57 40.11,46.78 40.02,46.97 39.93,47.16 39.78,47.32 39.63,47.47 39.44,47.56 39.25,47.66 39.04,47.69 38.83,47.72 38.62,47.68 38.41,47.64 38.22,47.54 38.04,47.44 37.89,47.28 37.75,47.12 37.75,47.12 37.75,47.12 35.38,44.23 33.00,41.35 29.87,37.99 26.73,34.63 23.26,31.24 19.79,27.84 16.11,24.08 12.44,20.31 9.14,16.54 5.84,12.76 3.50,9.46 1.16,6.16 -0.21,3.56 -1.58,0.96 -1.67,0.76 -1.77,0.55 -1.81,0.33 -1.85,0.11 -1.83,-0.10 -1.82,-0.32 -1.76,-0.54 -1.69,-0.75 -1.57,-0.94 -1.46,-1.14 -1.30,-1.29 -1.14,-1.45 -0.95,-1.57 -0.76,-1.69 -0.55,-1.75 -0.34,-1.82 -0.11,-1.83 0.10,-1.85 0.32,-1.81 0.54,-1.77 0.75,-1.68 0.95,-1.59 1.13,-1.45 1.30,-1.31 1.44,-1.14 1.58,-0.96 1.58,-0.96 L 1.58,-0.96 Z"/></g><g transform="translate(14.07421875 243.05078125) rotate(0 15.39453125 -28.419921875)" stroke="none"><path fill="#000000" d="M -1.37,-0.56 Q -1.37,-0.56 -0.64,-3.74 0.09,-6.91 2.76,-11.90 5.43,-16.89 8.59,-22.31 11.74,-27.72 14.84,-33.15 17.93,-38.59 20.38,-42.79 22.82,-46.99 24.73,-49.99 26.64,-53.00 27.61,-54.21 28.59,-55.43 28.71,-55.60 28.84,-55.77 29.01,-55.89 29.19,-56.01 29.39,-56.07 29.59,-56.13 29.81,-56.12 30.02,-56.11 30.22,-56.04 30.42,-55.96 30.58,-55.83 30.74,-55.69 30.86,-55.51 30.97,-55.33 31.02,-55.12 31.06,-54.92 31.04,-54.70 31.02,-54.49 30.94,-54.30 30.85,-54.11 30.71,-53.95 30.56,-53.79 30.38,-53.69 30.19,-53.59 29.98,-53.55 29.77,-53.51 29.56,-53.55 29.35,-53.58 29.16,-53.68 28.97,-53.77 28.82,-53.92 28.68,-54.08 28.58,-54.27 28.49,-54.46 28.47,-54.67 28.44,-54.88 28.48,-55.09 28.53,-55.30 28.63,-55.48 28.74,-55.67 28.90,-55.80 29.06,-55.94 29.26,-56.03 29.45,-56.11 29.67,-56.12 29.88,-56.14 30.08,-56.08 30.29,-56.03 30.47,-55.91 30.64,-55.79 30.78,-55.63 30.91,-55.46 30.98,-55.26 31.05,-55.06 31.05,-54.84 31.05,-54.63 30.99,-54.43 30.92,-54.23 30.92,-54.23 30.92,-54.23 30.50,-52.73 30.08,-51.23 28.71,-47.84 27.34,-44.46 25.01,-40.16 22.69,-35.87 19.57,-30.42 16.44,-24.96 13.30,-19.62 10.15,-14.29 7.48,-9.62 4.81,-4.96 3.09,-2.19 1.37,0.56 1.28,0.72 1.20,0.88 1.07,1.01 0.95,1.14 0.80,1.24 0.65,1.33 0.48,1.39 0.31,1.45 0.13,1.47 -0.04,1.48 -0.22,1.46 -0.39,1.43 -0.56,1.36 -0.73,1.29 -0.87,1.19 -1.01,1.08 -1.13,0.94 -1.25,0.81 -1.32,0.64 -1.40,0.48 -1.44,0.31 -1.48,0.13 -1.47,-0.04 -1.47,-0.22 -1.42,-0.39 -1.37,-0.56 -1.37,-0.56 L -1.37,-0.56 Z"/></g><g transform="translate(339.4921875 189.05078125) rotate(0 12.6484375 40.40625)" stroke="none"><path fill="#000000" d="M 1.97,0.13 Q 1.97,0.13 1.98,3.28 1.99,6.42 2.37,8.70 2.75,10.98 3.73,12.64 4.71,14.30 5.70,14.88 6.69,15.47 8.06,15.46 9.44,15.45 11.64,14.52 13.84,13.59 17.88,11.28 21.91,8.98 25.11,7.12 28.30,5.27 30.27,4.19 32.23,3.11 33.32,2.62 34.41,2.13 34.66,2.20 34.91,2.27 35.21,2.17 35.51,2.06 35.83,2.03 36.15,2.00 36.46,2.04 36.78,2.09 37.08,2.21 37.38,2.33 37.64,2.52 37.90,2.70 38.10,2.95 38.31,3.19 38.45,3.48 38.60,3.77 38.67,4.08 38.74,4.39 38.73,4.71 38.72,5.03 38.64,5.34 38.55,5.65 38.40,5.93 38.24,6.21 38.03,6.45 37.81,6.68 37.54,6.86 37.27,7.03 37.06,8.47 36.85,9.91 34.64,13.52 32.42,17.14 27.96,22.92 23.50,28.70 17.66,36.03 11.81,43.35 6.51,51.08 1.20,58.81 -1.37,63.37 -3.96,67.93 -5.24,70.94 -6.53,73.95 -8.10,76.86 -9.68,79.77 -9.78,79.96 -9.87,80.15 -10.02,80.30 -10.17,80.45 -10.36,80.55 -10.55,80.65 -10.76,80.68 -10.97,80.71 -11.17,80.67 -11.38,80.63 -11.57,80.53 -11.76,80.42 -11.90,80.27 -12.04,80.11 -12.13,79.92 -12.21,79.72 -12.23,79.51 -12.25,79.30 -12.20,79.09 -12.15,78.88 -12.04,78.70 -11.93,78.52 -11.76,78.39 -11.60,78.26 -11.40,78.18 -11.20,78.11 -10.99,78.10 -10.77,78.09 -10.57,78.15 -10.37,78.21 -10.19,78.34 -10.02,78.46 -9.89,78.63 -9.77,78.80 -9.71,79.00 -9.64,79.21 -9.65,79.42 -9.65,79.63 -9.72,79.83 -9.79,80.03 -9.92,80.20 -10.06,80.36 -10.23,80.48 -10.41,80.60 -10.62,80.65 -10.82,80.70 -11.04,80.69 -11.25,80.67 -11.44,80.59 -11.64,80.51 -11.80,80.37 -11.96,80.22 -12.06,80.04 -12.17,79.86 -12.21,79.65 -12.25,79.44 -12.23,79.23 -12.20,79.02 -12.20,79.02 -12.20,79.02 -11.87,75.51 -11.53,72.01 -10.30,68.53 -9.07,65.06 -6.38,60.25 -3.70,55.44 1.73,47.54 7.18,39.64 13.02,32.36 18.87,25.09 23.22,19.58 27.56,14.07 29.65,10.87 31.73,7.67 33.32,4.97 34.91,2.27 35.21,2.17 35.51,2.06 35.83,2.03 36.15,2.00 36.46,2.04 36.78,2.09 37.08,2.21 37.38,2.33 37.64,2.52 37.90,2.70 38.10,2.95 38.31,3.19 38.45,3.48 38.60,3.77 38.67,4.08 38.74,4.39 38.73,4.71 38.72,5.03 38.64,5.34 38.55,5.65 38.40,5.93 38.24,6.21 38.03,6.45 37.81,6.68 37.54,6.86 37.27,7.03 36.03,7.41 34.79,7.79 32.87,8.83 30.96,9.87 27.73,11.73 24.50,13.59 20.06,16.04 15.63,18.49 12.40,19.53 9.17,20.57 6.60,20.19 4.04,19.81 2.16,18.37 0.29,16.93 -0.97,14.35 -2.25,11.77 -2.56,8.93 -2.86,6.10 -2.42,2.98 -1.97,-0.13 -1.92,-0.37 -1.88,-0.60 -1.78,-0.82 -1.68,-1.03 -1.53,-1.22 -1.38,-1.41 -1.19,-1.55 -1.00,-1.70 -0.79,-1.79 -0.57,-1.89 -0.33,-1.93 -0.10,-1.97 0.13,-1.96 0.37,-1.94 0.60,-1.87 0.82,-1.79 1.03,-1.67 1.23,-1.54 1.40,-1.37 1.56,-1.20 1.69,-1.00 1.81,-0.79 1.88,-0.56 1.95,-0.33 1.96,-0.10 1.97,0.13 1.97,0.13 L 1.97,0.13 Z"/></g><g transform="translate(37.7578125 155.04296875) rotate(0 147.36328125 -32.353515625)" stroke="none"><path fill="#000000" d="M -1.43,-0.90 Q -1.43,-0.90 -1.07,-2.30 -0.70,-3.71 0.67,-5.71 2.06,-7.71 3.60,-9.81 5.14,-11.90 6.70,-14.02 8.27,-16.14 9.74,-18.12 11.21,-20.10 12.96,-22.34 14.70,-24.58 16.25,-26.43 17.80,-28.28 19.36,-29.97 20.91,-31.67 22.49,-33.26 24.06,-34.85 25.65,-36.40 27.24,-37.96 29.89,-40.27 32.55,-42.57 35.71,-44.87 38.86,-47.17 42.75,-49.42 46.63,-51.67 50.98,-53.71 55.33,-55.75 59.84,-57.61 64.35,-59.47 70.19,-61.58 76.04,-63.69 81.11,-65.30 86.19,-66.91 90.87,-68.23 95.56,-69.55 100.10,-70.62 104.65,-71.68 110.42,-72.58 116.20,-73.48 121.07,-73.94 125.93,-74.41 130.27,-74.61 134.61,-74.80 138.56,-74.89 142.51,-74.98 147.22,-74.90 151.94,-74.83 155.94,-74.55 159.93,-74.27 163.56,-73.76 167.18,-73.25 170.53,-72.53 173.88,-71.81 176.98,-70.94 180.08,-70.07 183.89,-68.85 187.70,-67.64 191.07,-66.55 194.44,-65.47 198.73,-63.99 203.03,-62.51 205.80,-61.50 208.56,-60.48 212.13,-58.87 215.69,-57.25 218.44,-55.71 221.20,-54.16 223.42,-52.68 225.65,-51.19 227.58,-49.75 229.51,-48.31 231.28,-46.90 233.06,-45.49 234.76,-44.14 236.46,-42.79 238.69,-40.98 240.92,-39.18 242.89,-37.60 244.85,-36.03 246.64,-34.63 248.42,-33.23 250.48,-31.78 252.54,-30.33 254.40,-29.09 256.25,-27.85 258.17,-26.55 260.10,-25.25 262.28,-23.77 264.45,-22.29 266.99,-20.64 269.52,-19.00 272.35,-17.32 275.19,-15.63 278.89,-13.72 282.60,-11.82 285.44,-10.40 288.29,-8.98 290.22,-7.94 292.16,-6.91 293.33,-6.18 294.51,-5.45 295.35,-4.91 296.19,-4.36 296.49,-4.13 296.78,-3.89 297.01,-3.59 297.24,-3.29 297.39,-2.94 297.54,-2.59 297.61,-2.22 297.67,-1.85 297.64,-1.47 297.61,-1.09 297.50,-0.73 297.38,-0.37 297.18,-0.05 296.98,0.26 296.71,0.52 296.44,0.79 296.11,0.98 295.78,1.17 295.42,1.28 295.06,1.39 294.68,1.40 294.30,1.42 293.93,1.35 293.56,1.28 293.22,1.12 292.87,0.96 294.74,0.64 296.61,0.32 295.49,0.98 294.36,1.64 293.01,2.14 291.66,2.64 290.16,3.32 288.66,4.00 287.25,4.68 285.83,5.37 284.67,5.95 283.51,6.54 282.49,7.03 281.46,7.52 279.80,8.07 278.13,8.62 276.46,9.02 274.78,9.41 273.39,9.66 272.00,9.91 270.73,10.05 269.47,10.20 269.39,10.18 269.31,10.17 268.95,10.17 268.60,10.17 268.26,10.08 267.91,10.00 267.60,9.83 267.29,9.66 267.03,9.43 266.76,9.19 266.57,8.90 266.37,8.61 266.24,8.28 266.12,7.95 266.08,7.60 266.04,7.24 266.08,6.89 266.13,6.54 266.25,6.21 266.38,5.88 266.58,5.60 266.79,5.31 267.05,5.07 267.32,4.84 267.63,4.68 267.95,4.52 268.29,4.43 268.63,4.35 269.71,4.35 270.78,4.35 272.02,4.27 273.25,4.20 274.81,4.03 276.38,3.86 278.06,3.63 279.74,3.40 281.65,3.00 283.55,2.59 284.78,2.10 286.00,1.61 287.26,0.33 288.53,-0.94 289.25,-2.99 289.98,-5.05 290.15,-6.57 290.32,-8.10 290.40,-9.59 290.49,-11.08 290.44,-12.59 290.39,-14.09 290.08,-16.14 289.78,-18.18 289.46,-19.97 289.14,-21.76 288.77,-23.11 288.41,-24.45 287.88,-25.89 287.36,-27.33 286.63,-26.76 285.91,-26.19 285.71,-26.11 285.51,-26.03 285.30,-26.02 285.09,-26.01 284.88,-26.06 284.68,-26.12 284.50,-26.23 284.32,-26.35 284.19,-26.52 284.06,-26.69 283.99,-26.89 283.92,-27.09 283.92,-27.30 283.92,-27.52 283.99,-27.72 284.05,-27.92 284.18,-28.09 284.31,-28.26 284.48,-28.38 284.66,-28.50 284.86,-28.56 285.07,-28.62 285.28,-28.61 285.49,-28.60 285.69,-28.52 285.89,-28.44 286.05,-28.31 286.21,-28.17 286.32,-27.99 286.43,-27.81 286.48,-27.60 286.53,-27.40 286.51,-27.18 286.49,-26.97 286.40,-26.78 286.31,-26.59 286.17,-26.43 286.02,-26.27 285.84,-26.17 285.65,-26.07 285.44,-26.04 285.23,-26.00 285.02,-26.03 284.81,-26.07 284.62,-26.16 284.43,-26.26 284.29,-26.41 284.14,-26.57 284.05,-26.76 283.96,-26.95 283.93,-27.16 283.91,-27.37 283.95,-27.58 283.99,-27.79 284.10,-27.97 284.21,-28.16 284.37,-28.29 284.53,-28.43 284.53,-28.43 284.53,-28.43 287.66,-30.25 290.80,-32.06 291.62,-31.33 292.44,-30.59 292.98,-29.37 293.52,-28.15 293.86,-27.06 294.21,-25.97 294.61,-24.39 295.01,-22.81 295.34,-20.91 295.67,-19.02 296.00,-16.63 296.33,-14.24 296.36,-12.48 296.40,-10.72 296.28,-9.03 296.17,-7.34 295.89,-5.33 295.60,-3.33 295.10,-1.80 294.61,-0.26 293.85,1.20 293.09,2.68 292.01,3.94 290.94,5.19 289.54,6.12 288.15,7.05 286.46,7.69 284.78,8.33 282.66,8.77 280.53,9.22 278.76,9.46 276.98,9.70 275.29,9.87 273.60,10.04 271.45,10.11 269.31,10.17 268.95,10.17 268.60,10.17 268.26,10.08 267.91,10.00 267.60,9.83 267.29,9.66 267.03,9.43 266.76,9.19 266.57,8.90 266.37,8.61 266.24,8.28 266.12,7.95 266.08,7.60 266.04,7.25 266.08,6.89 266.13,6.54 266.25,6.21 266.38,5.88 266.58,5.60 266.79,5.31 267.05,5.07 267.32,4.84 267.63,4.68 267.94,4.52 268.29,4.43 268.63,4.35 268.70,4.30 268.77,4.25 269.85,4.11 270.93,3.97 272.17,3.74 273.41,3.52 274.85,3.19 276.29,2.85 278.55,2.01 280.81,1.16 282.02,0.56 283.22,-0.03 284.68,-0.73 286.13,-1.44 287.80,-2.22 289.47,-3.01 290.91,-3.26 292.34,-3.51 294.27,-3.94 296.19,-4.37 296.49,-4.13 296.78,-3.89 297.01,-3.59 297.24,-3.29 297.39,-2.94 297.54,-2.59 297.61,-2.22 297.67,-1.85 297.64,-1.47 297.61,-1.09 297.50,-0.73 297.38,-0.37 297.18,-0.05 296.98,0.26 296.71,0.52 296.44,0.79 296.11,0.98 295.78,1.17 295.42,1.28 295.06,1.39 294.68,1.40 294.30,1.42 293.93,1.35 293.56,1.28 293.22,1.12 292.87,0.96 292.03,0.40 291.18,-0.14 290.19,-0.77 289.21,-1.39 287.35,-2.39 285.49,-3.39 282.61,-4.83 279.74,-6.27 275.87,-8.27 272.00,-10.27 269.06,-12.02 266.12,-13.77 263.54,-15.45 260.95,-17.13 258.78,-18.61 256.60,-20.09 254.69,-21.38 252.78,-22.68 250.87,-23.96 248.96,-25.24 246.77,-26.79 244.58,-28.34 242.77,-29.75 240.97,-31.17 238.98,-32.76 237.00,-34.35 234.79,-36.14 232.58,-37.93 230.89,-39.28 229.20,-40.63 227.49,-41.99 225.78,-43.34 224.00,-44.69 222.21,-46.04 220.18,-47.39 218.15,-48.75 215.63,-50.17 213.11,-51.59 209.77,-53.12 206.42,-54.65 203.71,-55.64 201.01,-56.64 196.77,-58.10 192.54,-59.56 189.18,-60.64 185.81,-61.72 182.11,-62.91 178.40,-64.10 175.48,-64.92 172.56,-65.74 169.43,-66.42 166.31,-67.10 162.90,-67.59 159.49,-68.07 155.67,-68.35 151.84,-68.62 147.24,-68.70 142.64,-68.77 138.77,-68.69 134.90,-68.61 130.71,-68.43 126.52,-68.24 121.84,-67.79 117.15,-67.35 111.61,-66.49 106.06,-65.63 101.65,-64.60 97.24,-63.57 92.65,-62.29 88.06,-61.00 83.10,-59.43 78.14,-57.86 72.41,-55.81 66.69,-53.75 62.32,-51.96 57.94,-50.17 53.81,-48.26 49.69,-46.34 46.06,-44.27 42.43,-42.19 39.45,-40.09 36.47,-37.99 33.91,-35.84 31.35,-33.69 29.78,-32.19 28.20,-30.69 26.68,-29.20 25.16,-27.71 23.67,-26.13 22.18,-24.55 20.66,-22.79 19.15,-21.03 17.39,-18.89 15.63,-16.74 14.13,-14.81 12.62,-12.87 11.03,-10.78 9.44,-8.70 7.90,-6.66 6.37,-4.62 5.01,-2.79 3.65,-0.97 2.54,-0.03 1.43,0.90 1.30,1.06 1.17,1.21 1.01,1.34 0.85,1.46 0.66,1.54 0.47,1.62 0.27,1.66 0.07,1.69 -0.13,1.67 -0.33,1.66 -0.52,1.59 -0.72,1.53 -0.89,1.42 -1.06,1.31 -1.21,1.16 -1.35,1.02 -1.45,0.84 -1.55,0.66 -1.61,0.47 -1.67,0.27 -1.68,0.07 -1.69,-0.13 -1.65,-0.33 -1.60,-0.53 -1.52,-0.71 -1.43,-0.90 -1.43,-0.90 L -1.43,-0.90 Z"/></g><g transform="translate(314.86328125 301.6953125) rotate(0 -128.322265625 -0.23828125)" stroke="none"><path fill="#000000" d="M 0.80,1.17 Q 0.80,1.17 0.01,2.59 -0.78,4.00 -2.42,5.20 -4.06,6.40 -5.77,7.58 -7.48,8.76 -9.33,9.95 -11.17,11.13 -13.17,12.28 -15.16,13.43 -18.12,14.87 -21.08,16.30 -23.93,17.53 -26.78,18.77 -29.72,19.91 -32.65,21.05 -35.69,22.11 -38.73,23.17 -41.88,24.20 -45.04,25.23 -49.52,26.51 -54.00,27.80 -58.25,28.80 -62.49,29.80 -66.84,30.51 -71.20,31.22 -75.70,31.64 -80.19,32.06 -86.78,32.29 -93.36,32.52 -100.32,32.35 -107.29,32.17 -113.99,31.55 -120.69,30.92 -126.77,30.22 -132.85,29.52 -138.45,28.85 -144.05,28.18 -149.12,27.40 -154.19,26.63 -158.21,25.71 -162.22,24.78 -166.10,23.49 -169.97,22.19 -173.69,20.58 -177.42,18.96 -181.80,16.64 -186.19,14.31 -189.69,12.38 -193.20,10.45 -196.26,8.76 -199.32,7.08 -202.14,5.55 -204.96,4.03 -207.58,2.58 -210.21,1.14 -213.19,-0.54 -216.16,-2.22 -218.36,-3.48 -220.56,-4.74 -222.22,-5.68 -223.87,-6.62 -225.13,-7.30 -226.39,-7.99 -227.70,-8.64 -229.01,-9.29 -230.27,-9.90 -231.53,-10.50 -232.74,-11.01 -233.95,-11.51 -235.11,-12.02 -236.26,-12.53 -237.90,-13.34 -239.53,-14.14 -240.69,-14.71 -241.85,-15.28 -243.01,-15.89 -244.18,-16.50 -245.21,-17.11 -246.25,-17.73 -245.07,-18.04 -243.89,-18.34 -245.07,-16.16 -246.25,-13.99 -247.36,-11.86 -248.47,-9.73 -249.37,-7.90 -250.27,-6.06 -250.94,-4.43 -251.62,-2.79 -252.11,-1.28 -252.59,0.21 -252.88,1.74 -253.18,3.27 -253.39,4.75 -253.60,6.23 -253.69,6.57 -253.78,6.92 -253.96,7.24 -254.13,7.55 -254.37,7.82 -254.61,8.08 -254.91,8.28 -255.21,8.48 -255.55,8.60 -255.88,8.72 -256.24,8.76 -256.60,8.80 -256.95,8.75 -257.31,8.70 -257.64,8.57 -257.98,8.44 -258.27,8.23 -258.56,8.02 -258.80,7.75 -259.03,7.47 -259.19,7.15 -259.35,6.83 -259.43,6.48 -259.51,6.13 -259.51,5.77 -259.50,5.41 -259.17,3.70 -258.85,1.99 -258.04,-0.17 -257.23,-2.34 -256.28,-4.50 -255.34,-6.67 -254.27,-8.89 -253.20,-11.11 -252.25,-13.14 -251.30,-15.17 -250.58,-16.80 -249.86,-18.43 -249.45,-19.56 -249.04,-20.70 -248.67,-21.77 -248.30,-22.84 -247.50,-24.56 -246.70,-26.28 -245.69,-27.92 -244.67,-29.56 -244.03,-30.57 -243.39,-31.57 -242.48,-32.26 -241.58,-32.95 -240.23,-33.02 -238.87,-33.09 -237.48,-32.91 -236.10,-32.74 -234.24,-32.60 -232.38,-32.47 -229.80,-32.43 -227.23,-32.38 -223.08,-32.45 -218.93,-32.51 -215.51,-32.62 -212.09,-32.73 -209.46,-32.78 -206.83,-32.83 -205.11,-32.85 -203.40,-32.86 -202.59,-30.74 -201.78,-28.62 -201.99,-28.65 -202.20,-28.69 -202.39,-28.79 -202.58,-28.89 -202.72,-29.04 -202.87,-29.20 -202.96,-29.39 -203.05,-29.58 -203.07,-29.79 -203.09,-30.01 -203.05,-30.21 -203.00,-30.42 -202.89,-30.60 -202.78,-30.78 -202.62,-30.92 -202.46,-31.06 -202.26,-31.14 -202.06,-31.22 -201.85,-31.23 -201.64,-31.24 -201.43,-31.18 -201.23,-31.12 -201.05,-31.00 -200.88,-30.88 -200.75,-30.71 -200.62,-30.55 -200.55,-30.34 -200.48,-30.14 -200.49,-29.93 -200.49,-29.72 -200.55,-29.52 -200.62,-29.32 -200.75,-29.15 -200.88,-28.98 -201.06,-28.86 -201.23,-28.74 -201.44,-28.68 -201.64,-28.63 -201.85,-28.64 -202.07,-28.65 -202.26,-28.73 -202.46,-28.81 -202.62,-28.95 -202.78,-29.08 -202.89,-29.27 -203.00,-29.45 -203.05,-29.66 -203.09,-29.86 -203.07,-30.07 -203.05,-30.29 -202.96,-30.48 -202.87,-30.67 -202.72,-30.82 -202.57,-30.98 -202.39,-31.08 -202.20,-31.18 -201.99,-31.21 -201.78,-31.25 -201.78,-31.25 -201.78,-31.25 -202.55,-29.10 -203.33,-26.94 -205.03,-26.93 -206.73,-26.91 -209.32,-26.87 -211.91,-26.83 -215.38,-26.73 -218.86,-26.63 -223.12,-26.59 -227.38,-26.54 -230.11,-26.63 -232.83,-26.72 -234.86,-26.89 -236.89,-27.07 -238.34,-26.75 -239.79,-26.44 -240.66,-25.05 -241.52,-23.66 -242.16,-22.29 -242.80,-20.92 -243.20,-19.81 -243.59,-18.69 -244.07,-17.38 -244.56,-16.08 -245.31,-14.39 -246.07,-12.71 -247.03,-10.66 -248.00,-8.61 -249.03,-6.48 -250.06,-4.35 -250.96,-2.32 -251.85,-0.29 -252.57,1.52 -253.28,3.35 -253.44,4.79 -253.60,6.23 -253.69,6.57 -253.78,6.92 -253.96,7.24 -254.13,7.55 -254.37,7.82 -254.61,8.08 -254.91,8.28 -255.21,8.48 -255.55,8.60 -255.88,8.72 -256.24,8.76 -256.60,8.80 -256.95,8.75 -257.31,8.70 -257.64,8.57 -257.98,8.44 -258.27,8.23 -258.56,8.02 -258.80,7.75 -259.03,7.47 -259.19,7.15 -259.35,6.83 -259.43,6.48 -259.51,6.13 -259.51,5.77 -259.50,5.41 -259.45,4.87 -259.41,4.33 -259.26,3.22 -259.12,2.11 -258.75,0.24 -258.39,-1.63 -257.83,-3.38 -257.27,-5.13 -256.51,-6.94 -255.76,-8.75 -254.83,-10.66 -253.90,-12.56 -252.76,-14.76 -251.61,-16.95 -250.82,-18.38 -250.03,-19.81 -249.40,-20.91 -248.77,-22.02 -247.82,-22.64 -246.88,-23.26 -245.06,-23.22 -243.24,-23.18 -242.15,-22.52 -241.07,-21.87 -240.06,-21.35 -239.06,-20.82 -237.86,-20.23 -236.65,-19.64 -235.19,-18.92 -233.73,-18.19 -232.65,-17.71 -231.57,-17.22 -230.22,-16.66 -228.86,-16.09 -227.55,-15.46 -226.25,-14.84 -224.83,-14.13 -223.42,-13.43 -222.12,-12.71 -220.82,-12.00 -219.15,-11.05 -217.48,-10.11 -215.30,-8.85 -213.12,-7.60 -210.17,-5.93 -207.23,-4.27 -204.62,-2.83 -202.01,-1.39 -199.18,0.15 -196.35,1.69 -193.29,3.38 -190.23,5.07 -186.77,6.98 -183.31,8.89 -179.14,11.11 -174.96,13.33 -171.49,14.85 -168.01,16.37 -164.42,17.58 -160.84,18.80 -157.04,19.68 -153.25,20.57 -148.29,21.35 -143.32,22.13 -137.73,22.82 -132.15,23.50 -126.14,24.20 -120.13,24.90 -113.63,25.51 -107.13,26.13 -100.35,26.30 -93.57,26.48 -87.15,26.27 -80.74,26.05 -76.45,25.66 -72.16,25.28 -68.01,24.61 -63.86,23.94 -59.76,22.99 -55.66,22.03 -51.28,20.77 -46.90,19.50 -43.80,18.50 -40.71,17.49 -37.76,16.47 -34.82,15.44 -31.99,14.35 -29.16,13.26 -26.42,12.08 -23.67,10.89 -20.90,9.58 -18.12,8.27 -16.24,7.19 -14.35,6.12 -12.58,5.01 -10.81,3.90 -9.13,2.76 -7.45,1.62 -5.73,0.44 -4.01,-0.73 -2.40,-0.95 -0.80,-1.17 -0.64,-1.25 -0.49,-1.33 -0.33,-1.37 -0.16,-1.41 0.00,-1.41 0.18,-1.41 0.34,-1.37 0.51,-1.32 0.66,-1.24 0.81,-1.16 0.94,-1.05 1.07,-0.93 1.16,-0.79 1.26,-0.65 1.32,-0.49 1.38,-0.33 1.40,-0.16 1.42,0.00 1.40,0.17 1.38,0.34 1.31,0.50 1.25,0.67 1.15,0.81 1.06,0.95 0.93,1.06 0.80,1.17 0.80,1.17 L 0.80,1.17 Z"/></g><g transform="translate(66.7265625 10) rotate(0 -11.2265625 26.1953125)" stroke="none"><path fill="#000000" d="M 0.90,1.75 Q 0.90,1.75 -0.79,3.01 -2.48,4.27 -4.06,5.14 -5.64,6.00 -7.28,6.90 -8.92,7.80 -10.74,8.92 -12.55,10.03 -14.18,11.28 -15.82,12.53 -17.03,13.90 -18.24,15.26 -18.74,16.46 -19.25,17.66 -17.91,18.86 -16.57,20.07 -14.58,21.64 -12.59,23.22 -10.71,24.73 -8.83,26.24 -7.23,27.78 -5.63,29.32 -4.38,30.92 -3.14,32.52 -2.26,34.67 -1.39,36.81 -1.02,38.75 -0.66,40.68 -0.99,42.83 -1.32,44.98 -2.23,46.91 -3.14,48.84 -4.45,50.44 -5.76,52.03 -8.06,53.09 -10.37,54.15 -12.82,53.63 -15.28,53.11 -18.06,48.68 -20.84,44.25 -20.94,44.06 -21.05,43.88 -21.08,43.67 -21.12,43.46 -21.09,43.25 -21.05,43.04 -20.96,42.85 -20.86,42.66 -20.70,42.51 -20.55,42.37 -20.36,42.28 -20.17,42.18 -19.96,42.16 -19.75,42.13 -19.54,42.18 -19.33,42.22 -19.15,42.33 -18.96,42.44 -18.82,42.60 -18.69,42.76 -18.60,42.96 -18.52,43.15 -18.51,43.36 -18.50,43.58 -18.55,43.78 -18.61,43.99 -18.73,44.16 -18.84,44.34 -19.01,44.47 -19.18,44.60 -19.38,44.67 -19.58,44.74 -19.79,44.74 -20.01,44.74 -20.21,44.68 -20.41,44.61 -20.58,44.49 -20.75,44.36 -20.87,44.18 -20.99,44.01 -21.05,43.80 -21.11,43.60 -21.10,43.39 -21.09,43.18 -21.01,42.98 -20.94,42.78 -20.80,42.62 -20.66,42.45 -20.48,42.34 -20.30,42.23 -20.09,42.18 -19.89,42.14 -19.68,42.16 -19.46,42.18 -19.27,42.27 -19.08,42.35 -18.92,42.50 -18.77,42.64 -18.77,42.64 -18.77,42.64 -16.01,45.36 -13.25,48.08 -11.62,48.06 -10.00,48.04 -9.16,47.10 -8.32,46.16 -7.62,44.95 -6.92,43.73 -6.55,42.58 -6.18,41.43 -6.34,40.08 -6.51,38.73 -7.01,37.26 -7.50,35.79 -8.46,34.51 -9.43,33.23 -10.84,31.86 -12.25,30.48 -14.12,28.97 -16.00,27.46 -18.24,25.64 -20.47,23.82 -21.81,22.35 -23.14,20.87 -23.79,19.16 -24.44,17.45 -24.18,15.93 -23.92,14.41 -23.12,13.01 -22.33,11.61 -20.75,9.88 -19.17,8.15 -17.30,6.74 -15.43,5.33 -13.49,4.15 -11.54,2.97 -9.86,2.07 -8.18,1.16 -6.55,0.35 -4.92,-0.46 -2.91,-1.10 -0.90,-1.75 -0.67,-1.83 -0.45,-1.91 -0.22,-1.94 0.01,-1.97 0.25,-1.94 0.48,-1.91 0.70,-1.82 0.93,-1.73 1.12,-1.60 1.31,-1.46 1.47,-1.28 1.63,-1.10 1.74,-0.89 1.84,-0.68 1.90,-0.45 1.95,-0.22 1.95,0.01 1.95,0.25 1.89,0.48 1.83,0.71 1.72,0.92 1.61,1.13 1.45,1.31 1.29,1.48 1.09,1.62 0.90,1.75 0.90,1.75 L 0.90,1.75 Z"/></g><g transform="translate(91.546875 16.0625) rotate(0 10.658203125 20.748046875)" stroke="none"><path fill="#000000" d="M 1.81,0.56 Q 1.81,0.56 1.35,2.92 0.89,5.28 0.64,8.14 0.40,11.00 0.45,13.26 0.51,15.52 1.07,16.85 1.62,18.19 4.39,18.64 7.15,19.09 9.53,18.33 11.91,17.56 14.22,16.46 16.53,15.36 18.22,14.47 19.91,13.57 20.73,13.11 21.54,12.65 21.83,12.54 22.11,12.43 22.41,12.39 22.72,12.35 23.02,12.38 23.32,12.41 23.61,12.52 23.90,12.62 24.15,12.79 24.40,12.96 24.61,13.19 24.81,13.41 24.96,13.68 25.11,13.95 25.18,14.24 25.26,14.54 25.26,14.85 25.27,15.15 25.20,15.45 25.13,15.74 24.99,16.02 24.85,16.29 24.65,16.52 24.45,16.75 24.20,16.93 23.95,17.10 23.00,19.54 22.04,21.98 20.58,24.72 19.12,27.45 17.81,30.31 16.50,33.17 15.53,35.77 14.57,38.38 13.50,39.55 12.43,40.72 12.34,40.92 12.25,41.11 12.10,41.26 11.96,41.42 11.77,41.52 11.58,41.61 11.37,41.65 11.16,41.68 10.95,41.65 10.74,41.61 10.55,41.51 10.37,41.41 10.22,41.26 10.08,41.11 9.99,40.91 9.90,40.72 9.87,40.51 9.85,40.30 9.90,40.09 9.94,39.88 10.05,39.70 10.16,39.52 10.33,39.38 10.49,39.24 10.69,39.17 10.88,39.09 11.09,39.08 11.31,39.06 11.51,39.12 11.72,39.18 11.89,39.30 12.07,39.42 12.20,39.59 12.32,39.76 12.39,39.96 12.46,40.16 12.46,40.37 12.46,40.58 12.39,40.79 12.32,40.99 12.19,41.16 12.06,41.32 11.89,41.44 11.71,41.56 11.51,41.62 11.30,41.68 11.09,41.66 10.88,41.65 10.68,41.57 10.48,41.49 10.32,41.36 10.16,41.22 10.05,41.04 9.94,40.85 9.90,40.65 9.85,40.44 9.88,40.23 9.90,40.02 9.90,40.02 9.90,40.02 9.65,38.26 9.39,36.51 10.41,33.64 11.43,30.78 12.87,27.80 14.31,24.83 15.87,22.05 17.43,19.27 18.54,17.48 19.66,15.68 20.60,14.17 21.54,12.65 21.83,12.54 22.11,12.43 22.41,12.39 22.72,12.35 23.02,12.38 23.32,12.41 23.61,12.52 23.90,12.62 24.15,12.79 24.40,12.96 24.61,13.19 24.81,13.41 24.96,13.68 25.11,13.95 25.18,14.24 25.26,14.54 25.26,14.85 25.27,15.15 25.20,15.45 25.13,15.74 24.99,16.02 24.85,16.29 24.65,16.52 24.45,16.75 24.20,16.93 23.95,17.10 23.13,17.55 22.30,18.00 20.52,18.99 18.73,19.97 16.05,21.26 13.37,22.54 10.18,23.40 6.98,24.26 3.69,23.86 0.40,23.47 -1.31,21.85 -3.04,20.23 -3.82,17.97 -4.60,15.70 -4.63,13.06 -4.65,10.42 -4.19,7.14 -3.72,3.86 -2.77,1.65 -1.81,-0.56 -1.71,-0.77 -1.62,-0.97 -1.48,-1.15 -1.34,-1.33 -1.16,-1.48 -0.98,-1.62 -0.77,-1.71 -0.56,-1.81 -0.34,-1.85 -0.11,-1.89 0.11,-1.88 0.33,-1.86 0.55,-1.79 0.77,-1.73 0.97,-1.61 1.16,-1.49 1.32,-1.33 1.49,-1.17 1.61,-0.97 1.72,-0.78 1.79,-0.56 1.86,-0.34 1.88,-0.11 1.89,0.11 1.85,0.33 1.81,0.56 1.81,0.56 L 1.81,0.56 Z"/></g><g transform="translate(146.58984375 20.04296875) rotate(0 10.75 15.8203125)" stroke="none"><path fill="#000000" d="M 1.50,0.55 Q 1.50,0.55 0.91,3.54 0.32,6.54 -0.57,9.59 -1.48,12.65 -2.55,16.52 -3.62,20.39 -4.35,23.11 -5.09,25.84 -5.48,27.43 -5.87,29.02 -6.05,29.74 -6.23,30.46 -6.35,30.76 -6.46,31.06 -6.64,31.33 -6.83,31.60 -7.07,31.81 -7.31,32.03 -7.60,32.18 -7.89,32.33 -8.20,32.41 -8.51,32.48 -8.84,32.48 -9.16,32.48 -9.48,32.41 -9.79,32.33 -10.08,32.18 -10.37,32.03 -10.61,31.81 -10.85,31.60 -11.04,31.33 -11.22,31.07 -11.34,30.76 -11.45,30.46 -11.49,30.14 -11.53,29.82 -11.49,29.50 -11.45,29.17 -10.67,27.58 -9.88,25.98 -8.50,23.52 -7.13,21.06 -5.45,18.44 -3.78,15.82 -2.13,13.75 -0.49,11.67 1.13,10.19 2.77,8.72 3.57,8.20 4.38,7.68 4.62,7.51 4.86,7.34 5.14,7.23 5.42,7.12 5.71,7.08 6.00,7.05 6.30,7.08 6.59,7.11 6.87,7.22 7.15,7.32 7.39,7.49 7.64,7.65 7.84,7.87 8.04,8.09 8.17,8.36 8.31,8.62 8.39,8.90 8.46,9.19 8.46,9.49 8.46,9.78 8.40,10.07 8.33,10.36 8.19,10.62 8.05,10.89 7.86,11.11 7.66,11.33 8.28,10.41 8.90,9.49 9.25,11.61 9.61,13.72 9.50,16.18 9.39,18.64 9.12,21.05 8.85,23.47 8.66,25.55 8.48,27.63 8.41,28.61 8.33,29.59 8.26,29.90 8.19,30.22 8.05,30.51 7.91,30.80 7.70,31.04 7.49,31.29 7.23,31.48 6.97,31.67 6.67,31.79 6.38,31.91 6.06,31.96 5.74,32.01 5.42,31.98 5.10,31.95 4.79,31.84 4.49,31.73 4.22,31.56 3.95,31.38 3.73,31.15 3.51,30.91 3.35,30.63 3.20,30.35 3.11,30.04 3.03,29.72 3.02,29.40 3.01,29.08 4.44,27.68 5.87,26.28 7.22,24.55 8.56,22.82 11.78,18.92 15.01,15.03 17.77,12.09 20.53,9.16 22.64,7.41 24.75,5.67 27.52,5.46 30.29,5.26 31.13,6.37 31.96,7.48 32.44,11.10 32.92,14.73 32.99,17.81 33.07,20.90 33.06,23.42 33.05,25.95 32.37,28.27 31.70,30.59 31.67,30.80 31.64,31.01 31.54,31.20 31.45,31.39 31.29,31.54 31.14,31.68 30.95,31.78 30.76,31.87 30.55,31.89 30.34,31.92 30.13,31.88 29.92,31.84 29.74,31.73 29.55,31.62 29.41,31.46 29.27,31.30 29.19,31.11 29.11,30.91 29.10,30.70 29.08,30.49 29.14,30.28 29.19,30.07 29.31,29.90 29.42,29.72 29.59,29.59 29.76,29.46 29.96,29.39 30.16,29.32 30.37,29.31 30.58,29.31 30.79,29.37 30.99,29.44 31.16,29.56 31.33,29.69 31.45,29.87 31.57,30.04 31.63,30.24 31.69,30.45 31.68,30.66 31.68,30.87 31.60,31.07 31.52,31.27 31.39,31.43 31.25,31.60 31.07,31.71 30.89,31.82 30.69,31.87 30.48,31.92 30.27,31.90 30.06,31.88 29.86,31.79 29.67,31.71 29.51,31.56 29.36,31.42 29.25,31.23 29.15,31.05 29.11,30.84 29.08,30.63 29.08,30.63 29.08,30.63 28.33,28.28 27.59,25.94 27.59,23.46 27.59,20.99 27.57,18.07 27.54,15.14 27.63,12.26 27.72,9.38 25.87,10.90 24.01,12.41 21.40,15.24 18.79,18.07 15.67,22.08 12.54,26.10 10.44,27.84 8.33,29.59 8.26,29.90 8.19,30.22 8.05,30.51 7.91,30.80 7.70,31.04 7.49,31.29 7.23,31.48 6.97,31.67 6.67,31.79 6.38,31.91 6.06,31.96 5.74,32.01 5.42,31.98 5.10,31.95 4.79,31.84 4.49,31.73 4.22,31.56 3.95,31.38 3.73,31.15 3.51,30.91 3.35,30.63 3.20,30.35 3.11,30.04 3.03,29.73 3.02,29.40 3.01,29.08 3.05,28.10 3.09,27.12 3.31,24.97 3.53,22.83 3.83,20.55 4.12,18.28 4.32,16.24 4.51,14.19 4.56,13.03 4.60,11.88 4.49,9.78 4.38,7.68 4.62,7.51 4.86,7.34 5.14,7.23 5.42,7.12 5.71,7.08 6.00,7.05 6.30,7.08 6.59,7.11 6.87,7.22 7.15,7.32 7.39,7.49 7.64,7.65 7.84,7.87 8.04,8.09 8.17,8.36 8.31,8.62 8.39,8.90 8.46,9.19 8.46,9.49 8.46,9.78 8.40,10.07 8.33,10.36 8.19,10.62 8.06,10.89 7.86,11.11 7.67,11.33 6.89,11.89 6.11,12.44 4.78,13.63 3.46,14.81 1.98,16.69 0.50,18.57 -1.06,21.02 -2.63,23.48 -3.89,25.91 -5.15,28.34 -5.69,29.40 -6.23,30.46 -6.35,30.76 -6.46,31.06 -6.64,31.33 -6.83,31.60 -7.07,31.81 -7.31,32.03 -7.60,32.18 -7.89,32.33 -8.20,32.41 -8.51,32.48 -8.84,32.48 -9.16,32.48 -9.48,32.41 -9.79,32.33 -10.08,32.18 -10.37,32.03 -10.61,31.82 -10.85,31.60 -11.04,31.33 -11.22,31.07 -11.34,30.76 -11.45,30.46 -11.49,30.14 -11.53,29.82 -11.49,29.50 -11.45,29.17 -11.29,28.45 -11.14,27.73 -10.73,26.07 -10.32,24.41 -9.56,21.65 -8.80,18.90 -7.65,15.00 -6.49,11.11 -5.47,7.95 -4.46,4.78 -2.98,2.11 -1.50,-0.55 -1.41,-0.72 -1.33,-0.89 -1.20,-1.04 -1.07,-1.18 -0.91,-1.29 -0.76,-1.41 -0.58,-1.48 -0.40,-1.55 -0.21,-1.57 -0.01,-1.60 0.17,-1.58 0.36,-1.56 0.54,-1.49 0.72,-1.42 0.88,-1.32 1.04,-1.21 1.17,-1.06 1.30,-0.92 1.40,-0.75 1.49,-0.58 1.54,-0.39 1.58,-0.21 1.59,-0.01 1.59,0.17 1.54,0.36 1.50,0.55 1.50,0.55 L 1.50,0.55 Z"/></g><g transform="translate(192.34765625 33.3046875) rotate(0 15.060546875 9.568359375)" stroke="none"><path fill="#000000" d="M 1.67,0.01 Q 1.67,0.01 2.16,2.66 2.66,5.31 2.41,7.79 2.17,10.28 1.86,12.24 1.56,14.20 1.36,15.55 1.16,16.89 0.98,17.84 0.80,18.79 0.71,19.12 0.62,19.44 0.46,19.72 0.30,20.01 0.07,20.26 -0.15,20.50 -0.43,20.68 -0.71,20.86 -1.02,20.97 -1.34,21.08 -1.67,21.11 -2.00,21.14 -2.33,21.09 -2.66,21.04 -2.96,20.91 -3.27,20.78 -3.54,20.58 -3.80,20.39 -4.02,20.13 -4.23,19.88 -4.38,19.58 -4.52,19.28 -4.59,18.95 -4.66,18.63 -4.65,18.30 -4.64,17.96 -3.90,16.61 -3.17,15.26 -2.14,13.45 -1.12,11.63 0.79,8.51 2.71,5.40 4.38,3.09 6.06,0.77 7.30,-0.60 8.54,-1.98 10.47,-2.70 12.40,-3.41 13.43,-2.80 14.46,-2.20 15.05,0.58 15.63,3.36 15.73,5.97 15.84,8.57 15.87,10.90 15.91,13.22 15.93,14.86 15.95,16.50 16.06,17.33 16.17,18.17 16.13,18.49 16.09,18.81 15.98,19.12 15.87,19.42 15.69,19.69 15.50,19.96 15.26,20.18 15.02,20.40 14.73,20.55 14.45,20.71 14.13,20.79 13.82,20.87 13.49,20.87 13.16,20.88 12.85,20.80 12.53,20.72 12.24,20.58 11.95,20.43 11.70,20.21 11.46,20.00 11.27,19.73 11.08,19.47 10.97,19.16 10.85,18.86 10.81,18.54 10.76,18.21 12.40,16.48 14.03,14.75 15.27,13.32 16.51,11.88 18.32,9.82 20.13,7.76 21.93,6.01 23.74,4.26 25.40,3.11 27.06,1.97 29.24,1.89 31.42,1.81 32.44,2.72 33.46,3.64 33.94,5.65 34.41,7.65 34.54,9.72 34.67,11.78 34.57,14.20 34.46,16.63 33.90,18.52 33.33,20.40 33.30,20.61 33.26,20.82 33.16,21.01 33.06,21.20 32.91,21.34 32.75,21.49 32.56,21.58 32.36,21.66 32.15,21.69 31.94,21.71 31.73,21.66 31.53,21.61 31.34,21.50 31.16,21.39 31.03,21.23 30.89,21.07 30.81,20.87 30.74,20.67 30.72,20.46 30.71,20.25 30.77,20.04 30.83,19.84 30.95,19.66 31.07,19.49 31.24,19.36 31.41,19.23 31.61,19.17 31.82,19.10 32.03,19.10 32.24,19.10 32.44,19.17 32.64,19.24 32.81,19.37 32.98,19.50 33.10,19.68 33.21,19.85 33.27,20.06 33.33,20.26 33.31,20.47 33.30,20.69 33.22,20.88 33.14,21.08 33.00,21.24 32.86,21.40 32.68,21.51 32.50,21.62 32.29,21.66 32.08,21.71 31.87,21.68 31.66,21.66 31.47,21.57 31.28,21.48 31.12,21.33 30.97,21.18 30.87,21.00 30.77,20.81 30.74,20.60 30.71,20.39 30.71,20.39 30.71,20.39 30.16,18.55 29.62,16.72 29.43,14.40 29.24,12.08 29.15,10.31 29.07,8.53 29.52,7.42 29.97,6.32 28.69,7.19 27.41,8.07 25.77,9.66 24.12,11.26 22.28,13.36 20.45,15.46 18.31,16.81 16.17,18.17 16.13,18.49 16.09,18.81 15.98,19.12 15.87,19.42 15.69,19.69 15.50,19.96 15.26,20.18 15.02,20.40 14.73,20.55 14.45,20.71 14.13,20.79 13.82,20.87 13.49,20.87 13.16,20.88 12.85,20.80 12.53,20.73 12.24,20.58 11.95,20.43 11.70,20.21 11.46,20.00 11.27,19.73 11.08,19.47 10.97,19.16 10.85,18.86 10.81,18.54 10.76,18.21 10.64,17.39 10.52,16.56 10.51,14.93 10.50,13.30 10.47,11.03 10.44,8.75 10.38,6.29 10.32,3.82 11.40,2.70 12.48,1.58 11.42,2.74 10.36,3.90 8.80,6.05 7.24,8.19 5.39,11.20 3.54,14.21 2.17,16.50 0.80,18.79 0.71,19.11 0.62,19.44 0.46,19.72 0.30,20.01 0.07,20.26 -0.15,20.50 -0.43,20.68 -0.71,20.86 -1.02,20.97 -1.34,21.08 -1.67,21.11 -2.00,21.14 -2.33,21.09 -2.65,21.04 -2.96,20.91 -3.27,20.78 -3.54,20.58 -3.80,20.39 -4.02,20.13 -4.23,19.88 -4.38,19.58 -4.52,19.28 -4.59,18.95 -4.66,18.63 -4.65,18.30 -4.64,17.96 -4.48,17.01 -4.33,16.05 -4.12,14.69 -3.90,13.34 -3.60,11.51 -3.31,9.68 -3.04,7.46 -2.77,5.25 -2.22,2.61 -1.67,-0.01 -1.64,-0.21 -1.61,-0.41 -1.54,-0.60 -1.47,-0.79 -1.35,-0.95 -1.23,-1.12 -1.08,-1.25 -0.93,-1.38 -0.75,-1.47 -0.57,-1.56 -0.38,-1.61 -0.18,-1.66 0.01,-1.65 0.21,-1.65 0.41,-1.60 0.60,-1.55 0.78,-1.46 0.96,-1.36 1.11,-1.23 1.26,-1.09 1.37,-0.92 1.48,-0.76 1.55,-0.57 1.62,-0.38 1.64,-0.18 1.67,0.01 1.67,0.01 L 1.67,0.01 Z"/></g><g transform="translate(232.80078125 55.37890625) rotate(0 16.767578125 -8.859375)" stroke="none"><path fill="#000000" d="M -0.82,-1.70 Q -0.82,-1.70 1.57,-3.19 3.98,-4.67 6.56,-6.41 9.14,-8.16 11.63,-10.63 14.13,-13.09 15.20,-14.87 16.27,-16.65 14.85,-16.87 13.42,-17.09 12.77,-16.11 12.12,-15.12 11.54,-13.26 10.97,-11.40 10.69,-9.02 10.41,-6.65 10.52,-4.77 10.63,-2.89 11.62,-2.06 12.62,-1.23 14.01,-1.31 15.40,-1.40 18.07,-3.04 20.75,-4.68 24.02,-7.61 27.30,-10.55 28.91,-11.66 30.53,-12.77 30.71,-12.88 30.88,-13.00 31.09,-13.05 31.29,-13.11 31.51,-13.09 31.72,-13.08 31.91,-12.99 32.11,-12.91 32.27,-12.77 32.43,-12.63 32.54,-12.45 32.64,-12.26 32.68,-12.05 32.73,-11.85 32.70,-11.64 32.67,-11.42 32.58,-11.23 32.49,-11.04 32.34,-10.89 32.19,-10.74 32.00,-10.64 31.81,-10.55 31.60,-10.52 31.39,-10.49 31.18,-10.52 30.97,-10.56 30.79,-10.66 30.60,-10.77 30.46,-10.92 30.31,-11.08 30.23,-11.28 30.14,-11.47 30.12,-11.68 30.10,-11.89 30.15,-12.10 30.20,-12.31 30.31,-12.49 30.43,-12.67 30.59,-12.80 30.76,-12.94 30.96,-13.01 31.15,-13.09 31.37,-13.09 31.58,-13.10 31.78,-13.04 31.99,-12.98 32.16,-12.86 32.33,-12.74 32.46,-12.56 32.58,-12.39 32.65,-12.19 32.71,-11.99 32.71,-11.78 32.70,-11.56 32.63,-11.36 32.56,-11.16 32.43,-11.00 32.30,-10.83 32.30,-10.83 32.30,-10.83 31.05,-9.32 29.79,-7.82 26.33,-4.59 22.87,-1.37 19.30,0.96 15.73,3.30 12.81,3.09 9.88,2.88 7.78,0.60 5.67,-1.67 5.41,-4.53 5.14,-7.40 5.65,-10.31 6.16,-13.22 7.30,-15.84 8.44,-18.46 10.30,-20.08 12.17,-21.69 14.47,-21.84 16.78,-22.00 18.60,-20.81 20.43,-19.63 20.55,-16.90 20.67,-14.18 19.19,-11.83 17.70,-9.48 14.82,-6.71 11.93,-3.94 9.04,-2.08 6.14,-0.22 3.48,0.73 0.82,1.70 0.60,1.77 0.39,1.85 0.16,1.87 -0.06,1.89 -0.28,1.85 -0.51,1.82 -0.72,1.73 -0.93,1.64 -1.11,1.51 -1.30,1.37 -1.44,1.20 -1.59,1.02 -1.69,0.81 -1.79,0.61 -1.84,0.39 -1.88,0.16 -1.88,-0.06 -1.87,-0.28 -1.81,-0.50 -1.74,-0.72 -1.63,-0.92 -1.52,-1.12 -1.36,-1.29 -1.20,-1.45 -1.01,-1.58 -0.82,-1.70 -0.82,-1.70 L -0.82,-1.70 Z"/></g><g transform="translate(279.50390625 22.03125) rotate(0 -4.83203125 17.66796875)" stroke="none"><path fill="#000000" d="M 1.65,0.32 Q 1.65,0.32 1.47,4.02 1.28,7.72 0.41,11.48 -0.45,15.24 -1.40,18.86 -2.35,22.49 -3.49,25.98 -4.63,29.48 -6.30,32.05 -7.97,34.62 -8.08,34.80 -8.19,34.99 -8.35,35.12 -8.51,35.26 -8.71,35.34 -8.90,35.42 -9.12,35.44 -9.33,35.45 -9.53,35.39 -9.74,35.34 -9.92,35.22 -10.09,35.10 -10.22,34.94 -10.35,34.77 -10.42,34.57 -10.49,34.37 -10.49,34.15 -10.49,33.94 -10.43,33.74 -10.36,33.54 -10.23,33.37 -10.11,33.20 -9.93,33.08 -9.76,32.96 -9.55,32.90 -9.35,32.84 -9.14,32.85 -8.92,32.86 -8.73,32.94 -8.53,33.01 -8.36,33.15 -8.20,33.29 -8.09,33.47 -7.98,33.65 -7.93,33.85 -7.89,34.06 -7.91,34.27 -7.93,34.48 -8.02,34.68 -8.10,34.87 -8.25,35.03 -8.39,35.18 -8.58,35.28 -8.77,35.38 -8.98,35.42 -9.19,35.46 -9.40,35.42 -9.61,35.39 -9.79,35.29 -9.98,35.19 -10.13,35.04 -10.28,34.89 -10.37,34.70 -10.46,34.50 -10.48,34.29 -10.51,34.08 -10.46,33.87 -10.42,33.67 -10.42,33.67 -10.42,33.67 -9.99,30.85 -9.56,28.03 -8.65,24.55 -7.74,21.07 -6.80,17.52 -5.87,13.96 -4.99,10.31 -4.11,6.65 -2.88,3.16 -1.65,-0.32 -1.59,-0.51 -1.53,-0.71 -1.42,-0.88 -1.31,-1.05 -1.17,-1.20 -1.02,-1.34 -0.84,-1.44 -0.67,-1.54 -0.47,-1.60 -0.28,-1.66 -0.07,-1.67 0.12,-1.68 0.32,-1.64 0.52,-1.60 0.70,-1.51 0.89,-1.43 1.05,-1.30 1.21,-1.17 1.33,-1.01 1.45,-0.85 1.53,-0.66 1.61,-0.48 1.65,-0.28 1.68,-0.07 1.67,0.12 1.65,0.32 1.65,0.32 L 1.65,0.32 Z"/></g><g transform="translate(270.59765625 43.53515625) rotate(0 6.205078125 -4.451171875)" stroke="none"><path fill="#000000" d="M -1.19,-1.54 Q -1.19,-1.54 1.33,-3.79 3.85,-6.04 7.12,-7.58 10.39,-9.13 10.59,-9.21 10.78,-9.30 10.99,-9.33 11.20,-9.35 11.41,-9.30 11.62,-9.26 11.80,-9.15 11.98,-9.04 12.12,-8.87 12.26,-8.71 12.33,-8.51 12.41,-8.32 12.42,-8.10 12.43,-7.89 12.38,-7.69 12.32,-7.48 12.20,-7.31 12.08,-7.13 11.91,-7.00 11.74,-6.87 11.54,-6.81 11.34,-6.74 11.12,-6.74 10.91,-6.74 10.71,-6.81 10.51,-6.88 10.34,-7.01 10.17,-7.14 10.05,-7.31 9.93,-7.49 9.88,-7.69 9.82,-7.90 9.83,-8.11 9.85,-8.32 9.93,-8.52 10.00,-8.72 10.14,-8.88 10.28,-9.04 10.46,-9.15 10.65,-9.26 10.85,-9.30 11.06,-9.35 11.27,-9.33 11.48,-9.30 11.68,-9.21 11.87,-9.12 12.02,-8.98 12.18,-8.83 12.27,-8.64 12.37,-8.45 12.41,-8.24 12.44,-8.03 12.41,-7.82 12.37,-7.61 12.27,-7.43 12.17,-7.24 12.02,-7.09 11.86,-6.95 11.86,-6.95 11.86,-6.95 9.34,-4.59 6.81,-2.23 4.00,-0.34 1.19,1.54 0.99,1.66 0.79,1.78 0.56,1.85 0.34,1.91 0.10,1.93 -0.12,1.94 -0.35,1.90 -0.58,1.85 -0.80,1.76 -1.01,1.66 -1.20,1.51 -1.38,1.37 -1.52,1.18 -1.67,0.99 -1.76,0.78 -1.86,0.57 -1.90,0.33 -1.94,0.10 -1.93,-0.12 -1.91,-0.36 -1.84,-0.58 -1.77,-0.80 -1.65,-1.00 -1.52,-1.20 -1.36,-1.37 -1.19,-1.54 -1.19,-1.54 L -1.19,-1.54 Z"/></g><g transform="translate(295.515625 40.21875) rotate(0 3.599609375 2.654296875)" stroke="none"><path fill="#000000" d="M 1.54,0.40 Q 1.54,0.40 1.07,3.28 0.60,6.15 0.00,9.06 -0.60,11.96 -1.05,13.55 -1.50,15.15 -1.62,15.44 -1.74,15.73 -1.93,15.98 -2.12,16.24 -2.36,16.44 -2.61,16.64 -2.90,16.78 -3.18,16.92 -3.49,16.98 -3.80,17.05 -4.12,17.04 -4.44,17.03 -4.74,16.94 -5.05,16.85 -5.32,16.70 -5.60,16.54 -5.83,16.32 -6.06,16.10 -6.23,15.83 -6.40,15.57 -6.50,15.27 -6.60,14.96 -6.63,14.65 -6.66,14.33 -6.61,14.02 -6.56,13.71 -5.82,10.58 -5.07,7.45 -3.90,4.16 -2.72,0.87 -1.30,-2.09 0.11,-5.06 1.65,-7.24 3.20,-9.42 4.88,-10.67 6.55,-11.93 8.84,-11.67 11.13,-11.41 11.34,-11.38 11.55,-11.36 11.74,-11.27 11.94,-11.18 12.09,-11.03 12.24,-10.89 12.34,-10.70 12.44,-10.51 12.48,-10.30 12.51,-10.09 12.47,-9.88 12.44,-9.67 12.34,-9.48 12.24,-9.30 12.09,-9.15 11.93,-9.00 11.74,-8.92 11.54,-8.83 11.33,-8.80 11.12,-8.78 10.91,-8.83 10.71,-8.87 10.53,-8.98 10.34,-9.09 10.21,-9.26 10.07,-9.42 9.99,-9.62 9.91,-9.81 9.90,-10.03 9.89,-10.24 9.95,-10.44 10.01,-10.65 10.13,-10.82 10.24,-11.00 10.41,-11.13 10.58,-11.26 10.79,-11.32 10.99,-11.39 11.20,-11.39 11.41,-11.39 11.61,-11.32 11.81,-11.25 11.98,-11.12 12.15,-10.99 12.27,-10.82 12.39,-10.64 12.45,-10.44 12.50,-10.23 12.49,-10.02 12.48,-9.81 12.40,-9.61 12.32,-9.41 12.18,-9.25 12.04,-9.09 11.86,-8.98 11.68,-8.87 11.47,-8.83 11.26,-8.78 11.26,-8.78 11.26,-8.78 10.21,-8.35 9.16,-7.91 8.39,-7.09 7.63,-6.26 6.38,-4.45 5.13,-2.64 3.82,0.06 2.51,2.76 1.37,5.90 0.22,9.05 -0.63,12.10 -1.49,15.14 -1.62,15.44 -1.74,15.73 -1.93,15.98 -2.12,16.24 -2.36,16.44 -2.61,16.64 -2.90,16.78 -3.18,16.92 -3.49,16.98 -3.80,17.05 -4.12,17.04 -4.44,17.03 -4.74,16.94 -5.05,16.85 -5.32,16.70 -5.60,16.54 -5.83,16.32 -6.06,16.10 -6.23,15.83 -6.40,15.57 -6.50,15.27 -6.60,14.97 -6.63,14.65 -6.66,14.33 -6.61,14.02 -6.56,13.71 -6.05,12.13 -5.55,10.56 -4.55,7.81 -3.54,5.06 -2.54,2.33 -1.54,-0.40 -1.47,-0.58 -1.40,-0.76 -1.29,-0.92 -1.18,-1.07 -1.03,-1.20 -0.88,-1.32 -0.71,-1.41 -0.54,-1.50 -0.35,-1.54 -0.16,-1.59 0.02,-1.58 0.21,-1.58 0.40,-1.53 0.58,-1.48 0.75,-1.39 0.92,-1.30 1.07,-1.17 1.21,-1.04 1.32,-0.88 1.42,-0.72 1.49,-0.54 1.55,-0.35 1.57,-0.16 1.59,0.02 1.57,0.21 1.54,0.40 1.54,0.40 L 1.54,0.40 Z"/></g><g transform="translate(314.1796875 42.68359375) rotate(0 0.7578125 4.689453125)" stroke="none"><path fill="#000000" d="M 1.94,-0.11 Q 1.94,-0.11 2.51,2.26 3.09,4.63 3.12,5.95 3.15,7.27 3.13,7.60 3.11,7.94 3.01,8.25 2.91,8.57 2.73,8.86 2.56,9.14 2.32,9.38 2.08,9.61 1.80,9.79 1.51,9.96 1.19,10.06 0.87,10.15 0.54,10.17 0.20,10.19 -0.11,10.13 -0.44,10.07 -0.75,9.93 -1.05,9.79 -1.31,9.59 -1.58,9.38 -1.78,9.11 -1.99,8.85 -2.12,8.55 -2.26,8.24 -2.32,7.91 -2.38,7.58 -1.53,6.57 -0.68,5.56 -0.76,4.21 -0.85,2.85 -0.85,2.64 -0.85,2.42 -0.78,2.22 -0.72,2.02 -0.59,1.85 -0.46,1.68 -0.29,1.56 -0.11,1.44 0.09,1.39 0.29,1.33 0.50,1.34 0.71,1.35 0.91,1.43 1.11,1.51 1.27,1.64 1.43,1.78 1.54,1.96 1.65,2.14 1.70,2.35 1.75,2.56 1.72,2.77 1.70,2.98 1.61,3.17 1.52,3.37 1.38,3.52 1.23,3.68 1.05,3.78 0.86,3.88 0.65,3.91 0.44,3.95 0.23,3.91 0.02,3.88 -0.16,3.78 -0.35,3.68 -0.49,3.53 -0.64,3.37 -0.73,3.18 -0.82,2.99 -0.84,2.78 -0.87,2.57 -0.82,2.36 -0.78,2.15 -0.67,1.97 -0.56,1.79 -0.40,1.65 -0.23,1.51 -0.04,1.43 0.15,1.35 0.36,1.34 0.57,1.33 0.78,1.38 0.98,1.44 1.16,1.56 1.34,1.68 1.47,1.85 1.59,2.02 1.66,2.22 1.73,2.42 1.73,2.42 1.73,2.42 2.44,4.84 3.15,7.27 3.13,7.60 3.11,7.93 3.01,8.25 2.91,8.57 2.73,8.86 2.56,9.14 2.32,9.38 2.08,9.61 1.80,9.79 1.51,9.96 1.19,10.06 0.87,10.15 0.54,10.17 0.20,10.19 -0.11,10.13 -0.44,10.07 -0.75,9.93 -1.05,9.79 -1.31,9.59 -1.58,9.38 -1.78,9.11 -1.99,8.85 -2.12,8.55 -2.26,8.24 -2.32,7.91 -2.38,7.58 -2.46,6.27 -2.55,4.95 -2.24,2.53 -1.94,0.11 -1.92,-0.12 -1.91,-0.35 -1.84,-0.58 -1.77,-0.80 -1.64,-1.00 -1.52,-1.20 -1.35,-1.37 -1.19,-1.53 -0.99,-1.65 -0.79,-1.77 -0.56,-1.84 -0.34,-1.91 -0.10,-1.92 0.12,-1.94 0.35,-1.89 0.58,-1.85 0.79,-1.75 1.01,-1.66 1.19,-1.51 1.38,-1.36 1.52,-1.18 1.66,-0.99 1.76,-0.78 1.85,-0.57 1.90,-0.34 1.94,-0.10 1.94,-0.10 L 1.94,-0.11 Z"/></g><g transform="translate(323.9375 20.80078125) rotate(0 0.046875 -0.142578125)" stroke="none"><path fill="#000000" d="M 2.02,-0.62 Q 2.02,-0.62 2.05,-0.12 2.08,0.38 1.87,0.84 1.66,1.30 1.26,1.61 0.86,1.93 0.37,2.02 -0.12,2.11 -0.61,1.96 -1.09,1.81 -1.45,1.45 -1.81,1.09 -1.96,0.61 -2.11,0.12 -2.02,-0.37 -1.93,-0.86 -1.61,-1.26 -1.30,-1.66 -0.84,-1.87 -0.38,-2.08 0.12,-2.05 0.63,-2.02 1.06,-1.75 1.49,-1.49 1.75,-1.06 L 2.02,-0.62 Z"/></g><g transform="translate(339.09375 35.76953125) rotate(0 -3.740234375 15.15625)" stroke="none"><path fill="#000000" d="M 1.10,1.80 Q 1.10,1.80 -1.69,3.93 -4.50,6.07 -6.62,9.19 -8.74,12.32 -9.68,15.11 -10.63,17.90 -10.42,19.92 -10.21,21.95 -9.09,23.21 -7.97,24.48 -6.24,25.18 -4.50,25.88 -1.95,26.07 0.60,26.27 3.30,26.23 6.00,26.20 6.21,26.17 6.42,26.15 6.63,26.19 6.84,26.24 7.02,26.35 7.20,26.46 7.34,26.62 7.48,26.78 7.56,26.97 7.64,27.17 7.65,27.38 7.67,27.60 7.61,27.80 7.56,28.01 7.44,28.18 7.32,28.36 7.15,28.49 6.98,28.62 6.78,28.69 6.58,28.76 6.37,28.76 6.16,28.76 5.95,28.69 5.75,28.63 5.58,28.50 5.41,28.37 5.29,28.20 5.17,28.02 5.11,27.82 5.06,27.61 5.07,27.40 5.08,27.19 5.15,26.99 5.23,26.79 5.37,26.63 5.50,26.47 5.69,26.36 5.87,26.24 6.07,26.20 6.28,26.15 6.49,26.17 6.70,26.19 6.90,26.28 7.09,26.37 7.25,26.52 7.40,26.66 7.50,26.85 7.60,27.03 7.64,27.24 7.67,27.45 7.64,27.66 7.61,27.87 7.51,28.06 7.41,28.25 7.26,28.40 7.10,28.54 6.91,28.63 6.72,28.72 6.72,28.72 6.72,28.72 3.48,30.38 0.23,32.04 -3.42,31.70 -7.09,31.35 -9.87,29.77 -12.65,28.19 -14.34,25.48 -16.03,22.77 -16.14,19.41 -16.25,16.06 -14.87,12.48 -13.50,8.90 -10.54,5.12 -7.58,1.33 -4.34,-0.23 -1.10,-1.80 -0.87,-1.91 -0.64,-2.01 -0.39,-2.06 -0.14,-2.11 0.11,-2.09 0.36,-2.08 0.61,-2.01 0.85,-1.93 1.07,-1.80 1.29,-1.67 1.47,-1.49 1.65,-1.31 1.79,-1.09 1.92,-0.88 2.00,-0.63 2.08,-0.39 2.09,-0.13 2.11,0.11 2.06,0.36 2.02,0.61 1.92,0.85 1.81,1.08 1.66,1.28 1.50,1.48 1.30,1.64 1.10,1.80 1.10,1.80 L 1.10,1.80 Z"/></g><g transform="translate(564.75390625 215.76953125) rotate(0 12.126953125 15.015625)" stroke="none"><path fill="#000000" d="M 1.31,-0.65 Q 1.31,-0.65 3.02,1.31 4.73,3.28 6.17,5.74 7.60,8.19 9.40,10.75 11.19,13.32 13.19,15.68 15.18,18.05 17.51,20.42 19.84,22.79 21.32,24.38 22.80,25.98 23.64,27.40 24.49,28.83 24.64,28.98 24.78,29.14 24.86,29.34 24.95,29.53 24.96,29.74 24.98,29.95 24.93,30.16 24.88,30.37 24.77,30.55 24.65,30.73 24.49,30.86 24.32,30.99 24.12,31.07 23.93,31.14 23.71,31.15 23.50,31.15 23.30,31.09 23.09,31.03 22.92,30.91 22.75,30.78 22.62,30.61 22.50,30.44 22.44,30.24 22.37,30.03 22.38,29.82 22.38,29.61 22.46,29.41 22.53,29.21 22.66,29.04 22.79,28.88 22.97,28.76 23.15,28.65 23.36,28.60 23.56,28.54 23.77,28.56 23.99,28.58 24.18,28.66 24.38,28.74 24.54,28.88 24.69,29.03 24.80,29.21 24.90,29.40 24.95,29.60 24.99,29.81 24.96,30.02 24.93,30.23 24.84,30.42 24.74,30.61 24.59,30.77 24.44,30.92 24.25,31.01 24.06,31.11 23.85,31.14 23.64,31.17 23.43,31.13 23.22,31.09 23.04,30.98 22.85,30.88 22.85,30.88 22.85,30.88 21.09,30.22 19.33,29.56 17.65,28.11 15.98,26.65 13.44,24.14 10.90,21.64 8.76,19.08 6.62,16.51 4.70,13.76 2.78,11.00 1.26,8.38 -0.26,5.75 -0.78,3.20 -1.31,0.65 -1.37,0.48 -1.43,0.31 -1.45,0.14 -1.46,-0.03 -1.44,-0.21 -1.41,-0.38 -1.35,-0.54 -1.28,-0.71 -1.17,-0.85 -1.07,-1.00 -0.93,-1.11 -0.80,-1.22 -0.64,-1.30 -0.48,-1.38 -0.31,-1.42 -0.14,-1.46 0.03,-1.45 0.21,-1.45 0.38,-1.40 0.55,-1.36 0.70,-1.27 0.86,-1.18 0.99,-1.06 1.12,-0.94 1.21,-0.79 1.31,-0.65 1.31,-0.65 L 1.31,-0.65 Z"/></g><g transform="translate(564.47265625 248.546875) rotate(0 16.91015625 -16.861328125)" stroke="none"><path fill="#000000" d="M -1.42,-1.56 Q -1.42,-1.56 1.37,-4.56 4.17,-7.55 7.39,-10.75 10.61,-13.94 14.87,-18.22 19.12,-22.50 22.30,-25.68 25.48,-28.86 27.53,-30.88 29.59,-32.90 30.57,-33.49 31.56,-34.08 31.59,-34.29 31.62,-34.50 31.71,-34.69 31.80,-34.88 31.95,-35.03 32.10,-35.18 32.29,-35.28 32.48,-35.37 32.69,-35.40 32.90,-35.43 33.11,-35.39 33.32,-35.35 33.51,-35.25 33.69,-35.15 33.83,-34.99 33.98,-34.83 34.06,-34.64 34.15,-34.44 34.17,-34.23 34.18,-34.02 34.13,-33.81 34.08,-33.61 33.97,-33.43 33.86,-33.25 33.69,-33.11 33.53,-32.98 33.33,-32.90 33.13,-32.83 32.92,-32.82 32.70,-32.82 32.50,-32.88 32.30,-32.94 32.12,-33.06 31.95,-33.18 31.83,-33.36 31.70,-33.53 31.64,-33.73 31.57,-33.93 31.58,-34.15 31.58,-34.36 31.66,-34.56 31.73,-34.76 31.86,-34.93 31.99,-35.09 32.17,-35.21 32.35,-35.32 32.55,-35.37 32.76,-35.43 32.97,-35.41 33.18,-35.40 33.38,-35.31 33.58,-35.23 33.73,-35.09 33.89,-34.95 34.00,-34.76 34.10,-34.58 34.15,-34.37 34.19,-34.16 34.19,-34.16 34.19,-34.16 33.87,-31.59 33.55,-29.01 31.54,-26.92 29.53,-24.82 26.34,-21.64 23.16,-18.46 18.87,-14.18 14.57,-9.90 11.24,-6.67 7.91,-3.44 4.67,-0.93 1.42,1.56 1.21,1.70 1.00,1.85 0.76,1.95 0.53,2.04 0.28,2.07 0.02,2.11 -0.22,2.08 -0.47,2.05 -0.71,1.97 -0.95,1.88 -1.16,1.74 -1.37,1.59 -1.55,1.41 -1.72,1.22 -1.84,0.99 -1.96,0.77 -2.02,0.52 -2.09,0.28 -2.09,0.02 -2.09,-0.22 -2.04,-0.47 -1.98,-0.72 -1.86,-0.95 -1.75,-1.17 -1.58,-1.36 -1.42,-1.56 -1.42,-1.56 L -1.42,-1.56 Z"/></g><g transform="translate(823.671875 213.2109375) rotate(0 7.24609375 30.31640625)" stroke="none"><path fill="#000000" d="M 2.11,0.34 Q 2.11,0.34 1.84,3.54 1.57,6.74 1.41,9.39 1.24,12.04 1.46,13.86 1.67,15.69 2.34,16.79 3.01,17.89 4.70,18.61 6.40,19.33 7.82,19.43 9.23,19.54 10.75,19.15 12.27,18.75 14.21,17.90 16.15,17.06 17.43,16.48 18.72,15.91 19.62,15.64 20.53,15.37 20.86,15.29 21.19,15.20 21.53,15.19 21.87,15.18 22.20,15.26 22.53,15.33 22.84,15.48 23.14,15.64 23.40,15.86 23.66,16.08 23.86,16.35 24.06,16.63 24.18,16.94 24.31,17.26 24.36,17.59 24.41,17.93 24.37,18.27 24.34,18.61 24.23,18.93 24.11,19.25 23.92,19.53 23.74,19.81 23.49,20.04 23.24,20.27 22.94,20.44 22.64,20.60 21.08,24.06 19.52,27.53 17.55,30.77 15.57,34.02 13.09,37.85 10.60,41.68 7.29,46.44 3.99,51.20 1.91,54.21 -0.16,57.23 -2.91,58.94 -5.65,60.64 -5.82,60.77 -6.00,60.89 -6.20,60.96 -6.40,61.02 -6.61,61.02 -6.83,61.01 -7.03,60.94 -7.23,60.87 -7.39,60.74 -7.56,60.61 -7.68,60.43 -7.79,60.25 -7.84,60.05 -7.90,59.84 -7.88,59.63 -7.87,59.42 -7.78,59.22 -7.70,59.03 -7.56,58.87 -7.42,58.71 -7.24,58.60 -7.05,58.49 -6.84,58.45 -6.64,58.41 -6.43,58.44 -6.21,58.46 -6.02,58.56 -5.83,58.65 -5.68,58.80 -5.53,58.95 -5.43,59.14 -5.34,59.33 -5.31,59.54 -5.28,59.75 -5.32,59.96 -5.35,60.17 -5.46,60.35 -5.56,60.54 -5.72,60.68 -5.87,60.82 -6.07,60.91 -6.26,60.99 -6.47,61.01 -6.69,61.03 -6.89,60.98 -7.10,60.93 -7.28,60.82 -7.46,60.71 -7.59,60.54 -7.73,60.38 -7.80,60.18 -7.88,59.98 -7.89,59.77 -7.89,59.56 -7.83,59.35 -7.77,59.15 -7.65,58.98 -7.53,58.80 -7.53,58.80 -7.53,58.80 -6.24,56.40 -4.95,54.01 -2.93,50.89 -0.91,47.78 2.35,43.10 5.61,38.42 8.07,34.67 10.53,30.92 12.51,27.73 14.49,24.55 15.92,22.17 17.35,19.79 18.94,17.58 20.53,15.37 20.86,15.29 21.19,15.20 21.53,15.19 21.87,15.18 22.20,15.26 22.53,15.33 22.84,15.48 23.14,15.64 23.40,15.86 23.66,16.07 23.86,16.35 24.06,16.63 24.18,16.94 24.31,17.26 24.36,17.59 24.41,17.93 24.37,18.27 24.34,18.61 24.23,18.93 24.11,19.25 23.92,19.53 23.74,19.81 23.49,20.04 23.24,20.27 22.94,20.44 22.64,20.60 21.81,20.82 20.98,21.03 19.65,21.62 18.31,22.21 15.89,23.19 13.47,24.17 11.13,24.61 8.79,25.06 6.77,24.84 4.75,24.62 2.88,23.93 1.02,23.24 -0.41,21.91 -1.84,20.57 -2.82,18.47 -3.80,16.37 -4.00,14.00 -4.20,11.62 -3.92,8.75 -3.64,5.89 -2.88,2.77 -2.11,-0.34 -2.04,-0.59 -1.97,-0.84 -1.84,-1.06 -1.71,-1.29 -1.53,-1.47 -1.35,-1.66 -1.13,-1.80 -0.91,-1.93 -0.67,-2.02 -0.42,-2.10 -0.16,-2.12 0.08,-2.14 0.34,-2.10 0.59,-2.05 0.83,-1.95 1.07,-1.85 1.28,-1.70 1.48,-1.54 1.65,-1.34 1.81,-1.14 1.92,-0.90 2.03,-0.67 2.08,-0.42 2.13,-0.16 2.12,0.08 2.11,0.34 2.11,0.34 L 2.11,0.34 Z"/></g><g transform="translate(552.72265625 202.6015625) rotate(0 -3.7421875 -38.9375)" stroke="none"><path fill="#000000" d="M 0.02,1.52 Q 0.02,1.52 -1.57,2.23 -3.16,2.95 -4.71,2.80 -6.26,2.65 -7.84,2.28 -9.42,1.92 -11.09,1.36 -12.77,0.80 -15.20,-0.27 -17.63,-1.36 -19.86,-2.47 -22.09,-3.58 -24.28,-4.81 -26.47,-6.04 -28.70,-7.46 -30.92,-8.88 -33.10,-10.51 -35.28,-12.14 -37.29,-13.89 -39.29,-15.63 -41.48,-17.87 -43.66,-20.11 -45.41,-22.01 -47.15,-23.91 -48.66,-25.71 -50.17,-27.50 -51.65,-29.75 -53.13,-32.00 -54.08,-33.94 -55.02,-35.87 -55.58,-37.66 -56.13,-39.45 -56.38,-41.07 -56.63,-42.69 -56.73,-44.11 -56.82,-45.53 -56.69,-46.99 -56.56,-48.45 -56.24,-50.03 -55.92,-51.62 -55.65,-52.82 -55.39,-54.03 -55.02,-55.20 -54.66,-56.37 -53.97,-57.92 -53.27,-59.47 -52.39,-60.88 -51.51,-62.29 -50.49,-63.60 -49.46,-64.90 -48.34,-66.06 -47.21,-67.23 -46.11,-68.23 -45.01,-69.22 -43.80,-70.20 -42.58,-71.17 -40.68,-72.49 -38.78,-73.82 -37.10,-74.92 -35.42,-76.02 -33.79,-76.94 -32.16,-77.86 -30.61,-78.52 -29.07,-79.18 -27.21,-79.64 -25.35,-80.11 -23.75,-80.30 -22.15,-80.49 -20.74,-80.60 -19.34,-80.70 -17.95,-80.75 -16.55,-80.79 -15.14,-80.83 -13.73,-80.88 -11.82,-80.90 -9.91,-80.92 -8.37,-80.93 -6.83,-80.93 -5.48,-80.88 -4.13,-80.83 -2.83,-80.62 -1.53,-80.42 -0.09,-79.96 1.33,-79.49 2.41,-79.03 3.49,-78.56 4.45,-78.00 5.42,-77.45 6.98,-76.20 8.53,-74.95 9.46,-74.09 10.38,-73.23 11.24,-72.47 12.11,-71.71 13.00,-70.89 13.89,-70.07 14.77,-69.20 15.65,-68.32 16.77,-66.80 17.89,-65.28 18.74,-63.75 19.59,-62.22 20.30,-60.65 21.01,-59.08 21.57,-57.51 22.14,-55.94 22.58,-54.44 23.02,-52.95 23.43,-51.14 23.85,-49.34 24.16,-47.94 24.46,-46.55 24.71,-45.33 24.95,-44.12 25.16,-43.04 25.38,-41.95 25.65,-40.61 25.93,-39.27 26.16,-38.05 26.40,-36.82 26.62,-35.74 26.85,-34.66 27.06,-33.60 27.27,-32.54 27.65,-30.90 28.03,-29.26 28.34,-27.50 28.65,-25.75 28.75,-23.95 28.85,-22.16 28.86,-20.39 28.88,-18.61 28.49,-16.76 28.10,-14.91 27.45,-13.52 26.79,-12.12 26.06,-11.21 25.33,-10.30 23.81,-9.56 22.30,-8.82 20.40,-9.31 18.50,-9.81 17.52,-10.44 16.54,-11.07 15.62,-11.75 14.70,-12.43 13.77,-13.25 12.84,-14.07 11.80,-15.26 10.75,-16.45 9.99,-17.58 9.24,-18.70 8.66,-19.73 8.08,-20.75 7.01,-22.72 5.94,-24.68 5.36,-25.61 4.77,-26.55 4.69,-26.70 4.61,-26.85 4.45,-27.17 4.29,-27.49 4.21,-27.83 4.13,-28.18 4.13,-28.54 4.13,-28.90 4.22,-29.24 4.31,-29.59 4.48,-29.90 4.65,-30.22 4.89,-30.48 5.13,-30.75 5.43,-30.95 5.72,-31.15 6.06,-31.27 6.39,-31.39 6.75,-31.43 7.10,-31.47 7.46,-31.42 7.81,-31.38 8.14,-31.25 8.48,-31.12 8.77,-30.91 9.06,-30.70 9.29,-30.43 9.53,-30.16 10.34,-28.90 11.14,-27.64 12.69,-25.58 14.24,-23.53 15.04,-22.55 15.84,-21.58 16.58,-20.77 17.32,-19.96 18.87,-18.58 20.43,-17.20 21.63,-16.34 22.84,-15.49 23.41,-16.43 23.99,-17.37 24.67,-18.90 25.36,-20.43 26.51,-22.23 27.67,-24.03 28.40,-24.98 29.14,-25.93 30.35,-27.43 31.57,-28.93 32.72,-30.31 33.87,-31.69 34.85,-32.91 35.84,-34.13 36.59,-35.11 37.35,-36.10 38.63,-37.61 39.91,-39.12 41.29,-40.42 42.68,-41.71 43.59,-42.56 44.51,-43.41 44.57,-43.48 44.63,-43.56 44.94,-43.74 45.25,-43.92 45.60,-44.02 45.94,-44.13 46.30,-44.14 46.66,-44.16 47.01,-44.09 47.36,-44.02 47.68,-43.86 48.01,-43.71 48.28,-43.49 48.56,-43.26 48.78,-42.98 48.99,-42.69 49.13,-42.36 49.28,-42.03 49.33,-41.68 49.39,-41.33 49.37,-40.97 49.34,-40.61 49.23,-40.27 49.11,-39.93 48.92,-39.63 48.73,-39.33 48.48,-39.08 48.22,-38.83 45.94,-38.85 43.66,-38.87 43.45,-38.84 43.24,-38.81 43.03,-38.84 42.82,-38.87 42.63,-38.97 42.44,-39.07 42.30,-39.23 42.15,-39.38 42.06,-39.57 41.97,-39.77 41.95,-39.98 41.93,-40.19 41.97,-40.40 42.02,-40.60 42.13,-40.79 42.24,-40.97 42.40,-41.11 42.56,-41.24 42.76,-41.32 42.95,-41.40 43.17,-41.41 43.38,-41.42 43.58,-41.37 43.79,-41.31 43.96,-41.19 44.14,-41.07 44.27,-40.90 44.40,-40.74 44.47,-40.53 44.53,-40.33 44.53,-40.12 44.53,-39.91 44.47,-39.71 44.40,-39.50 44.27,-39.34 44.14,-39.17 43.97,-39.05 43.79,-38.93 43.58,-38.87 43.38,-38.81 43.17,-38.83 42.96,-38.84 42.76,-38.92 42.56,-38.99 42.40,-39.13 42.24,-39.27 42.13,-39.45 42.02,-39.63 41.97,-39.84 41.93,-40.05 41.95,-40.26 41.97,-40.47 42.06,-40.66 42.15,-40.86 42.30,-41.01 42.44,-41.16 42.63,-41.26 42.82,-41.36 42.82,-41.36 42.82,-41.36 43.73,-42.46 44.63,-43.56 44.94,-43.74 45.25,-43.92 45.60,-44.02 45.94,-44.13 46.30,-44.14 46.66,-44.16 47.01,-44.09 47.36,-44.02 47.68,-43.86 48.01,-43.71 48.28,-43.49 48.56,-43.26 48.78,-42.98 48.99,-42.69 49.13,-42.36 49.28,-42.03 49.33,-41.68 49.39,-41.33 49.37,-40.97 49.34,-40.61 49.23,-40.27 49.11,-39.93 48.92,-39.63 48.73,-39.33 48.48,-39.08 48.22,-38.83 47.41,-38.08 46.59,-37.33 45.42,-36.26 44.25,-35.18 43.13,-33.85 42.00,-32.52 41.20,-31.48 40.39,-30.43 39.38,-29.18 38.37,-27.94 37.24,-26.59 36.12,-25.24 34.94,-23.79 33.76,-22.34 32.59,-20.81 31.42,-19.27 30.64,-17.79 29.87,-16.31 29.25,-14.93 28.63,-13.55 27.74,-12.37 26.85,-11.18 25.50,-10.40 24.15,-9.61 22.93,-9.62 21.71,-9.63 20.61,-10.12 19.51,-10.62 18.09,-11.62 16.68,-12.63 15.61,-13.51 14.54,-14.38 13.73,-15.17 12.93,-15.96 12.08,-16.88 11.24,-17.81 10.37,-18.88 9.50,-19.95 7.93,-22.03 6.37,-24.12 5.49,-25.48 4.61,-26.85 4.45,-27.17 4.29,-27.49 4.21,-27.83 4.13,-28.18 4.13,-28.54 4.13,-28.90 4.22,-29.24 4.31,-29.59 4.48,-29.90 4.65,-30.22 4.89,-30.48 5.13,-30.75 5.43,-30.95 5.72,-31.15 6.06,-31.27 6.39,-31.39 6.75,-31.43 7.10,-31.47 7.46,-31.42 7.81,-31.38 8.14,-31.25 8.48,-31.12 8.77,-30.91 9.06,-30.70 9.29,-30.43 9.53,-30.16 9.66,-30.05 9.80,-29.94 10.53,-28.75 11.26,-27.56 12.30,-25.62 13.34,-23.68 14.31,-22.06 15.28,-20.43 16.80,-18.88 18.33,-17.33 19.91,-16.21 21.48,-15.09 22.04,-16.34 22.59,-17.58 22.71,-18.94 22.82,-20.30 22.80,-21.99 22.77,-23.67 22.62,-24.93 22.46,-26.19 22.12,-27.85 21.77,-29.50 21.37,-31.46 20.96,-33.42 20.72,-34.56 20.48,-35.70 20.26,-36.88 20.04,-38.05 19.75,-39.43 19.47,-40.80 19.26,-41.87 19.05,-42.94 18.82,-44.10 18.59,-45.26 18.29,-46.63 17.99,-48.00 17.62,-49.63 17.25,-51.26 16.87,-52.59 16.48,-53.92 16.00,-55.28 15.52,-56.64 14.93,-57.99 14.34,-59.34 13.68,-60.57 13.01,-61.81 12.22,-62.95 11.43,-64.10 10.65,-64.89 9.86,-65.67 9.01,-66.45 8.16,-67.23 7.23,-68.05 6.30,-68.87 5.44,-69.68 4.58,-70.48 3.49,-71.40 2.40,-72.31 0.92,-73.08 -0.55,-73.84 -2.46,-74.36 -4.37,-74.87 -5.58,-74.92 -6.79,-74.97 -8.32,-74.96 -9.85,-74.95 -11.70,-74.94 -13.54,-74.92 -14.96,-74.87 -16.37,-74.83 -17.64,-74.79 -18.91,-74.75 -20.19,-74.66 -21.47,-74.57 -22.72,-74.44 -23.98,-74.31 -25.37,-73.99 -26.76,-73.68 -28.00,-73.17 -29.24,-72.66 -30.69,-71.85 -32.15,-71.03 -33.76,-69.97 -35.38,-68.91 -37.12,-67.71 -38.87,-66.51 -39.94,-65.66 -41.02,-64.81 -41.99,-63.93 -42.96,-63.06 -43.88,-62.13 -44.80,-61.21 -45.64,-60.15 -46.49,-59.10 -47.18,-58.04 -47.87,-56.97 -48.73,-54.86 -49.59,-52.74 -49.85,-51.57 -50.11,-50.41 -50.51,-48.16 -50.91,-45.91 -50.84,-44.72 -50.76,-43.54 -50.61,-42.35 -50.45,-41.17 -50.06,-39.82 -49.66,-38.47 -48.89,-36.88 -48.11,-35.29 -46.83,-33.33 -45.54,-31.36 -44.13,-29.66 -42.71,-27.96 -41.04,-26.13 -39.37,-24.29 -37.36,-22.22 -35.35,-20.15 -33.51,-18.55 -31.67,-16.94 -29.68,-15.43 -27.68,-13.93 -25.60,-12.59 -23.52,-11.25 -21.47,-10.07 -19.41,-8.90 -17.30,-7.82 -15.19,-6.74 -13.03,-5.74 -10.88,-4.75 -9.46,-4.26 -8.04,-3.77 -6.83,-3.46 -5.61,-3.15 -4.43,-3.00 -3.25,-2.84 -1.64,-2.18 -0.02,-1.52 0.15,-1.50 0.33,-1.48 0.51,-1.42 0.68,-1.35 0.83,-1.25 0.99,-1.15 1.11,-1.02 1.23,-0.88 1.32,-0.72 1.41,-0.56 1.46,-0.38 1.50,-0.20 1.51,-0.02 1.51,0.15 1.47,0.33 1.43,0.51 1.34,0.67 1.26,0.84 1.14,0.98 1.02,1.12 0.87,1.22 0.72,1.33 0.55,1.40 0.38,1.47 0.20,1.49 0.02,1.52 0.02,1.52 L 0.02,1.52 Z"/></g><g transform="translate(498.72265625 46.09375) rotate(0 3.458984375 11.228515625)" stroke="none"><path fill="#000000" d="M 0.19,1.85 Q 0.19,1.85 -0.68,2.22 -1.56,2.60 -2.44,3.65 -3.32,4.70 -4.40,6.20 -5.48,7.71 -6.43,9.65 -7.39,11.59 -7.97,13.67 -8.55,15.75 -8.50,17.68 -8.45,19.62 -6.80,19.25 -5.14,18.88 -3.74,17.21 -2.34,15.54 -0.86,12.90 0.62,10.27 1.39,8.33 2.17,6.39 2.47,5.21 2.77,4.03 2.91,3.38 3.04,2.73 3.16,2.44 3.28,2.15 3.46,1.89 3.65,1.64 3.89,1.44 4.13,1.24 4.41,1.10 4.69,0.96 4.99,0.89 5.30,0.82 5.61,0.83 5.93,0.84 6.23,0.92 6.53,1.01 6.81,1.16 7.08,1.31 7.31,1.52 7.54,1.74 7.71,2.00 7.88,2.26 7.98,2.56 8.09,2.85 8.12,3.16 8.15,3.48 8.10,3.79 8.06,4.10 9.00,5.15 9.95,6.20 11.05,7.46 12.16,8.72 13.13,9.74 14.10,10.77 16.26,12.22 18.42,13.68 18.61,13.75 18.81,13.83 18.97,13.97 19.14,14.11 19.25,14.29 19.36,14.47 19.40,14.68 19.45,14.89 19.43,15.10 19.41,15.31 19.32,15.50 19.23,15.69 19.08,15.85 18.94,16.00 18.75,16.10 18.56,16.20 18.35,16.24 18.14,16.27 17.93,16.24 17.72,16.21 17.53,16.11 17.35,16.01 17.20,15.85 17.05,15.70 16.96,15.51 16.87,15.31 16.85,15.10 16.83,14.89 16.87,14.68 16.92,14.48 17.03,14.29 17.14,14.11 17.30,13.97 17.46,13.84 17.66,13.76 17.85,13.68 18.06,13.67 18.28,13.65 18.48,13.71 18.69,13.77 18.86,13.89 19.04,14.00 19.17,14.17 19.30,14.34 19.37,14.54 19.43,14.74 19.43,14.96 19.44,15.17 19.37,15.37 19.30,15.57 19.17,15.74 19.04,15.91 18.87,16.03 18.69,16.15 18.49,16.21 18.28,16.27 18.07,16.25 17.86,16.24 17.86,16.24 17.86,16.24 15.25,16.15 12.65,16.05 11.47,15.25 10.29,14.46 9.18,13.33 8.07,12.19 6.72,10.56 5.37,8.93 4.37,6.93 3.37,4.94 3.21,3.83 3.04,2.73 3.16,2.44 3.28,2.15 3.46,1.89 3.65,1.64 3.89,1.44 4.13,1.24 4.41,1.10 4.69,0.96 4.99,0.89 5.30,0.82 5.61,0.83 5.93,0.84 6.23,0.92 6.53,1.01 6.80,1.16 7.08,1.31 7.31,1.52 7.54,1.74 7.71,2.00 7.88,2.26 7.98,2.56 8.09,2.85 8.12,3.16 8.15,3.48 8.10,3.79 8.06,4.10 7.88,4.73 7.71,5.37 7.29,6.84 6.87,8.30 5.95,10.53 5.03,12.76 3.28,15.84 1.54,18.92 -0.41,21.08 -2.36,23.23 -4.65,24.33 -6.94,25.42 -9.09,24.74 -11.24,24.07 -12.43,22.07 -13.62,20.07 -13.65,17.20 -13.68,14.32 -12.90,11.76 -12.12,9.19 -10.89,6.87 -9.67,4.54 -8.19,2.68 -6.70,0.82 -4.64,-0.67 -2.57,-2.16 -1.38,-2.01 -0.19,-1.85 0.02,-1.84 0.25,-1.84 0.47,-1.78 0.68,-1.73 0.88,-1.62 1.08,-1.51 1.24,-1.36 1.41,-1.21 1.53,-1.02 1.66,-0.83 1.73,-0.62 1.81,-0.41 1.83,-0.19 1.86,0.02 1.83,0.25 1.80,0.47 1.71,0.68 1.63,0.89 1.50,1.07 1.37,1.25 1.20,1.40 1.03,1.54 0.83,1.65 0.63,1.75 0.41,1.80 0.19,1.85 0.19,1.85 L 0.19,1.85 Z"/></g><g transform="translate(535.859375 42.96875) rotate(0 6.34765625 11.51171875)" stroke="none"><path fill="#000000" d="M 1.76,0.27 Q 1.76,0.27 1.65,2.93 1.54,5.59 0.93,8.41 0.31,11.22 -0.25,13.78 -0.81,16.33 -1.15,18.18 -1.49,20.03 -1.62,21.37 -1.76,22.72 -1.83,23.01 -1.91,23.29 -2.06,23.55 -2.20,23.80 -2.40,24.02 -2.60,24.23 -2.85,24.39 -3.10,24.55 -3.38,24.65 -3.66,24.75 -3.95,24.77 -4.24,24.80 -4.53,24.76 -4.83,24.71 -5.10,24.60 -5.37,24.49 -5.61,24.32 -5.85,24.14 -6.04,23.92 -6.22,23.69 -6.35,23.42 -6.48,23.16 -6.55,22.87 -6.61,22.58 -6.60,22.29 -6.59,21.99 -5.18,20.02 -3.76,18.05 -2.37,16.16 -0.98,14.27 0.47,12.35 1.93,10.42 3.33,8.78 4.73,7.15 5.66,6.29 6.60,5.44 8.70,5.61 10.80,5.77 11.50,6.69 12.20,7.61 12.59,9.42 12.99,11.23 13.16,13.08 13.33,14.93 14.47,14.66 15.60,14.38 15.78,14.27 15.96,14.15 16.16,14.10 16.37,14.05 16.58,14.07 16.79,14.09 16.99,14.17 17.18,14.25 17.34,14.40 17.50,14.54 17.60,14.72 17.71,14.91 17.75,15.12 17.79,15.33 17.76,15.54 17.73,15.75 17.63,15.94 17.54,16.13 17.39,16.28 17.24,16.43 17.05,16.52 16.86,16.62 16.65,16.64 16.44,16.67 16.23,16.63 16.02,16.59 15.83,16.49 15.65,16.38 15.51,16.22 15.37,16.06 15.28,15.87 15.20,15.67 15.18,15.46 15.17,15.25 15.22,15.04 15.27,14.84 15.38,14.66 15.50,14.48 15.66,14.35 15.83,14.21 16.03,14.14 16.23,14.07 16.44,14.06 16.65,14.06 16.86,14.12 17.06,14.18 17.23,14.31 17.41,14.43 17.53,14.61 17.65,14.78 17.71,14.98 17.78,15.19 17.77,15.40 17.76,15.61 17.69,15.81 17.62,16.01 17.48,16.17 17.35,16.34 17.35,16.34 17.35,16.34 15.36,18.38 13.37,20.42 11.63,20.03 9.90,19.64 8.96,17.50 8.03,15.37 7.92,13.76 7.81,12.15 7.63,10.27 7.45,8.40 7.98,9.39 8.50,10.39 7.19,11.90 5.88,13.42 4.43,15.32 2.98,17.22 1.49,19.22 0.00,21.22 -0.87,21.97 -1.76,22.72 -1.83,23.01 -1.91,23.29 -2.06,23.55 -2.20,23.80 -2.40,24.02 -2.60,24.23 -2.85,24.39 -3.10,24.55 -3.38,24.65 -3.66,24.75 -3.95,24.77 -4.24,24.80 -4.53,24.76 -4.83,24.71 -5.10,24.60 -5.37,24.49 -5.61,24.32 -5.85,24.14 -6.03,23.92 -6.22,23.69 -6.35,23.42 -6.48,23.16 -6.55,22.87 -6.61,22.58 -6.60,22.29 -6.59,21.99 -6.71,21.63 -6.82,21.27 -6.67,20.17 -6.52,19.07 -6.13,17.12 -5.75,15.17 -5.12,12.63 -4.49,10.10 -3.83,7.48 -3.17,4.85 -2.47,2.29 -1.76,-0.27 -1.70,-0.48 -1.64,-0.69 -1.54,-0.87 -1.43,-1.06 -1.28,-1.22 -1.13,-1.37 -0.95,-1.49 -0.77,-1.60 -0.57,-1.67 -0.36,-1.74 -0.15,-1.76 0.06,-1.78 0.27,-1.75 0.48,-1.71 0.68,-1.63 0.88,-1.55 1.05,-1.42 1.22,-1.29 1.36,-1.12 1.50,-0.96 1.59,-0.76 1.69,-0.57 1.73,-0.36 1.77,-0.15 1.77,0.06 1.76,0.27 1.76,0.27 L 1.76,0.27 Z"/></g><g transform="translate(571.859375 39.2734375) rotate(0 -3.125 15.39453125)" stroke="none"><path fill="#000000" d="M 1.79,0.37 Q 1.79,0.37 1.39,4.10 0.99,7.82 0.12,11.35 -0.73,14.88 -1.47,18.02 -2.20,21.16 -2.67,23.87 -3.14,26.58 -4.08,28.36 -5.01,30.14 -5.08,30.34 -5.14,30.54 -5.27,30.71 -5.39,30.89 -5.57,31.01 -5.74,31.13 -5.95,31.19 -6.15,31.25 -6.36,31.24 -6.57,31.23 -6.77,31.16 -6.97,31.08 -7.14,30.95 -7.30,30.81 -7.41,30.63 -7.53,30.45 -7.57,30.25 -7.62,30.04 -7.60,29.83 -7.58,29.62 -7.50,29.42 -7.41,29.23 -7.27,29.07 -7.13,28.92 -6.94,28.81 -6.75,28.71 -6.54,28.67 -6.34,28.63 -6.13,28.67 -5.91,28.70 -5.73,28.79 -5.54,28.89 -5.39,29.04 -5.24,29.19 -5.15,29.38 -5.05,29.58 -5.03,29.79 -5.00,30.00 -5.04,30.21 -5.09,30.41 -5.19,30.60 -5.30,30.78 -5.46,30.92 -5.62,31.06 -5.81,31.14 -6.01,31.23 -6.22,31.24 -6.43,31.26 -6.64,31.20 -6.85,31.15 -7.02,31.03 -7.20,30.92 -7.33,30.75 -7.46,30.58 -7.53,30.38 -7.61,30.18 -7.61,29.97 -7.61,29.76 -7.61,29.76 -7.61,29.76 -7.99,27.74 -8.37,25.73 -7.92,22.81 -7.47,19.89 -6.68,16.72 -5.89,13.54 -4.96,10.16 -4.04,6.77 -2.92,3.19 -1.79,-0.37 -1.72,-0.58 -1.65,-0.79 -1.53,-0.98 -1.41,-1.16 -1.25,-1.31 -1.09,-1.47 -0.90,-1.58 -0.71,-1.69 -0.49,-1.75 -0.28,-1.81 -0.06,-1.82 0.15,-1.82 0.37,-1.78 0.58,-1.73 0.78,-1.64 0.98,-1.54 1.15,-1.40 1.32,-1.26 1.46,-1.08 1.59,-0.91 1.67,-0.70 1.76,-0.50 1.79,-0.28 1.83,-0.06 1.81,0.15 1.79,0.37 1.79,0.37 L 1.79,0.37 Z"/></g><g transform="translate(563.99609375 58.6015625) rotate(0 5.400390625 -0.23828125)" stroke="none"><path fill="#000000" d="M -0.07,-1.79 Q -0.07,-1.79 4.35,-1.74 8.79,-1.70 9.00,-1.67 9.21,-1.65 9.40,-1.56 9.59,-1.47 9.75,-1.32 9.90,-1.17 10.00,-0.98 10.09,-0.79 10.13,-0.58 10.16,-0.37 10.12,-0.16 10.09,0.04 9.98,0.22 9.88,0.41 9.73,0.55 9.57,0.70 9.38,0.79 9.18,0.87 8.97,0.89 8.76,0.92 8.55,0.87 8.35,0.82 8.17,0.71 7.98,0.60 7.85,0.43 7.71,0.27 7.64,0.07 7.56,-0.12 7.55,-0.33 7.54,-0.54 7.60,-0.74 7.66,-0.95 7.78,-1.12 7.90,-1.30 8.07,-1.43 8.24,-1.55 8.44,-1.62 8.65,-1.68 8.86,-1.68 9.07,-1.68 9.27,-1.61 9.47,-1.54 9.64,-1.41 9.81,-1.28 9.93,-1.10 10.04,-0.92 10.10,-0.72 10.15,-0.51 10.14,-0.30 10.12,-0.09 10.04,0.10 9.96,0.29 9.82,0.45 9.68,0.61 9.50,0.72 9.32,0.83 9.11,0.87 8.90,0.92 8.90,0.92 8.90,0.92 4.49,1.35 0.07,1.79 -0.13,1.77 -0.35,1.76 -0.55,1.69 -0.76,1.62 -0.94,1.50 -1.13,1.39 -1.28,1.23 -1.43,1.08 -1.54,0.89 -1.64,0.70 -1.70,0.50 -1.77,0.29 -1.78,0.07 -1.78,-0.13 -1.74,-0.34 -1.70,-0.56 -1.61,-0.75 -1.52,-0.95 -1.38,-1.12 -1.24,-1.29 -1.07,-1.42 -0.90,-1.55 -0.70,-1.63 -0.50,-1.72 -0.29,-1.75 -0.07,-1.79 -0.07,-1.79 L -0.07,-1.79 Z"/></g><g transform="translate(594.9765625 55.6640625) rotate(0 -1.421875 8.904296875)" stroke="none"><path fill="#000000" d="M 2.11,0.07 Q 2.11,0.07 2.26,3.05 2.42,6.03 2.09,8.71 1.76,11.38 0.17,14.54 -1.42,17.71 -1.52,17.89 -1.62,18.08 -1.77,18.23 -1.93,18.37 -2.12,18.46 -2.31,18.55 -2.53,18.57 -2.74,18.59 -2.94,18.55 -3.15,18.50 -3.33,18.39 -3.52,18.28 -3.65,18.12 -3.79,17.95 -3.87,17.76 -3.94,17.56 -3.96,17.35 -3.97,17.13 -3.91,16.93 -3.85,16.73 -3.73,16.55 -3.61,16.38 -3.44,16.25 -3.27,16.12 -3.07,16.05 -2.87,15.99 -2.66,15.99 -2.44,15.99 -2.24,16.06 -2.04,16.12 -1.87,16.25 -1.70,16.38 -1.58,16.56 -1.47,16.74 -1.41,16.94 -1.35,17.15 -1.37,17.36 -1.38,17.57 -1.46,17.77 -1.54,17.96 -1.68,18.13 -1.81,18.29 -2.00,18.40 -2.18,18.50 -2.39,18.55 -2.60,18.59 -2.81,18.57 -3.02,18.55 -3.21,18.46 -3.40,18.37 -3.56,18.22 -3.71,18.07 -3.81,17.88 -3.91,17.70 -3.94,17.49 -3.97,17.28 -3.94,17.07 -3.90,16.86 -3.90,16.86 -3.90,16.86 -3.74,13.75 -3.58,10.65 -3.22,8.24 -2.86,5.83 -2.48,2.88 -2.11,-0.07 -2.07,-0.32 -2.03,-0.58 -1.93,-0.81 -1.83,-1.05 -1.68,-1.25 -1.52,-1.45 -1.33,-1.62 -1.13,-1.78 -0.90,-1.89 -0.67,-2.00 -0.42,-2.05 -0.17,-2.10 0.07,-2.09 0.33,-2.08 0.57,-2.01 0.82,-1.94 1.04,-1.82 1.26,-1.69 1.44,-1.51 1.63,-1.34 1.76,-1.12 1.90,-0.91 1.98,-0.67 2.06,-0.43 2.09,-0.17 2.11,0.07 2.11,0.07 L 2.11,0.07 Z"/></g><g transform="translate(600.375 36.71484375) rotate(0 0.048828125 2.083984375)" stroke="none"><path fill="#000000" d="M 1.68,-0.52 Q 1.68,-0.52 1.70,-0.10 1.73,0.31 1.55,0.70 1.38,1.08 1.05,1.34 0.72,1.60 0.30,1.68 -0.10,1.75 -0.50,1.63 -0.91,1.50 -1.20,1.20 -1.50,0.91 -1.63,0.50 -1.75,0.10 -1.68,-0.30 -1.60,-0.72 -1.34,-1.05 -1.08,-1.38 -0.70,-1.55 -0.31,-1.73 0.10,-1.70 0.52,-1.68 0.88,-1.46 1.24,-1.24 1.46,-0.88 L 1.68,-0.52 Z"/></g><g transform="translate(680.4296875 42.2109375) rotate(0 -8.52734375 15.869140625)" stroke="none"><path fill="#000000" d="M 0.30,1.90 Q 0.30,1.90 -2.49,2.74 -5.29,3.57 -6.96,4.00 -8.64,4.43 -7.54,6.75 -6.45,9.06 -4.99,11.22 -3.53,13.38 -2.47,15.22 -1.42,17.07 -0.78,18.83 -0.15,20.60 -0.12,22.57 -0.09,24.54 -1.59,26.96 -3.09,29.37 -5.05,30.83 -7.02,32.28 -9.00,33.01 -10.98,33.73 -12.48,33.98 -13.98,34.23 -15.40,31.47 -16.82,28.72 -16.69,28.55 -16.57,28.37 -16.40,28.25 -16.22,28.13 -16.02,28.06 -15.82,28.00 -15.61,28.01 -15.39,28.02 -15.19,28.09 -14.99,28.16 -14.83,28.30 -14.66,28.43 -14.55,28.61 -14.44,28.79 -14.39,29.00 -14.33,29.20 -14.35,29.41 -14.37,29.63 -14.45,29.82 -14.54,30.02 -14.68,30.17 -14.82,30.33 -15.01,30.44 -15.19,30.54 -15.40,30.58 -15.61,30.62 -15.82,30.59 -16.03,30.56 -16.22,30.46 -16.41,30.37 -16.56,30.22 -16.71,30.07 -16.81,29.88 -16.90,29.69 -16.93,29.48 -16.96,29.27 -16.92,29.06 -16.88,28.85 -16.77,28.66 -16.67,28.48 -16.51,28.34 -16.35,28.20 -16.15,28.11 -15.96,28.03 -15.75,28.01 -15.53,28.00 -15.33,28.05 -15.12,28.10 -14.94,28.22 -14.76,28.33 -14.63,28.50 -14.50,28.66 -14.43,28.86 -14.35,29.06 -14.35,29.27 -14.34,29.49 -14.41,29.69 -14.47,29.89 -14.47,29.89 -14.47,29.89 -14.72,29.23 -14.98,28.56 -13.90,28.35 -12.82,28.14 -11.56,27.79 -10.29,27.44 -8.97,26.62 -7.66,25.80 -6.45,23.95 -5.24,22.11 -5.57,20.85 -5.89,19.59 -6.83,17.91 -7.78,16.24 -9.23,14.09 -10.68,11.94 -11.82,10.26 -12.95,8.58 -13.72,6.91 -14.49,5.24 -14.33,3.73 -14.17,2.22 -13.23,1.16 -12.29,0.10 -11.12,-0.35 -9.94,-0.81 -8.05,-1.27 -6.15,-1.72 -3.22,-1.81 -0.30,-1.90 -0.07,-1.91 0.15,-1.92 0.38,-1.87 0.61,-1.83 0.82,-1.73 1.03,-1.63 1.21,-1.48 1.39,-1.33 1.53,-1.15 1.67,-0.96 1.76,-0.74 1.85,-0.53 1.89,-0.30 1.92,-0.07 1.91,0.15 1.89,0.38 1.81,0.60 1.74,0.82 1.61,1.02 1.49,1.22 1.32,1.38 1.15,1.54 0.95,1.66 0.75,1.77 0.53,1.84 0.30,1.90 0.30,1.90 L 0.30,1.90 Z"/></g><g transform="translate(696.25 45.3359375) rotate(0 9.7109375 17.90625)" stroke="none"><path fill="#000000" d="M 1.96,-0.02 Q 1.96,-0.02 2.38,2.23 2.80,4.48 2.76,6.20 2.72,7.93 2.70,9.00 2.67,10.07 5.75,9.20 8.84,8.32 10.98,7.74 13.13,7.15 14.64,6.73 16.15,6.31 16.91,6.13 17.67,5.96 17.99,5.91 18.32,5.86 18.65,5.89 18.98,5.92 19.29,6.03 19.60,6.14 19.88,6.32 20.15,6.50 20.38,6.74 20.61,6.98 20.77,7.27 20.93,7.56 21.02,7.88 21.10,8.19 21.11,8.52 21.12,8.85 21.05,9.18 20.98,9.50 20.84,9.80 20.69,10.09 20.48,10.35 20.27,10.60 20.00,10.79 19.73,10.99 19.43,11.11 19.12,11.24 20.09,10.72 21.06,10.21 19.89,12.49 18.72,14.78 17.05,17.20 15.38,19.62 13.68,22.00 11.98,24.38 10.67,26.24 9.37,28.10 8.45,29.56 7.54,31.01 6.97,32.05 6.40,33.09 5.52,34.25 4.65,35.41 4.57,35.61 4.49,35.81 4.35,35.97 4.22,36.13 4.04,36.24 3.85,36.36 3.65,36.40 3.44,36.45 3.23,36.43 3.02,36.41 2.82,36.32 2.63,36.23 2.48,36.08 2.32,35.94 2.22,35.75 2.12,35.56 2.08,35.36 2.05,35.15 2.08,34.94 2.11,34.73 2.21,34.54 2.31,34.35 2.46,34.20 2.62,34.06 2.81,33.97 3.00,33.87 3.21,33.85 3.42,33.83 3.63,33.87 3.84,33.92 4.02,34.02 4.21,34.13 4.34,34.29 4.48,34.45 4.56,34.65 4.64,34.85 4.65,35.06 4.67,35.27 4.61,35.48 4.56,35.68 4.44,35.86 4.32,36.04 4.15,36.17 3.98,36.30 3.78,36.36 3.58,36.43 3.37,36.43 3.16,36.44 2.95,36.37 2.75,36.30 2.58,36.17 2.41,36.05 2.29,35.87 2.17,35.70 2.11,35.49 2.06,35.29 2.07,35.08 2.08,34.86 2.08,34.86 2.08,34.86 1.85,32.99 1.63,31.12 2.13,29.58 2.63,28.04 3.60,26.38 4.57,24.72 5.91,22.84 7.26,20.96 8.96,18.63 10.66,16.31 12.25,14.07 13.85,11.84 14.72,10.73 15.60,9.62 16.63,7.79 17.66,5.96 17.99,5.91 18.32,5.86 18.65,5.89 18.98,5.92 19.29,6.03 19.60,6.14 19.88,6.32 20.15,6.50 20.38,6.74 20.61,6.98 20.77,7.27 20.93,7.56 21.02,7.87 21.10,8.19 21.11,8.52 21.12,8.85 21.05,9.18 20.98,9.50 20.84,9.80 20.69,10.09 20.48,10.35 20.27,10.60 20.00,10.79 19.73,10.99 19.43,11.11 19.12,11.24 18.37,11.42 17.61,11.60 16.08,12.02 14.56,12.44 12.23,13.06 9.91,13.68 6.91,14.21 3.92,14.74 2.21,14.54 0.51,14.33 -0.61,13.52 -1.74,12.71 -2.27,11.36 -2.80,10.00 -2.79,8.89 -2.78,7.79 -2.74,6.17 -2.69,4.55 -2.33,2.28 -1.96,0.02 -1.94,-0.21 -1.91,-0.44 -1.83,-0.67 -1.75,-0.89 -1.61,-1.08 -1.48,-1.28 -1.31,-1.44 -1.13,-1.60 -0.92,-1.71 -0.71,-1.83 -0.48,-1.88 -0.26,-1.94 -0.02,-1.95 0.21,-1.95 0.44,-1.90 0.67,-1.84 0.88,-1.73 1.09,-1.63 1.27,-1.47 1.45,-1.32 1.59,-1.12 1.73,-0.93 1.81,-0.71 1.90,-0.49 1.93,-0.25 1.96,-0.02 1.96,-0.02 L 1.96,-0.02 Z"/></g><g transform="translate(744.8515625 48.9375) rotate(0 5.5390625 15.962890625)" stroke="none"><path fill="#000000" d="M 1.28,0.73 Q 1.28,0.73 -0.03,4.09 -1.35,7.46 -2.65,9.98 -3.96,12.51 -4.86,14.39 -5.76,16.28 -6.23,17.40 -6.71,18.52 -6.92,19.10 -7.14,19.68 -7.29,19.96 -7.45,20.23 -7.67,20.45 -7.89,20.68 -8.16,20.85 -8.42,21.01 -8.72,21.11 -9.02,21.21 -9.33,21.24 -9.65,21.26 -9.96,21.21 -10.27,21.16 -10.56,21.03 -10.85,20.91 -11.10,20.72 -11.35,20.53 -11.55,20.28 -11.74,20.04 -11.88,19.76 -12.01,19.47 -12.07,19.16 -12.14,18.85 -12.12,18.54 -12.11,18.23 -12.02,17.92 -11.93,17.62 -10.66,16.32 -9.39,15.01 -8.05,13.47 -6.71,11.93 -4.33,9.44 -1.95,6.95 0.31,5.03 2.58,3.10 4.42,1.93 6.26,0.75 8.54,0.54 10.82,0.33 11.60,1.20 12.39,2.07 12.38,4.26 12.38,6.44 11.26,9.79 10.14,13.13 9.10,15.98 8.05,18.83 7.27,21.00 6.50,23.18 6.08,24.42 5.67,25.66 5.59,25.99 5.50,26.31 5.38,26.59 5.25,26.86 5.06,27.09 4.88,27.32 4.64,27.50 4.40,27.69 4.13,27.80 3.85,27.92 3.56,27.97 3.26,28.02 2.97,28.00 2.67,27.98 2.38,27.89 2.10,27.80 1.85,27.64 1.59,27.48 1.38,27.27 1.17,27.05 1.02,26.79 0.87,26.54 0.79,26.25 0.70,25.96 0.69,25.67 0.67,25.37 0.73,25.07 0.79,24.78 1.86,23.45 2.94,22.11 4.34,20.47 5.73,18.82 7.38,16.97 9.02,15.11 10.76,13.51 12.50,11.91 14.97,10.87 17.44,9.84 19.31,10.66 21.19,11.48 21.93,13.92 22.68,16.36 22.04,20.29 21.39,24.23 20.88,26.74 20.37,29.25 19.50,30.72 18.63,32.19 18.57,32.39 18.51,32.60 18.39,32.77 18.27,32.95 18.10,33.07 17.93,33.20 17.73,33.27 17.53,33.33 17.31,33.33 17.10,33.33 16.90,33.26 16.70,33.19 16.53,33.06 16.36,32.93 16.24,32.76 16.13,32.58 16.07,32.37 16.02,32.17 16.03,31.96 16.04,31.75 16.12,31.55 16.20,31.35 16.34,31.19 16.48,31.03 16.66,30.92 16.85,30.81 17.05,30.77 17.26,30.72 17.47,30.75 17.68,30.77 17.88,30.86 18.07,30.96 18.22,31.10 18.37,31.25 18.47,31.44 18.57,31.63 18.60,31.84 18.64,32.05 18.60,32.26 18.56,32.47 18.46,32.65 18.36,32.84 18.21,32.98 18.05,33.13 17.86,33.22 17.66,33.30 17.45,33.33 17.24,33.35 17.03,33.30 16.83,33.25 16.65,33.14 16.46,33.03 16.33,32.87 16.19,32.71 16.12,32.51 16.04,32.31 16.03,32.10 16.02,31.88 16.02,31.89 16.02,31.89 15.54,30.02 15.05,28.16 15.57,25.67 16.08,23.18 16.82,20.10 17.57,17.02 17.75,15.55 17.93,14.08 16.77,14.75 15.62,15.42 14.09,16.80 12.55,18.19 10.99,20.02 9.42,21.85 7.46,24.08 5.50,26.31 5.38,26.59 5.25,26.86 5.06,27.09 4.88,27.32 4.64,27.50 4.40,27.69 4.13,27.80 3.85,27.92 3.56,27.97 3.26,28.02 2.97,28.00 2.67,27.98 2.38,27.89 2.10,27.80 1.85,27.64 1.59,27.48 1.38,27.27 1.17,27.05 1.02,26.79 0.87,26.54 0.79,26.25 0.70,25.96 0.69,25.67 0.67,25.37 0.73,25.07 0.79,24.78 0.73,24.43 0.68,24.09 1.12,22.72 1.56,21.35 2.39,19.17 3.22,17.00 4.31,14.23 5.39,11.45 7.06,8.07 8.72,4.69 7.12,5.67 5.52,6.64 3.42,8.37 1.32,10.09 -0.95,12.47 -3.23,14.86 -5.18,17.27 -7.14,19.68 -7.29,19.96 -7.45,20.23 -7.67,20.45 -7.89,20.68 -8.16,20.85 -8.42,21.01 -8.72,21.11 -9.02,21.21 -9.33,21.24 -9.65,21.26 -9.96,21.21 -10.27,21.16 -10.56,21.03 -10.85,20.91 -11.10,20.72 -11.35,20.53 -11.55,20.29 -11.74,20.04 -11.88,19.76 -12.01,19.47 -12.07,19.16 -12.14,18.85 -12.12,18.54 -12.11,18.23 -12.02,17.92 -11.93,17.62 -11.72,17.04 -11.50,16.46 -10.97,15.24 -10.44,14.02 -9.48,12.05 -8.52,10.09 -7.12,7.52 -5.73,4.96 -3.51,2.11 -1.28,-0.73 -1.18,-0.87 -1.07,-1.02 -0.93,-1.13 -0.79,-1.25 -0.63,-1.32 -0.47,-1.40 -0.30,-1.44 -0.12,-1.47 0.05,-1.47 0.23,-1.46 0.40,-1.41 0.57,-1.36 0.72,-1.27 0.88,-1.19 1.01,-1.06 1.14,-0.94 1.24,-0.79 1.33,-0.64 1.39,-0.47 1.45,-0.30 1.46,-0.12 1.48,0.05 1.45,0.22 1.42,0.40 1.35,0.57 1.28,0.73 1.28,0.73 L 1.28,0.73 Z"/></g><g transform="translate(783.21875 57.3671875) rotate(0 23.919921875 13.974609375)" stroke="none"><path fill="#000000" d="M 1.64,0.42 Q 1.64,0.42 1.24,3.34 0.85,6.27 0.09,8.84 -0.66,11.41 -1.45,13.76 -2.24,16.10 -2.91,18.00 -3.59,19.90 -4.04,21.18 -4.49,22.47 -4.63,22.67 -4.78,22.87 -4.91,23.15 -5.05,23.43 -5.25,23.66 -5.45,23.90 -5.70,24.08 -5.95,24.27 -6.24,24.38 -6.53,24.50 -6.84,24.54 -7.14,24.59 -7.45,24.56 -7.76,24.53 -8.05,24.42 -8.35,24.32 -8.61,24.15 -8.86,23.98 -9.08,23.75 -9.29,23.52 -9.44,23.25 -9.59,22.98 -9.67,22.68 -9.75,22.38 -9.75,22.07 -9.76,21.76 -9.69,21.46 -9.63,21.15 -8.86,19.91 -8.09,18.68 -6.77,16.78 -5.46,14.88 -3.16,11.88 -0.86,8.88 1.12,6.66 3.10,4.44 4.45,3.16 5.79,1.89 6.40,1.38 7.01,0.88 7.23,0.72 7.45,0.55 7.71,0.45 7.97,0.34 8.24,0.30 8.51,0.26 8.79,0.28 9.07,0.31 9.33,0.40 9.59,0.49 9.82,0.64 10.05,0.79 10.24,0.99 10.43,1.19 10.57,1.43 10.71,1.67 10.78,1.94 10.86,2.21 10.86,2.48 10.87,2.76 10.81,3.03 10.76,3.30 10.63,3.55 10.51,3.80 10.34,4.01 10.16,4.23 10.45,6.89 10.74,9.54 10.14,12.17 9.54,14.79 9.04,17.01 8.53,19.24 6.99,19.41 5.45,19.59 6.05,18.63 6.64,17.67 8.12,16.18 9.60,14.69 11.22,13.35 12.84,12.00 14.39,11.21 15.94,10.43 17.76,10.39 19.58,10.36 20.83,11.21 22.08,12.06 22.75,13.50 23.41,14.94 23.77,16.19 24.14,17.44 25.14,18.45 26.13,19.46 27.90,19.13 29.66,18.80 31.73,17.40 33.80,16.00 35.19,14.46 36.58,12.93 37.10,11.77 37.62,10.60 35.62,11.93 33.62,13.26 32.42,15.18 31.22,17.10 30.69,19.05 30.16,21.00 31.10,22.45 32.04,23.91 33.68,23.78 35.32,23.65 37.70,22.72 40.07,21.78 44.32,19.45 48.56,17.11 50.40,15.99 52.23,14.87 52.43,14.79 52.62,14.70 52.83,14.68 53.04,14.66 53.25,14.70 53.46,14.75 53.64,14.86 53.82,14.97 53.96,15.14 54.09,15.30 54.17,15.50 54.25,15.69 54.26,15.91 54.27,16.12 54.21,16.32 54.15,16.53 54.03,16.70 53.91,16.88 53.74,17.00 53.57,17.13 53.36,17.20 53.16,17.26 52.95,17.26 52.74,17.26 52.54,17.19 52.34,17.12 52.17,16.99 52.00,16.86 51.88,16.68 51.76,16.51 51.71,16.30 51.65,16.10 51.67,15.89 51.68,15.67 51.76,15.48 51.84,15.28 51.98,15.12 52.12,14.96 52.30,14.85 52.49,14.74 52.69,14.70 52.90,14.65 53.11,14.68 53.32,14.70 53.52,14.79 53.71,14.89 53.86,15.03 54.01,15.18 54.11,15.37 54.21,15.56 54.24,15.77 54.27,15.98 54.24,16.19 54.20,16.40 54.10,16.58 54.00,16.77 53.84,16.91 53.69,17.06 53.69,17.06 53.69,17.06 51.95,18.32 50.21,19.59 46.04,22.85 41.87,26.12 38.67,27.47 35.47,28.83 32.46,28.70 29.45,28.57 27.34,26.73 25.23,24.90 25.06,22.14 24.89,19.37 25.84,16.72 26.79,14.07 28.70,11.58 30.61,9.08 33.57,7.47 36.52,5.87 38.67,6.68 40.81,7.50 41.47,9.64 42.12,11.79 41.22,13.99 40.31,16.19 38.48,18.21 36.65,20.23 33.83,22.06 31.02,23.89 28.81,24.31 26.60,24.72 24.92,24.26 23.23,23.80 21.99,22.82 20.75,21.83 19.91,20.34 19.06,18.85 18.50,16.80 17.93,14.76 16.90,15.24 15.87,15.72 14.49,16.86 13.10,18.00 11.62,19.65 10.13,21.30 8.50,22.49 6.86,23.69 5.41,23.41 3.97,23.13 3.62,20.55 3.27,17.97 3.83,15.75 4.40,13.54 5.03,11.10 5.66,8.67 6.07,6.94 6.47,5.22 6.74,3.05 7.01,0.88 7.23,0.72 7.45,0.55 7.71,0.45 7.97,0.34 8.24,0.30 8.51,0.26 8.79,0.28 9.07,0.31 9.33,0.40 9.59,0.49 9.82,0.64 10.05,0.79 10.24,0.99 10.43,1.19 10.57,1.43 10.71,1.67 10.78,1.94 10.86,2.21 10.86,2.48 10.87,2.76 10.81,3.03 10.76,3.30 10.63,3.55 10.51,3.80 10.34,4.01 10.16,4.23 9.57,4.75 8.98,5.27 7.76,6.41 6.55,7.55 4.69,9.59 2.82,11.64 0.69,14.57 -1.44,17.50 -3.11,20.19 -4.78,22.87 -4.91,23.15 -5.05,23.43 -5.25,23.66 -5.45,23.90 -5.70,24.08 -5.95,24.26 -6.24,24.38 -6.53,24.50 -6.84,24.54 -7.14,24.59 -7.45,24.56 -7.76,24.53 -8.05,24.42 -8.35,24.32 -8.61,24.15 -8.86,23.98 -9.08,23.75 -9.29,23.52 -9.44,23.25 -9.59,22.98 -9.67,22.68 -9.75,22.38 -9.75,22.07 -9.76,21.76 -9.69,21.46 -9.63,21.15 -9.65,20.89 -9.67,20.63 -9.19,19.30 -8.70,17.96 -7.97,16.12 -7.23,14.28 -6.36,12.07 -5.48,9.85 -4.64,7.45 -3.79,5.06 -2.72,2.31 -1.64,-0.42 -1.56,-0.61 -1.49,-0.80 -1.37,-0.97 -1.25,-1.13 -1.10,-1.27 -0.94,-1.40 -0.76,-1.49 -0.58,-1.59 -0.38,-1.63 -0.18,-1.68 0.02,-1.68 0.22,-1.68 0.42,-1.62 0.62,-1.57 0.80,-1.48 0.98,-1.38 1.13,-1.24 1.28,-1.10 1.39,-0.93 1.51,-0.76 1.58,-0.57 1.65,-0.38 1.67,-0.18 1.69,0.02 1.66,0.22 1.64,0.42 1.64,0.42 L 1.64,0.42 Z"/></g><g transform="translate(851.80859375 60.1171875) rotate(0 -8.57421875 16.814453125)" stroke="none"><path fill="#000000" d="M 1.72,1.06 Q 1.72,1.06 0.09,4.38 -1.52,7.70 -3.11,10.97 -4.71,14.24 -6.13,17.49 -7.56,20.75 -8.98,24.05 -10.40,27.36 -11.24,29.18 -12.08,31.01 -13.96,32.47 -15.85,33.93 -15.99,34.08 -16.14,34.24 -16.33,34.33 -16.52,34.43 -16.73,34.46 -16.94,34.50 -17.15,34.46 -17.36,34.42 -17.54,34.32 -17.73,34.22 -17.87,34.06 -18.02,33.91 -18.11,33.71 -18.19,33.52 -18.22,33.31 -18.24,33.10 -18.19,32.89 -18.14,32.68 -18.03,32.50 -17.92,32.32 -17.75,32.19 -17.59,32.05 -17.39,31.97 -17.20,31.90 -16.98,31.89 -16.77,31.88 -16.57,31.94 -16.36,32.00 -16.19,32.12 -16.01,32.24 -15.89,32.41 -15.76,32.58 -15.69,32.78 -15.63,32.98 -15.63,33.19 -15.63,33.41 -15.70,33.61 -15.77,33.81 -15.90,33.98 -16.03,34.14 -16.21,34.26 -16.39,34.38 -16.59,34.43 -16.80,34.49 -17.01,34.48 -17.22,34.46 -17.42,34.38 -17.61,34.30 -17.77,34.16 -17.93,34.02 -18.04,33.84 -18.15,33.66 -18.19,33.45 -18.24,33.24 -18.21,33.03 -18.19,32.82 -18.10,32.63 -18.00,32.43 -18.01,32.43 -18.01,32.43 -17.61,30.60 -17.21,28.76 -16.46,26.93 -15.71,25.10 -14.29,21.73 -12.87,18.36 -11.33,15.02 -9.79,11.67 -8.00,8.24 -6.20,4.81 -3.96,1.87 -1.72,-1.06 -1.57,-1.25 -1.41,-1.44 -1.22,-1.59 -1.03,-1.74 -0.80,-1.84 -0.58,-1.94 -0.34,-1.98 -0.10,-2.02 0.14,-2.00 0.38,-1.99 0.61,-1.91 0.84,-1.84 1.05,-1.71 1.26,-1.58 1.43,-1.40 1.60,-1.23 1.73,-1.02 1.85,-0.81 1.92,-0.58 1.99,-0.34 2.00,-0.10 2.02,0.14 1.97,0.38 1.92,0.62 1.82,0.84 1.72,1.06 1.72,1.06 L 1.72,1.06 Z"/></g><g transform="translate(839.6796875 77.359375) rotate(0 4.689453125 -0.99609375)" stroke="none"><path fill="#000000" d="M -0.54,-2.11 Q -0.54,-2.11 1.61,-2.86 3.77,-3.61 6.01,-3.37 8.26,-3.13 8.47,-3.13 8.68,-3.13 8.88,-3.07 9.08,-3.00 9.25,-2.87 9.42,-2.74 9.55,-2.57 9.67,-2.39 9.72,-2.19 9.78,-1.98 9.77,-1.77 9.76,-1.56 9.68,-1.36 9.61,-1.16 9.47,-1.00 9.33,-0.84 9.15,-0.73 8.97,-0.62 8.76,-0.57 8.56,-0.52 8.35,-0.54 8.13,-0.57 7.94,-0.65 7.75,-0.74 7.59,-0.89 7.44,-1.03 7.34,-1.22 7.24,-1.41 7.20,-1.62 7.16,-1.83 7.20,-2.04 7.23,-2.25 7.33,-2.43 7.43,-2.62 7.58,-2.77 7.73,-2.92 7.93,-3.01 8.12,-3.10 8.33,-3.12 8.54,-3.15 8.75,-3.10 8.96,-3.06 9.14,-2.95 9.32,-2.84 9.46,-2.68 9.60,-2.52 9.68,-2.32 9.76,-2.12 9.77,-1.91 9.78,-1.70 9.73,-1.50 9.67,-1.29 9.55,-1.11 9.44,-0.94 9.27,-0.81 9.10,-0.68 8.90,-0.61 8.70,-0.54 8.70,-0.54 8.70,-0.54 6.87,0.39 5.05,1.32 2.80,1.72 0.54,2.11 0.28,2.15 0.02,2.18 -0.23,2.15 -0.49,2.12 -0.74,2.03 -0.99,1.94 -1.21,1.80 -1.42,1.65 -1.60,1.45 -1.78,1.26 -1.90,1.03 -2.03,0.80 -2.10,0.54 -2.16,0.29 -2.17,0.02 -2.17,-0.23 -2.11,-0.49 -2.05,-0.75 -1.93,-0.98 -1.81,-1.21 -1.64,-1.41 -1.46,-1.61 -1.25,-1.77 -1.03,-1.92 -0.79,-2.01 -0.54,-2.11 -0.54,-2.11 L -0.54,-2.11 Z"/></g><g transform="translate(856.35546875 88.5390625) rotate(0 5.587890625 -2.369140625)" stroke="none"><path fill="#000000" d="M 1.59,0.25 Q 1.59,0.25 2.00,1.54 2.42,2.84 2.33,3.17 2.23,3.50 2.06,3.80 1.89,4.09 1.66,4.34 1.42,4.59 1.13,4.77 0.84,4.96 0.52,5.07 0.19,5.18 -0.14,5.20 -0.48,5.23 -0.82,5.18 -1.16,5.13 -1.48,4.99 -1.79,4.86 -2.07,4.65 -2.34,4.45 -2.56,4.18 -2.78,3.92 -2.92,3.61 -3.07,3.30 -3.14,2.96 -3.21,2.63 -3.20,2.29 -3.19,1.94 -2.75,0.93 -2.32,-0.08 -1.62,-1.60 -0.93,-3.12 0.49,-5.36 1.91,-7.59 3.46,-9.07 5.01,-10.55 7.75,-10.90 10.49,-11.24 10.70,-11.28 10.91,-11.32 11.12,-11.29 11.33,-11.25 11.52,-11.16 11.71,-11.06 11.86,-10.91 12.01,-10.76 12.10,-10.57 12.19,-10.37 12.22,-10.16 12.24,-9.95 12.20,-9.74 12.16,-9.54 12.05,-9.35 11.94,-9.17 11.78,-9.03 11.63,-8.89 11.43,-8.81 11.23,-8.73 11.02,-8.71 10.81,-8.70 10.60,-8.75 10.40,-8.80 10.22,-8.92 10.04,-9.04 9.91,-9.21 9.78,-9.37 9.71,-9.57 9.64,-9.77 9.64,-9.99 9.63,-10.20 9.70,-10.40 9.76,-10.60 9.89,-10.77 10.02,-10.95 10.19,-11.07 10.36,-11.19 10.57,-11.25 10.77,-11.31 10.98,-11.30 11.20,-11.29 11.39,-11.22 11.59,-11.14 11.76,-11.00 11.92,-10.87 12.03,-10.69 12.15,-10.51 12.19,-10.30 12.24,-10.09 12.22,-9.88 12.20,-9.67 12.12,-9.48 12.03,-9.28 11.89,-9.13 11.74,-8.97 11.56,-8.87 11.37,-8.77 11.37,-8.77 11.37,-8.77 10.01,-7.66 8.66,-6.56 7.67,-5.53 6.69,-4.50 5.48,-2.61 4.28,-0.72 3.35,1.05 2.42,2.84 2.33,3.17 2.23,3.50 2.06,3.80 1.89,4.09 1.66,4.34 1.42,4.59 1.13,4.77 0.84,4.96 0.52,5.07 0.19,5.18 -0.14,5.20 -0.48,5.23 -0.82,5.18 -1.16,5.13 -1.48,4.99 -1.79,4.86 -2.07,4.65 -2.34,4.45 -2.56,4.18 -2.78,3.92 -2.92,3.61 -3.07,3.30 -3.14,2.96 -3.21,2.63 -3.20,2.29 -3.19,1.94 -2.39,0.84 -1.59,-0.25 -1.53,-0.44 -1.48,-0.62 -1.38,-0.79 -1.29,-0.96 -1.15,-1.10 -1.02,-1.24 -0.86,-1.35 -0.69,-1.45 -0.51,-1.51 -0.32,-1.57 -0.13,-1.59 0.06,-1.61 0.25,-1.58 0.44,-1.55 0.62,-1.47 0.80,-1.39 0.95,-1.28 1.11,-1.16 1.23,-1.01 1.36,-0.86 1.44,-0.69 1.52,-0.51 1.56,-0.32 1.60,-0.13 1.60,0.05 1.59,0.25 1.59,0.25 L 1.59,0.25 Z"/></g><g transform="translate(874.44921875 86.16796875) rotate(0 0.33203125 5.400390625)" stroke="none"><path fill="#000000" d="M 1.84,-0.13 Q 1.84,-0.13 2.53,2.50 3.21,5.13 2.26,7.33 1.31,9.52 1.23,9.71 1.15,9.91 1.01,10.07 0.86,10.23 0.68,10.33 0.50,10.44 0.29,10.48 0.08,10.52 -0.12,10.50 -0.33,10.47 -0.52,10.38 -0.71,10.28 -0.87,10.13 -1.02,9.99 -1.11,9.80 -1.21,9.61 -1.24,9.40 -1.27,9.19 -1.23,8.98 -1.19,8.77 -1.09,8.58 -0.99,8.40 -0.83,8.25 -0.67,8.11 -0.48,8.02 -0.28,7.94 -0.07,7.92 0.13,7.90 0.34,7.95 0.54,8.00 0.72,8.11 0.90,8.23 1.04,8.39 1.17,8.56 1.25,8.76 1.32,8.95 1.33,9.17 1.34,9.38 1.28,9.58 1.22,9.79 1.09,9.96 0.97,10.13 0.80,10.26 0.63,10.38 0.42,10.45 0.22,10.51 0.01,10.51 -0.19,10.50 -0.39,10.43 -0.59,10.36 -0.76,10.23 -0.93,10.10 -1.04,9.92 -1.16,9.74 -1.21,9.53 -1.26,9.33 -1.25,9.12 -1.23,8.90 -1.23,8.90 -1.23,8.90 -1.84,7.22 -2.45,5.53 -2.14,2.83 -1.84,0.13 -1.83,-0.09 -1.82,-0.31 -1.75,-0.52 -1.69,-0.74 -1.58,-0.93 -1.46,-1.12 -1.31,-1.28 -1.15,-1.44 -0.96,-1.56 -0.77,-1.67 -0.56,-1.74 -0.35,-1.81 -0.13,-1.83 0.09,-1.84 0.31,-1.80 0.53,-1.77 0.73,-1.68 0.93,-1.59 1.11,-1.45 1.29,-1.32 1.43,-1.14 1.57,-0.97 1.66,-0.77 1.75,-0.56 1.80,-0.35 1.84,-0.13 1.84,-0.13 L 1.84,-0.13 Z"/></g><g transform="translate(889.1328125 72.0546875) rotate(0 -0.662109375 -0.474609375)" stroke="none"><path fill="#000000" d="M 1.74,-0.54 Q 1.74,-0.54 1.77,-0.10 1.79,0.32 1.61,0.72 1.43,1.12 1.09,1.39 0.75,1.66 0.31,1.74 -0.11,1.82 -0.52,1.69 -0.94,1.56 -1.25,1.25 -1.56,0.94 -1.69,0.52 -1.82,0.11 -1.74,-0.32 -1.66,-0.75 -1.39,-1.09 -1.12,-1.43 -0.72,-1.61 -0.32,-1.79 0.10,-1.77 0.54,-1.74 0.91,-1.51 1.29,-1.29 1.51,-0.91 L 1.74,-0.54 Z"/></g><g transform="translate(901.1640625 83.98828125) rotate(0 -5.162109375 9.853515625)" stroke="none"><path fill="#000000" d="M -0.07,1.43 Q -0.07,1.43 -2.17,1.88 -4.28,2.34 -6.05,3.24 -7.83,4.14 -9.04,5.33 -10.26,6.52 -10.85,7.84 -11.44,9.16 -11.69,10.34 -11.95,11.52 -10.17,13.05 -8.39,14.57 -6.72,15.29 -5.05,16.01 -3.15,16.44 -1.25,16.87 1.27,17.38 3.81,17.88 4.02,17.91 4.23,17.93 4.43,18.02 4.62,18.11 4.77,18.26 4.93,18.40 5.03,18.59 5.12,18.78 5.16,18.99 5.19,19.20 5.16,19.41 5.12,19.62 5.02,19.81 4.92,19.99 4.77,20.14 4.61,20.28 4.42,20.37 4.23,20.46 4.02,20.48 3.81,20.51 3.60,20.46 3.39,20.42 3.21,20.31 3.03,20.20 2.89,20.03 2.75,19.87 2.67,19.67 2.60,19.48 2.59,19.26 2.57,19.05 2.63,18.85 2.69,18.64 2.81,18.47 2.93,18.29 3.10,18.16 3.27,18.03 3.47,17.97 3.67,17.90 3.88,17.90 4.09,17.90 4.30,17.97 4.50,18.04 4.67,18.17 4.83,18.30 4.95,18.47 5.07,18.65 5.13,18.85 5.19,19.06 5.17,19.27 5.16,19.48 5.08,19.68 5.00,19.88 4.87,20.04 4.73,20.20 4.55,20.31 4.36,20.42 4.16,20.46 3.95,20.51 3.95,20.51 3.95,20.51 0.89,21.31 -2.15,22.11 -4.75,21.74 -7.34,21.36 -9.70,20.33 -12.07,19.29 -14.28,17.27 -16.50,15.26 -17.12,12.95 -17.74,10.64 -17.19,8.48 -16.64,6.32 -15.35,4.28 -14.06,2.24 -12.00,0.64 -9.93,-0.95 -7.07,-1.86 -4.21,-2.77 -2.06,-2.10 0.07,-1.43 0.24,-1.40 0.41,-1.37 0.57,-1.30 0.72,-1.23 0.86,-1.12 1.00,-1.02 1.11,-0.88 1.21,-0.75 1.29,-0.59 1.36,-0.43 1.39,-0.26 1.42,-0.09 1.42,0.07 1.41,0.24 1.36,0.41 1.31,0.57 1.22,0.72 1.13,0.87 1.01,0.99 0.89,1.11 0.74,1.21 0.59,1.30 0.43,1.35 0.27,1.40 0.09,1.41 -0.07,1.43 -0.07,1.43 L -0.07,1.43 Z"/></g><g transform="translate(289.19140625 55.765625) rotate(0 4.5 0)" stroke="none"><path fill="#000000" d="M 0,-2.17 Q 0,-2.17 3.41,-2.19 6.82,-2.22 7.17,-2.16 7.53,-2.10 7.85,-1.93 8.16,-1.76 8.41,-1.50 8.66,-1.24 8.81,-0.92 8.96,-0.59 9.00,-0.23 9.04,0.12 8.96,0.47 8.88,0.82 8.70,1.13 8.51,1.43 8.24,1.67 7.96,1.90 7.63,2.03 7.30,2.16 6.94,2.18 6.58,2.20 6.23,2.11 5.89,2.01 5.59,1.81 5.29,1.61 5.07,1.32 4.86,1.04 4.74,0.69 4.63,0.35 4.63,-0.00 4.63,-0.35 4.74,-0.70 4.86,-1.04 5.07,-1.32 5.29,-1.61 5.59,-1.81 5.89,-2.01 6.23,-2.11 6.58,-2.20 6.94,-2.18 7.30,-2.16 7.63,-2.03 7.97,-1.90 8.24,-1.67 8.51,-1.43 8.70,-1.12 8.88,-0.82 8.96,-0.47 9.04,-0.11 9.00,0.23 8.96,0.59 8.81,0.92 8.66,1.24 8.41,1.50 8.16,1.76 7.85,1.93 7.53,2.10 7.17,2.16 6.82,2.22 6.82,2.22 6.82,2.22 3.41,2.19 0,2.17 -0.26,2.14 -0.52,2.11 -0.76,2.01 -1.01,1.92 -1.22,1.77 -1.44,1.62 -1.61,1.43 -1.79,1.23 -1.91,1.00 -2.03,0.77 -2.09,0.51 -2.15,0.26 -2.15,-0.00 -2.15,-0.26 -2.09,-0.51 -2.03,-0.77 -1.91,-1.00 -1.79,-1.23 -1.61,-1.43 -1.44,-1.62 -1.22,-1.77 -1.01,-1.92 -0.76,-2.01 -0.52,-2.11 -0.26,-2.14 0.00,-2.17 0.00,-2.17 L 0,-2.17 Z"/></g><g transform="translate(607.125 235.70304008152175) rotate(0 99.43274456521738 4.408967391304344)" stroke="none"><path fill="#000000" d="M 1.05,-1.05 Q 1.05,-1.05 2.42,-0.57 3.79,-0.10 5.65,1.20 7.51,2.51 8.92,3.26 10.34,4.00 12.71,4.98 15.08,5.96 17.34,6.70 19.60,7.43 21.80,7.94 23.99,8.45 26.14,8.77 28.30,9.09 31.00,9.35 33.71,9.60 36.10,9.78 38.49,9.96 40.83,10.09 43.17,10.21 45.70,10.26 48.23,10.31 52.06,10.23 55.90,10.16 59.51,9.94 63.11,9.73 66.55,9.46 69.98,9.20 73.07,9.00 76.16,8.79 79.57,8.60 82.98,8.42 85.89,8.27 88.80,8.12 91.60,7.96 94.39,7.80 97.16,7.64 99.94,7.48 102.61,7.31 105.27,7.15 108.34,7.02 111.40,6.89 113.82,6.79 116.24,6.68 118.42,6.50 120.60,6.31 122.75,6.04 124.90,5.77 127.11,5.50 129.32,5.22 131.47,5.01 133.62,4.81 135.97,4.72 138.32,4.63 139.96,4.59 141.61,4.55 142.93,4.54 144.25,4.52 145.83,4.42 147.40,4.32 148.86,4.19 150.32,4.05 151.74,3.90 153.17,3.75 154.62,3.65 156.08,3.56 157.48,3.50 158.89,3.43 160.34,3.38 161.79,3.33 163.46,3.13 165.14,2.92 166.53,2.70 167.92,2.48 168.98,2.27 170.04,2.06 171.91,1.71 173.77,1.37 175.84,1.10 177.91,0.82 179.09,0.71 180.28,0.61 181.42,0.56 182.57,0.51 184.06,0.49 185.56,0.47 187.05,0.61 188.54,0.75 189.70,0.91 190.86,1.07 192.23,1.21 193.60,1.36 194.97,1.59 196.34,1.83 197.59,2.73 198.83,3.63 198.48,5.61 198.12,7.59 196.59,9.25 195.05,10.91 194.09,11.94 193.13,12.98 192.29,13.89 191.44,14.81 190.48,15.75 189.51,16.69 188.07,18.02 186.63,19.34 185.42,20.42 184.21,21.50 183.38,22.23 182.55,22.96 182.05,23.30 181.54,23.65 181.26,23.84 180.98,24.04 180.66,24.16 180.34,24.29 180.00,24.33 179.66,24.38 179.32,24.34 178.98,24.30 178.66,24.18 178.34,24.06 178.06,23.87 177.77,23.67 177.55,23.42 177.32,23.16 177.16,22.86 176.99,22.56 176.91,22.23 176.83,21.90 176.82,21.55 176.82,21.21 176.90,20.88 176.98,20.54 177.14,20.24 177.30,19.94 177.52,19.68 177.75,19.42 179.11,17.91 180.47,16.40 181.52,15.27 182.56,14.15 183.62,13.06 184.67,11.96 185.75,10.94 186.82,9.92 188.38,8.64 189.93,7.36 191.21,6.33 192.50,5.30 193.44,4.51 194.38,3.72 195.03,2.78 195.68,1.85 195.80,0.71 195.92,-0.42 194.58,-1.98 193.25,-3.54 192.41,-4.41 191.58,-5.28 190.26,-6.57 188.95,-7.86 187.76,-8.36 186.57,-8.86 185.18,-9.11 183.79,-9.36 182.73,-9.56 181.66,-9.76 180.90,-10.65 180.14,-11.54 179.93,-11.54 179.71,-11.54 179.51,-11.61 179.31,-11.67 179.14,-11.80 178.97,-11.93 178.86,-12.11 178.74,-12.28 178.68,-12.49 178.62,-12.69 178.64,-12.91 178.65,-13.12 178.73,-13.32 178.81,-13.51 178.95,-13.67 179.08,-13.84 179.27,-13.94 179.45,-14.05 179.66,-14.10 179.86,-14.14 180.07,-14.12 180.29,-14.10 180.48,-14.01 180.67,-13.92 180.82,-13.77 180.98,-13.62 181.08,-13.44 181.18,-13.25 181.21,-13.04 181.24,-12.83 181.21,-12.62 181.17,-12.41 181.07,-12.22 180.97,-12.03 180.82,-11.89 180.66,-11.74 180.47,-11.65 180.28,-11.57 180.07,-11.54 179.86,-11.52 179.65,-11.57 179.44,-11.61 179.26,-11.72 179.08,-11.83 178.94,-12.00 178.80,-12.16 178.73,-12.36 178.65,-12.55 178.64,-12.77 178.63,-12.98 178.68,-13.18 178.74,-13.39 178.86,-13.56 178.98,-13.74 179.15,-13.87 179.32,-13.99 179.52,-14.06 179.72,-14.13 179.72,-14.13 179.72,-14.13 181.70,-14.71 183.67,-15.30 185.01,-15.11 186.35,-14.91 187.42,-14.67 188.48,-14.42 189.68,-13.97 190.88,-13.53 191.85,-12.91 192.82,-12.30 194.33,-10.82 195.83,-9.34 196.72,-8.40 197.61,-7.47 198.61,-6.34 199.62,-5.20 200.59,-3.51 201.56,-1.81 201.57,-0.26 201.57,1.28 201.18,2.85 200.79,4.42 200.16,5.48 199.53,6.54 198.77,7.30 198.02,8.06 197.03,8.89 196.04,9.72 194.78,10.72 193.53,11.73 192.12,12.88 190.72,14.04 189.73,14.97 188.75,15.90 187.74,16.95 186.73,17.99 185.71,19.10 184.69,20.21 183.11,21.93 181.54,23.65 181.26,23.84 180.98,24.04 180.66,24.16 180.34,24.29 180.00,24.33 179.66,24.38 179.32,24.34 178.98,24.30 178.66,24.18 178.34,24.06 178.06,23.87 177.77,23.67 177.55,23.42 177.32,23.16 177.16,22.86 176.99,22.56 176.91,22.23 176.83,21.90 176.82,21.55 176.82,21.21 176.90,20.88 176.98,20.55 177.14,20.24 177.29,19.94 177.52,19.68 177.75,19.42 178.22,19.00 178.69,18.57 179.49,17.87 180.29,17.16 181.45,16.09 182.62,15.02 183.99,13.74 185.35,12.46 186.20,11.62 187.05,10.78 187.91,9.84 188.77,8.90 189.70,7.91 190.64,6.91 192.12,5.85 193.60,4.78 193.29,5.99 192.99,7.19 191.53,7.03 190.07,6.88 189.01,6.73 187.95,6.59 186.79,6.46 185.63,6.33 183.21,6.39 180.80,6.44 179.71,6.54 178.62,6.64 176.69,6.89 174.77,7.14 172.97,7.47 171.17,7.80 170.00,8.03 168.84,8.25 167.33,8.49 165.82,8.73 163.91,8.95 161.99,9.17 160.57,9.22 159.15,9.27 157.80,9.32 156.45,9.38 155.12,9.47 153.78,9.55 152.32,9.70 150.85,9.86 149.30,10.00 147.75,10.14 146.04,10.24 144.32,10.34 143.03,10.36 141.73,10.37 140.13,10.40 138.52,10.43 136.33,10.50 134.14,10.57 132.09,10.75 130.04,10.93 127.82,11.21 125.59,11.49 123.33,11.75 121.07,12.02 118.77,12.20 116.47,12.38 114.04,12.47 111.62,12.56 108.62,12.66 105.62,12.77 102.94,12.93 100.27,13.09 97.49,13.25 94.71,13.41 91.90,13.57 89.09,13.73 86.18,13.88 83.28,14.03 79.90,14.20 76.53,14.38 73.46,14.58 70.40,14.79 66.92,15.05 63.45,15.30 59.72,15.53 56.00,15.75 52.06,15.82 48.11,15.89 45.50,15.83 42.88,15.77 40.47,15.64 38.06,15.51 35.62,15.33 33.18,15.14 30.32,14.86 27.46,14.58 25.09,14.21 22.73,13.84 20.31,13.27 17.89,12.69 15.42,11.89 12.96,11.08 10.34,9.99 7.72,8.91 6.09,8.03 4.46,7.15 3.22,6.33 1.99,5.51 0.94,4.65 -0.09,3.79 -0.57,2.42 -1.05,1.05 -1.16,0.91 -1.27,0.77 -1.35,0.60 -1.42,0.44 -1.45,0.26 -1.49,0.09 -1.48,-0.08 -1.46,-0.26 -1.41,-0.44 -1.36,-0.61 -1.26,-0.76 -1.17,-0.92 -1.04,-1.04 -0.92,-1.17 -0.76,-1.26 -0.61,-1.36 -0.44,-1.41 -0.26,-1.46 -0.08,-1.48 0.09,-1.49 0.26,-1.45 0.44,-1.42 0.60,-1.35 0.77,-1.27 0.91,-1.16 1.05,-1.05 1.05,-1.05 L 1.05,-1.05 Z"/></g><g transform="translate(803.6841032608695 277.798828125) rotate(0 28.75 30.27683423913041)" stroke="none"><path fill="#000000" d="M 0.96,1.65 Q 0.96,1.65 -0.27,2.90 -1.50,4.16 -3.22,5.25 -4.93,6.34 -6.43,7.42 -7.93,8.50 -9.20,9.61 -10.47,10.72 -11.37,11.81 -12.28,12.89 -12.81,13.93 -13.35,14.98 -13.58,16.57 -13.82,18.16 -13.96,19.97 -14.10,21.79 -13.93,23.49 -13.76,25.20 -13.38,26.95 -13.01,28.69 -12.41,30.37 -11.82,32.05 -10.64,34.10 -9.46,36.15 -8.14,38.22 -6.83,40.29 -5.43,42.47 -4.04,44.65 -2.31,46.90 -0.57,49.15 1.11,50.71 2.80,52.27 4.60,53.42 6.40,54.58 8.18,55.45 9.97,56.33 11.59,56.91 13.21,57.49 14.66,57.83 16.11,58.18 17.76,58.34 19.40,58.49 20.83,58.57 22.25,58.64 23.51,58.70 24.77,58.76 26.49,58.87 28.20,58.99 29.71,59.04 31.22,59.08 32.70,59.11 34.19,59.14 35.39,58.85 36.59,58.57 37.89,58.10 39.19,57.64 40.39,57.07 41.60,56.50 42.95,55.67 44.30,54.84 45.49,54.04 46.69,53.24 47.74,52.44 48.79,51.64 50.08,50.50 51.38,49.35 52.39,48.27 53.39,47.19 54.14,46.11 54.88,45.03 55.57,43.86 56.25,42.68 56.83,41.48 57.40,40.28 57.85,39.11 58.31,37.94 58.63,36.68 58.95,35.43 59.17,33.60 59.38,31.76 59.23,30.17 59.07,28.58 58.57,27.08 58.07,25.57 57.20,24.16 56.32,22.76 55.52,21.73 54.73,20.71 53.60,19.19 52.46,17.68 51.39,16.54 50.32,15.41 49.42,14.58 48.52,13.75 47.54,12.68 46.56,11.61 45.72,10.83 44.89,10.06 43.81,9.38 42.73,8.69 41.63,8.07 40.54,7.46 39.46,6.63 38.39,5.80 37.76,4.90 37.13,3.99 39.55,3.91 41.98,3.83 41.39,5.42 40.80,7.01 40.37,8.19 39.95,9.37 39.35,11.17 38.75,12.97 38.29,14.58 37.84,16.20 37.57,17.54 37.30,18.88 37.16,20.01 37.03,21.15 36.90,22.28 36.77,23.42 36.69,23.44 36.61,23.46 36.55,23.78 36.49,24.11 36.35,24.41 36.21,24.71 36.00,24.97 35.80,25.23 35.53,25.44 35.27,25.64 34.97,25.77 34.66,25.91 34.33,25.97 34.01,26.02 33.68,26.00 33.35,25.98 33.03,25.88 32.71,25.78 32.43,25.60 32.15,25.43 31.91,25.19 31.68,24.96 31.51,24.67 31.34,24.39 31.24,24.07 31.15,23.75 31.13,23.42 31.11,23.09 31.66,21.52 32.21,19.95 33.13,17.49 34.04,15.03 34.53,13.67 35.01,12.30 35.44,11.01 35.87,9.71 36.30,8.45 36.72,7.18 37.11,5.97 37.51,4.76 37.82,3.57 38.13,2.39 38.40,1.13 38.67,-0.13 39.42,-1.72 40.16,-3.31 41.79,-3.55 43.42,-3.79 45.28,-2.89 47.14,-2.00 48.18,-1.58 49.23,-1.17 50.38,-0.77 51.54,-0.37 52.95,0.03 54.37,0.45 55.48,0.78 56.59,1.11 58.37,1.69 60.15,2.27 62.30,3.19 64.46,4.12 65.61,4.59 66.76,5.06 67.87,5.36 68.98,5.66 70.99,5.87 73.00,6.08 72.98,5.92 72.96,5.76 72.96,5.54 72.97,5.33 73.05,5.13 73.12,4.93 73.25,4.77 73.39,4.60 73.57,4.49 73.75,4.38 73.96,4.33 74.16,4.28 74.37,4.30 74.59,4.32 74.78,4.40 74.97,4.49 75.13,4.63 75.29,4.77 75.39,4.96 75.49,5.15 75.53,5.36 75.57,5.56 75.54,5.77 75.51,5.98 75.41,6.17 75.32,6.36 75.17,6.51 75.02,6.66 74.82,6.75 74.63,6.85 74.42,6.87 74.21,6.90 74.00,6.86 73.80,6.82 73.61,6.71 73.43,6.61 73.29,6.45 73.15,6.29 73.06,6.09 72.98,5.90 72.97,5.68 72.95,5.47 73.00,5.27 73.06,5.06 73.17,4.88 73.29,4.70 73.45,4.57 73.62,4.44 73.82,4.37 74.02,4.30 74.23,4.29 74.45,4.29 74.65,4.35 74.85,4.42 75.02,4.54 75.19,4.67 75.32,4.84 75.44,5.02 75.50,5.22 75.56,5.42 75.56,5.42 75.56,5.42 75.63,8.24 75.70,11.07 74.16,11.36 72.62,11.65 71.45,11.58 70.28,11.51 68.88,11.30 67.48,11.09 66.05,10.69 64.62,10.28 63.38,9.77 62.13,9.26 60.22,8.42 58.32,7.59 56.65,7.03 54.98,6.48 53.87,6.15 52.77,5.82 51.22,5.34 49.67,4.87 48.40,4.41 47.14,3.94 45.95,3.45 44.76,2.95 43.11,2.12 41.45,1.28 42.77,1.02 44.09,0.76 43.75,2.27 43.42,3.79 43.06,5.11 42.71,6.44 42.31,7.68 41.91,8.92 41.49,10.20 41.06,11.47 40.60,12.81 40.14,14.15 39.64,15.52 39.14,16.90 38.58,18.41 38.01,19.93 37.31,21.69 36.61,23.46 36.55,23.78 36.49,24.11 36.35,24.41 36.21,24.71 36.00,24.97 35.80,25.23 35.53,25.44 35.27,25.64 34.97,25.77 34.66,25.91 34.34,25.97 34.01,26.02 33.68,26.00 33.35,25.98 33.03,25.88 32.71,25.78 32.43,25.60 32.15,25.43 31.91,25.19 31.68,24.96 31.51,24.67 31.34,24.39 31.24,24.07 31.15,23.75 31.13,23.42 31.11,23.09 31.04,22.87 30.97,22.65 31.05,21.55 31.12,20.44 31.28,19.07 31.45,17.69 31.77,16.13 32.09,14.58 32.58,12.83 33.08,11.08 33.71,9.20 34.33,7.32 35.16,5.12 35.99,2.91 36.53,1.88 37.07,0.85 39.75,1.08 42.42,1.32 43.29,1.96 44.16,2.59 45.19,3.14 46.23,3.69 47.29,4.38 48.36,5.07 49.29,5.91 50.23,6.75 51.02,7.62 51.82,8.48 52.64,9.31 53.47,10.14 54.65,11.29 55.83,12.44 56.53,13.25 57.23,14.06 58.32,15.51 59.40,16.96 60.27,18.10 61.14,19.23 62.04,20.61 62.94,22.00 63.62,23.67 64.29,25.34 64.60,26.43 64.91,27.51 65.09,29.87 65.26,32.24 65.17,33.33 65.07,34.42 64.85,35.69 64.64,36.95 64.20,38.53 63.76,40.10 63.21,41.46 62.66,42.81 61.98,44.22 61.30,45.63 60.48,47.02 59.67,48.41 58.67,49.80 57.67,51.19 56.46,52.47 55.26,53.75 53.80,55.03 52.34,56.32 51.14,57.22 49.94,58.12 48.64,58.99 47.33,59.86 45.70,60.83 44.07,61.81 42.60,62.49 41.12,63.16 39.47,63.73 37.82,64.30 35.98,64.66 34.14,65.02 32.58,65.00 31.03,64.99 29.41,64.93 27.78,64.88 26.14,64.76 24.50,64.64 23.22,64.58 21.93,64.52 20.36,64.43 18.80,64.34 16.76,64.12 14.72,63.89 12.96,63.46 11.20,63.02 9.28,62.31 7.36,61.60 5.27,60.56 3.17,59.51 0.98,58.05 -1.21,56.58 -3.23,54.66 -5.26,52.73 -7.14,50.24 -9.02,47.74 -10.34,45.55 -11.67,43.37 -13.06,41.18 -14.46,38.98 -15.86,36.47 -17.27,33.96 -17.96,31.92 -18.66,29.89 -19.09,27.80 -19.51,25.71 -19.69,23.52 -19.86,21.33 -19.68,19.22 -19.50,17.11 -18.99,14.70 -18.48,12.29 -17.59,10.71 -16.71,9.14 -15.49,7.74 -14.27,6.34 -12.78,5.07 -11.29,3.80 -9.63,2.63 -7.98,1.45 -6.17,0.35 -4.36,-0.75 -2.66,-1.20 -0.96,-1.65 -0.74,-1.74 -0.53,-1.83 -0.30,-1.87 -0.08,-1.90 0.14,-1.89 0.37,-1.87 0.59,-1.80 0.81,-1.72 1.00,-1.60 1.20,-1.48 1.36,-1.31 1.52,-1.15 1.64,-0.95 1.75,-0.75 1.82,-0.53 1.88,-0.31 1.89,-0.08 1.90,0.14 1.86,0.37 1.81,0.60 1.71,0.80 1.61,1.01 1.47,1.19 1.32,1.37 1.14,1.51 0.96,1.65 0.96,1.65 L 0.96,1.65 Z"/></g></svg>